<?xml version="1.0" encoding="UTF-8"?>
<svg id="Layer_1" xmlns="http://www.w3.org/2000/svg" version="1.1" viewBox="0 0 595.28 316.6">
  <!-- Generator: Adobe Illustrator 29.5.1, SVG Export Plug-In . SVG Version: 2.1.0 Build 141)  -->
  <defs>
    <style>
      .st0 {
        fill: #fff;
      }

      .st0, .st1, .st2, .st3 {
        stroke-miterlimit: 10;
      }

      .st0, .st2 {
        stroke: #121f9e;
      }

      .st1 {
        stroke: #fff;
        stroke-width: .2px;
      }

      .st1, .st2, .st3 {
        fill: none;
      }

      .st4 {
        fill: #45f485;
      }

      .st5 {
        fill: #121f9e;
      }

      .st3 {
        stroke: #45f485;
      }
    </style>
  </defs>
  <line class="st1" x1="5.79" y1="311.31" x2="588.37" y2="311.31"/>
  <line class="st1" x1="5.79" y1="11.18" x2="588.37" y2="11.18"/>
  <line class="st1" x1="5.79" y1="11.18" x2="588.37" y2="11.18"/>
  <g>
    <g>
      <path class="st4" d="M186.34,129.95c-1.1,0-2,.9-2,2v24.32c0,1.1.9,2,2,2h24.32c1.1,0,2-.9,2-2v-24.32c0-1.1-.9-2-2-2h-10.75l-1.41-.99-1.74.99h-10.42Z"/>
      <g>
        <path class="st2" d="M210.66,129.95c1.1,0,2,.9,2,2v24.32c0,1.1-.9,2-2,2h-24.32c-1.1,0-2-.9-2-2v-24.32c0-1.1.9-2,2-2"/>
        <path class="st5" d="M199.66,138.6v11.02h-1.55v-9.38l-1.89,1v-1.64l1.89-1h1.55Z"/>
      </g>
      <path class="st4" d="M158.01,129.95c-1.1,0-2,.9-2,2v24.32c0,1.1.9,2,2,2h24.32c1.1,0,2-.9,2-2v-24.32c0-1.1-.9-2-2-2h-11.29l-1.57-.99-1.26.99h-10.2Z"/>
      <g>
        <path class="st2" d="M182.34,129.95c1.1,0,2,.9,2,2v24.32c0,1.1-.9,2-2,2h-24.32c-1.1,0-2-.9-2-2v-24.32c0-1.1.9-2,2-2"/>
        <path class="st5" d="M171.34,138.6v11.02h-1.55v-9.38l-1.89,1v-1.64l1.89-1h1.55Z"/>
      </g>
      <g>
        <rect class="st0" x="127.69" y="129.95" width="28.32" height="28.32" rx="2" ry="2"/>
        <path class="st5" d="M141.85,149.75c-1.05,0-1.84-.28-2.36-.84-.52-.56-.78-1.33-.78-2.29v-5.01c0-.98.26-1.74.8-2.3.53-.56,1.31-.83,2.35-.83s1.83.28,2.35.83c.53.55.79,1.32.79,2.3v5.01c0,.98-.26,1.74-.79,2.3-.53.56-1.31.83-2.35.83ZM141.85,148.28c.57,0,.97-.15,1.22-.44.25-.3.38-.7.38-1.22v-5.01c0-.52-.12-.93-.38-1.22-.25-.29-.66-.44-1.22-.44s-.97.15-1.22.44c-.25.29-.38.7-.38,1.22v5.01c0,.52.12.92.38,1.22.25.3.66.44,1.22.44Z"/>
      </g>
      <g>
        <rect class="st0" x="212.66" y="129.95" width="28.32" height="28.32" rx="2" ry="2"/>
        <path class="st5" d="M226.82,149.75c-1.05,0-1.84-.28-2.36-.84-.52-.56-.78-1.33-.78-2.29v-5.01c0-.98.26-1.74.8-2.3.53-.56,1.31-.83,2.35-.83s1.83.28,2.35.83c.53.55.79,1.32.79,2.3v5.01c0,.98-.26,1.74-.79,2.3-.53.56-1.31.83-2.35.83ZM226.82,148.28c.57,0,.97-.15,1.22-.44.25-.3.38-.7.38-1.22v-5.01c0-.52-.12-.93-.38-1.22-.25-.29-.66-.44-1.22-.44s-.97.15-1.22.44c-.25.29-.38.7-.38,1.22v5.01c0,.52.12.92.38,1.22.25.3.66.44,1.22.44Z"/>
      </g>
      <g>
        <rect class="st0" x="325.94" y="129.95" width="28.32" height="28.32" rx="2" ry="2"/>
        <path class="st5" d="M340.1,149.75c-1.05,0-1.84-.28-2.36-.84-.52-.56-.78-1.33-.78-2.29v-5.01c0-.98.26-1.74.8-2.3.53-.56,1.31-.83,2.35-.83s1.83.28,2.35.83c.53.55.79,1.32.79,2.3v5.01c0,.98-.26,1.74-.79,2.3-.53.56-1.31.83-2.35.83ZM340.1,148.28c.57,0,.97-.15,1.22-.44.25-.3.38-.7.38-1.22v-5.01c0-.52-.12-.93-.38-1.22-.25-.29-.66-.44-1.22-.44s-.97.15-1.22.44c-.25.29-.38.7-.38,1.22v5.01c0,.52.12.92.38,1.22.25.3.66.44,1.22.44Z"/>
      </g>
      <g>
        <rect class="st0" x="410.91" y="129.95" width="28.32" height="28.32" rx="2" ry="2"/>
        <path class="st5" d="M425.07,149.75c-1.05,0-1.84-.28-2.36-.84-.52-.56-.78-1.33-.78-2.29v-5.01c0-.98.26-1.74.8-2.3.53-.56,1.31-.83,2.35-.83s1.83.28,2.35.83c.53.55.79,1.32.79,2.3v5.01c0,.98-.26,1.74-.79,2.3-.53.56-1.31.83-2.35.83ZM425.07,148.28c.57,0,.97-.15,1.22-.44.25-.3.38-.7.38-1.22v-5.01c0-.52-.12-.93-.38-1.22-.25-.29-.66-.44-1.22-.44s-.97.15-1.22.44c-.25.29-.38.7-.38,1.22v5.01c0,.52.12.92.38,1.22.25.3.66.44,1.22.44Z"/>
      </g>
      <path class="st4" d="M271.3,129.95c-1.1,0-2,.9-2,2v24.32c0,1.1.9,2,2,2h24.32c1.1,0,2-.9,2-2v-24.32c0-1.1-.9-2-2-2h-11.02l-1.84-.99-2.07.99h-9.41Z"/>
      <g>
        <path class="st2" d="M295.62,129.95c1.1,0,2,.9,2,2v24.32c0,1.1-.9,2-2,2h-24.32c-1.1,0-2-.9-2-2v-24.32c0-1.1.9-2,2-2"/>
        <path class="st5" d="M284.63,138.6v11.02h-1.55v-9.38l-1.89,1v-1.64l1.89-1h1.55Z"/>
      </g>
      <path class="st4" d="M299.62,129.95c-1.1,0-2,.9-2,2v24.32c0,1.1.9,2,2,2h24.32c1.1,0,2-.9,2-2v-24.32c0-1.1-.9-2-2-2h-11.02l-1.84-.99-2.07.99h-9.41Z"/>
      <g>
        <path class="st2" d="M323.94,129.95c1.1,0,2,.9,2,2v24.32c0,1.1-.9,2-2,2h-24.32c-1.1,0-2-.9-2-2v-24.32c0-1.1.9-2,2-2"/>
        <path class="st5" d="M312.95,138.6v11.02h-1.55v-9.38l-1.89,1v-1.64l1.89-1h1.55Z"/>
      </g>
      <path class="st4" d="M441.23,129.95c-1.1,0-2,.9-2,2v24.32c0,1.1.9,2,2,2h24.32c1.1,0,2-.9,2-2v-24.32c0-1.1-.9-2-2-2h-11.02l-1.25-.99-1.43.99h-10.62Z"/>
      <g>
        <path class="st2" d="M465.55,129.95c1.1,0,2,.9,2,2v24.32c0,1.1-.9,2-2,2h-24.32c-1.1,0-2-.9-2-2v-24.32c0-1.1.9-2,2-2"/>
        <path class="st5" d="M454.56,138.6v11.02h-1.55v-9.38l-1.89,1v-1.64l1.89-1h1.55Z"/>
      </g>
      <path class="st4" d="M384.58,129.95c-1.1,0-2,.9-2,2v24.32c0,1.1.9,2,2,2h24.32c1.1,0,2-.9,2-2v-24.32c0-1.1-.9-2-2-2h-11.02l-1.25-.99-1.15.99h-10.91Z"/>
      <g>
        <path class="st2" d="M408.91,129.95c1.1,0,2,.9,2,2v24.32c0,1.1-.9,2-2,2h-24.32c-1.1,0-2-.9-2-2v-24.32c0-1.1.9-2,2-2"/>
        <path class="st5" d="M397.91,138.6v11.02h-1.55v-9.38l-1.89,1v-1.64l1.89-1h1.55Z"/>
      </g>
      <g>
        <rect class="st0" x="240.98" y="129.95" width="28.32" height="28.32" rx="2" ry="2"/>
        <path class="st5" d="M255.14,149.75c-1.05,0-1.84-.28-2.36-.84-.52-.56-.78-1.33-.78-2.29v-5.01c0-.98.26-1.74.8-2.3.53-.56,1.31-.83,2.35-.83s1.83.28,2.35.83c.53.55.79,1.32.79,2.3v5.01c0,.98-.26,1.74-.79,2.3-.53.56-1.31.83-2.35.83ZM255.14,148.28c.57,0,.97-.15,1.22-.44.25-.3.38-.7.38-1.22v-5.01c0-.52-.12-.93-.38-1.22-.25-.29-.66-.44-1.22-.44s-.97.15-1.22.44c-.25.29-.38.7-.38,1.22v5.01c0,.52.12.92.38,1.22.25.3.66.44,1.22.44Z"/>
      </g>
      <g>
        <rect class="st0" x="354.26" y="129.95" width="28.32" height="28.32" rx="2" ry="2"/>
        <path class="st5" d="M368.42,149.75c-1.05,0-1.84-.28-2.36-.84-.52-.56-.78-1.33-.78-2.29v-5.01c0-.98.26-1.74.8-2.3.53-.56,1.31-.83,2.35-.83s1.83.28,2.35.83c.53.55.79,1.32.79,2.3v5.01c0,.98-.26,1.74-.79,2.3-.53.56-1.31.83-2.35.83ZM368.42,148.28c.57,0,.97-.15,1.22-.44.25-.3.38-.7.38-1.22v-5.01c0-.52-.12-.93-.38-1.22-.25-.29-.66-.44-1.22-.44s-.97.15-1.22.44c-.25.29-.38.7-.38,1.22v5.01c0,.52.12.92.38,1.22.25.3.66.44,1.22.44Z"/>
      </g>
    </g>
    <g>
      <path class="st5" d="M171.3,172.41v7.19h-1.01v-6.12l-1.24.65v-1.07l1.24-.65h1.01Z"/>
      <path class="st5" d="M141.85,179.68c-.69,0-1.2-.18-1.54-.55-.34-.37-.51-.86-.51-1.49v-3.27c0-.64.17-1.14.52-1.5.35-.36.86-.54,1.53-.54s1.19.18,1.54.54c.34.36.52.86.52,1.5v3.27c0,.64-.17,1.14-.52,1.5-.34.36-.86.54-1.54.54ZM141.85,178.72c.37,0,.64-.1.8-.29.16-.19.24-.46.24-.79v-3.27c0-.34-.08-.6-.24-.8-.16-.19-.43-.29-.8-.29s-.64.1-.8.29c-.16.19-.24.46-.24.8v3.27c0,.34.08.6.24.79.16.19.43.29.8.29Z"/>
      <path class="st5" d="M196.51,179.6v-.88l2.51-3.35c.15-.19.26-.39.34-.59s.12-.4.12-.58h0c0-.3-.08-.52-.25-.68-.17-.16-.41-.24-.72-.24-.29,0-.53.09-.71.26-.18.17-.3.42-.34.74h0s-1.05,0-1.05,0h0c.09-.63.32-1.11.68-1.45.36-.34.83-.51,1.4-.51.65,0,1.15.16,1.5.49s.53.79.53,1.39h0c0,.26-.05.53-.16.81s-.25.55-.44.8l-2.09,2.84h2.73v.96h-4.07Z"/>
      <path class="st5" d="M226.86,179.67c-.41,0-.76-.07-1.07-.22-.31-.15-.55-.36-.74-.64-.18-.28-.3-.61-.36-1.01h1.03c.05.31.17.54.37.68.2.14.45.22.76.22.33,0,.59-.09.78-.27.18-.18.28-.43.28-.75v-.22c0-.36-.09-.64-.26-.84s-.42-.3-.74-.3h-.51v-.96h.51c.28,0,.5-.08.66-.25s.23-.41.23-.71v-.22c0-.28-.08-.5-.25-.66-.16-.16-.4-.23-.7-.23-.25,0-.47.07-.65.22-.18.14-.3.37-.36.68h-1.03c.1-.59.33-1.05.69-1.38.36-.33.81-.49,1.35-.49.62,0,1.1.16,1.44.49.34.33.51.79.51,1.38v.12c0,.36-.1.67-.29.94s-.47.46-.83.59c.39.08.7.27.91.58.22.3.32.69.32,1.15v.12c0,.63-.18,1.12-.54,1.47-.36.35-.87.52-1.53.52Z"/>
      <path class="st5" d="M252.82,178.49v-.88l2.42-5.22h1.04l-2.36,5.16h3.53v.94h-4.64ZM255.93,179.6v-4.24h.99v4.24h-.99Z"/>
      <path class="st5" d="M283.45,179.67c-.55,0-1-.16-1.35-.47-.35-.32-.57-.76-.66-1.34h0s1.01,0,1.01,0h0c.04.27.14.48.32.62.18.15.4.22.68.22.32,0,.57-.11.75-.32.18-.22.27-.52.27-.91v-.61c0-.39-.09-.7-.27-.91-.18-.21-.43-.32-.75-.32-.18,0-.34.05-.51.15-.16.1-.3.24-.43.42h-.92v-3.8h3.67v.96h-2.66v1.62c.13-.1.27-.18.42-.24.16-.06.31-.08.48-.08.63,0,1.11.19,1.46.58.34.38.52.93.52,1.63v.61c0,.7-.18,1.25-.53,1.63-.35.38-.85.58-1.5.58Z"/>
      <path class="st5" d="M311.78,179.67c-.64,0-1.13-.19-1.48-.57s-.53-.92-.53-1.61h0c0-.32.04-.65.13-.99.09-.35.21-.69.37-1.01l1.57-3.1h1.09l-1.84,3.59v-.18c.18-.33.48-.49.92-.49.57,0,1,.19,1.31.56.31.38.47.9.47,1.59h0c0,.7-.18,1.24-.53,1.63-.35.38-.85.58-1.49.58ZM311.78,178.7c.32,0,.57-.1.74-.3.17-.2.26-.48.26-.85h0c0-.41-.09-.72-.27-.94s-.44-.33-.78-.33c-.3,0-.53.11-.7.33-.17.22-.25.53-.25.94h0c0,.37.09.65.26.85.17.2.42.3.74.3Z"/>
      <path class="st5" d="M342.06,172.39v.9l-1.86,6.31h-1.08l1.86-6.25h-1.83v1.04h-1.01v-2h3.92Z"/>
      <path class="st5" d="M368.42,179.67c-.44,0-.82-.08-1.15-.25-.33-.17-.58-.4-.76-.7-.18-.3-.27-.65-.27-1.06v-.12c0-.36.09-.7.27-1.02.18-.32.42-.56.72-.72-.25-.14-.45-.34-.61-.6-.15-.26-.23-.54-.23-.83v-.17c0-.57.19-1.03.56-1.38.37-.35.87-.52,1.48-.52s1.11.17,1.48.52c.37.35.56.8.56,1.38v.17c0,.3-.08.58-.24.84-.16.26-.36.46-.62.6.3.16.55.4.73.72.18.32.27.66.27,1.02v.12c0,.4-.09.76-.27,1.06-.18.3-.44.53-.76.7-.33.17-.71.25-1.15.25ZM368.42,178.7c.35,0,.64-.1.86-.3.22-.2.32-.47.32-.8v-.07c0-.33-.11-.6-.32-.81-.22-.2-.5-.3-.86-.3s-.64.1-.86.3-.32.47-.32.81v.07c0,.33.11.6.32.8.22.2.5.3.86.3ZM368.42,175.44c.31,0,.56-.1.74-.29.19-.19.28-.45.28-.77v-.07c0-.31-.09-.55-.28-.74-.19-.19-.44-.28-.74-.28s-.56.09-.74.28c-.19.19-.28.44-.28.75v.07c0,.32.09.57.28.77.19.19.44.29.74.29Z"/>
      <path class="st5" d="M395.62,179.6l1.81-3.58v.18c-.09.16-.22.27-.39.34-.17.07-.36.1-.58.1-.52,0-.94-.19-1.25-.58-.32-.39-.48-.9-.48-1.53h0c0-.71.18-1.25.53-1.63.35-.38.85-.58,1.48-.58s1.13.19,1.48.58c.35.39.53.94.53,1.65h0c0,.3-.04.62-.13.96s-.21.68-.38,1l-1.54,3.09h-1.09ZM396.75,175.71c.32,0,.56-.11.74-.32.17-.21.26-.52.26-.91h0c0-.38-.09-.68-.26-.89-.17-.21-.42-.31-.74-.31s-.57.1-.74.31c-.17.21-.26.5-.26.89h0c0,.4.09.7.26.91.17.21.42.32.74.32Z"/>
      <g>
        <path class="st5" d="M426.96,179.67c-.69,0-1.2-.18-1.54-.55-.34-.37-.51-.87-.51-1.49v-3.28c0-.64.17-1.14.52-1.5s.86-.55,1.54-.55,1.19.18,1.54.54.52.86.52,1.5v3.28c0,.64-.17,1.14-.52,1.5s-.86.55-1.54.55ZM426.96,178.71c.37,0,.64-.1.8-.29.16-.19.25-.46.25-.8v-3.28c0-.34-.08-.61-.25-.8-.16-.19-.43-.29-.8-.29s-.64.1-.8.29c-.16.19-.25.46-.25.8v3.28c0,.34.08.6.25.8.16.19.43.29.8.29Z"/>
        <path class="st5" d="M423.37,172.41v7.19h-1.01v-6.12l-1.24.65v-1.07l1.24-.65h1.01Z"/>
      </g>
      <g>
        <path class="st5" d="M452.73,172.41v7.19h-1.01v-6.12l-1.24.65v-1.07l1.24-.65h1.01Z"/>
        <path class="st5" d="M456.29,172.41v7.19h-1.01v-6.12l-1.24.65v-1.07l1.24-.65h1.01Z"/>
      </g>
    </g>
    <path class="st4" d="M132.25,209.36l1.5-.53c.14-.05.29-.13.43-.24.15-.11.28-.23.41-.36l6.19-6.26-3.16-6.22c-.06-.12-.14-.23-.23-.34-.09-.11-.2-.19-.33-.23l-1.47-.55.21-.93h5.91l-.22.93-1.42.76,1.92,3.84.47,1.34h.12l4.81-5.12-1.37-.83.22-.93h5.43l-.21.93-1.39.55c-.1.04-.22.11-.37.22s-.29.23-.41.35l-6,6.12,3.22,6.36c.08.14.16.27.25.38.09.11.19.19.3.22l1.47.53-.21.95h-5.92l.21-.95,1.44-.75-2.03-4.11-.47-1.19h-.13l-4.97,5.25,1.37.79-.21.95h-5.59l.22-.95Z"/>
    <line class="st3" x1="152.62" y1="202.01" x2="271.41" y2="202.01"/>
    <polyline class="st3" points="268.04 198.07 271.99 202.01 268.04 205.95"/>
    <g>
      <path class="st5" d="M284.71,198.42v7.19h-1.01v-6.12l-1.24.65v-1.07l1.24-.65h1.01Z"/>
      <path class="st5" d="M309.93,205.61v-.88l2.51-3.35c.15-.19.26-.39.34-.59s.12-.4.12-.58h0c0-.3-.08-.52-.25-.68-.17-.16-.41-.24-.72-.24-.29,0-.53.09-.71.26-.18.17-.3.42-.34.74h0s-1.05,0-1.05,0h0c.09-.63.32-1.11.68-1.45.36-.34.83-.51,1.4-.51.65,0,1.15.16,1.5.49s.53.79.53,1.39h0c0,.26-.05.53-.16.81s-.25.55-.44.8l-2.09,2.84h2.73v.96h-4.07Z"/>
      <path class="st5" d="M340.23,205.69c-.55,0-1-.16-1.35-.47-.35-.32-.57-.76-.66-1.34h0s1.01,0,1.01,0h0c.04.27.14.48.32.62.18.15.4.22.68.22.32,0,.57-.11.75-.32.18-.22.27-.52.27-.91v-.61c0-.39-.09-.7-.27-.91-.18-.21-.43-.32-.75-.32-.18,0-.34.05-.51.15-.16.1-.3.24-.43.42h-.92v-3.8h3.67v.96h-2.66v1.62c.13-.1.27-.18.42-.24.16-.06.31-.08.48-.08.63,0,1.11.19,1.46.58.34.38.52.93.52,1.63v.61c0,.7-.18,1.25-.53,1.63-.35.38-.85.58-1.5.58Z"/>
    </g>
    <path class="st2" d="M198.5,126.29v1.66c0,1.1-.9,2-2,2h-10.16"/>
    <path class="st2" d="M169.58,125.48v2.47c0,1.1-.9,2-2,2h-9.56"/>
    <g>
      <path class="st4" d="M195.77,215.16c-.27,0-.51-.02-.73-.07-.22-.04-.4-.09-.56-.15-.15-.05-.27-.1-.35-.13l.19-.86h.16c.09.06.21.14.39.24.17.1.37.19.59.27.22.08.43.12.64.12.35,0,.64-.06.86-.19.22-.13.39-.31.49-.53.11-.22.16-.47.16-.74,0-.17-.04-.32-.11-.46-.07-.13-.19-.24-.35-.32-.16-.08-.39-.12-.67-.12h-.55l.14-.59h.44c.45,0,.79-.12,1.04-.36.25-.24.37-.58.37-1.03,0-.19-.06-.35-.18-.47-.12-.12-.32-.18-.61-.18-.21,0-.43.04-.66.11-.23.07-.44.15-.63.24s-.34.17-.45.23h-.16l.18-.83c.09-.03.21-.07.36-.13.15-.05.33-.1.53-.14.21-.04.45-.06.72-.06.24,0,.47.03.68.08.21.05.4.13.56.23s.29.22.38.37c.09.14.14.31.14.5,0,.12-.02.27-.07.42-.05.16-.13.32-.25.48-.12.16-.28.31-.49.44-.21.13-.46.24-.78.32v.06c.17.02.37.08.56.16.2.08.36.2.49.36.13.16.2.38.2.66,0,.32-.08.61-.25.87-.17.26-.38.47-.65.65-.27.18-.56.31-.88.41-.32.09-.63.14-.94.14Z"/>
      <path class="st4" d="M202.38,215.07l1.16-5.21c.01-.06,0-.1-.02-.12-.02-.02-.05-.04-.09-.06l-.47-.24v-.33h1.52l-.46,2.08-.09.4-.59,2.66v.81h-.96ZM205.78,215.13c-.16,0-.29-.03-.39-.1-.1-.07-.16-.15-.21-.24-.04-.09-.06-.18-.06-.26,0-.07,0-.15.02-.25.02-.1.04-.21.06-.32l.35-1.49c.03-.11.05-.21.06-.31.01-.1.02-.18.02-.25,0-.19-.05-.33-.16-.43-.1-.1-.28-.15-.54-.15-.17,0-.36.03-.56.1-.2.07-.38.18-.53.35l.06-.31c.21-.22.4-.39.57-.5.17-.11.34-.18.5-.21.16-.03.31-.05.45-.05.2,0,.38.04.53.11.16.07.28.18.37.33s.14.33.14.55c0,.13-.02.25-.04.38-.03.13-.06.25-.09.37l-.3,1.3c-.03.11-.04.21-.06.3-.01.09-.02.15-.02.18,0,.08.03.16.08.23s.16.1.32.1c.06,0,.11,0,.18-.02s.15-.04.24-.08h.15v.38c-.14.08-.29.14-.43.18-.14.04-.27.06-.39.07-.12.01-.23.02-.32.02Z"/>
      <path class="st4" d="M210.5,212.53l-.09.4c-.41,0-.77.02-1.09.06s-.57.13-.75.27c-.18.14-.27.36-.27.67,0,.23.07.4.21.49s.29.14.45.14c.17,0,.37-.04.58-.11.21-.07.39-.19.54-.34l.41-1.85s.02-.09.02-.14c0-.05,0-.11.01-.16,0-.05,0-.1,0-.14,0-.21-.08-.36-.22-.44-.15-.09-.33-.13-.53-.13-.17,0-.35.04-.53.11s-.35.16-.51.26-.29.17-.39.23h-.18v-.77l.4-.12c.2-.06.41-.11.62-.16s.46-.07.73-.07c.17,0,.33.02.5.05.17.03.32.09.46.16.14.08.25.18.33.31.08.13.12.29.12.48,0,.09,0,.2-.02.33-.02.13-.03.24-.05.32l-.24,1.06c-.02.09-.04.19-.06.3s-.04.21-.06.31c-.02.09-.02.16-.02.19,0,.08.02.16.07.23.05.07.15.1.32.1.05,0,.12,0,.18-.02.07-.01.15-.04.25-.08h.15v.38c-.22.12-.43.2-.63.23-.2.03-.37.04-.5.04-.16,0-.29-.04-.38-.11-.09-.07-.15-.17-.19-.27-.03-.11-.05-.21-.05-.31h-.06c-.19.21-.37.37-.55.47-.18.1-.35.17-.52.2s-.31.05-.45.05c-.24,0-.43-.05-.59-.15-.16-.1-.28-.23-.36-.4-.08-.16-.12-.34-.12-.52,0-.31.07-.56.22-.77.15-.21.33-.37.56-.5s.47-.21.73-.27c.26-.05.49-.08.7-.08.06,0,.12,0,.17,0,.06,0,.12.01.19.02.07,0,.14.01.22.02.08,0,.17.01.27.02Z"/>
      <path class="st4" d="M213.81,215.17c-.26,0-.51-.04-.75-.11-.24-.07-.47-.14-.68-.21v-.97h.53l.11.35c.02.05.04.09.06.13.03.03.05.06.08.07.1.06.22.12.35.17.13.05.27.07.42.07.18,0,.36-.02.53-.06.17-.04.32-.12.43-.22.11-.11.17-.26.17-.45,0-.13-.05-.23-.14-.31-.1-.08-.24-.16-.44-.22-.13-.05-.27-.09-.4-.14-.13-.05-.27-.09-.4-.14-.27-.09-.48-.23-.62-.41s-.21-.38-.21-.59.05-.41.16-.58c.11-.17.26-.32.45-.44.19-.12.4-.21.64-.28s.49-.1.76-.1c.23,0,.43.02.61.07.17.05.36.1.56.16v.98h-.52l-.11-.37s-.04-.08-.07-.11c-.04-.03-.08-.06-.13-.09-.08-.04-.17-.07-.27-.09-.1-.02-.2-.03-.3-.03-.3,0-.54.05-.72.16s-.27.28-.27.51c0,.1.03.18.08.25.05.07.14.13.25.2.11.06.25.12.42.18.17.06.37.14.6.22.3.11.52.24.67.38.15.14.22.32.22.54,0,.24-.06.45-.18.63-.12.19-.28.34-.49.47-.2.13-.42.23-.67.29-.24.07-.48.1-.73.1Z"/>
      <path class="st4" d="M216.74,215.07l1.16-5.21c.01-.06,0-.1-.02-.12-.02-.02-.05-.04-.09-.06l-.47-.24v-.33h1.52l-.46,2.08-.09.4-.59,2.66v.81h-.96ZM220.15,215.13c-.16,0-.29-.03-.39-.1-.1-.07-.16-.15-.21-.24-.04-.09-.06-.18-.06-.26,0-.07,0-.15.02-.25.02-.1.04-.21.06-.32l.35-1.49c.03-.11.05-.21.06-.31.01-.1.02-.18.02-.25,0-.19-.05-.33-.16-.43-.1-.1-.28-.15-.54-.15-.17,0-.36.03-.56.1-.2.07-.38.18-.53.35l.06-.31c.21-.22.4-.39.57-.5.17-.11.34-.18.5-.21.16-.03.31-.05.45-.05.2,0,.38.04.53.11.16.07.28.18.37.33s.14.33.14.55c0,.13-.02.25-.04.38-.03.13-.06.25-.09.37l-.3,1.3c-.03.11-.04.21-.06.3-.01.09-.02.15-.02.18,0,.08.03.16.08.23s.16.1.32.1c.06,0,.11,0,.18-.02s.15-.04.24-.08h.15v.38c-.14.08-.29.14-.43.18-.14.04-.27.06-.39.07-.12.01-.23.02-.32.02Z"/>
      <path class="st4" d="M223.56,215.16c-.13,0-.28-.03-.46-.08-.18-.05-.36-.14-.53-.27-.18-.13-.32-.31-.44-.53-.12-.23-.18-.52-.18-.87,0-.32.06-.64.17-.96.12-.32.28-.6.49-.86.21-.26.47-.47.76-.62.3-.16.63-.23.99-.23.2,0,.4.03.6.09.2.06.37.17.5.31.14.14.2.33.2.57,0,.25-.07.46-.2.64-.13.17-.31.31-.53.42s-.46.18-.73.23c-.26.05-.53.07-.78.07-.08,0-.17,0-.26,0-.09,0-.17-.01-.25-.02-.08,0-.14-.02-.19-.02l.02-.41c.24.02.41.04.5.04.09,0,.15,0,.2,0,.42,0,.75-.08,1-.23s.38-.4.38-.75c0-.16-.06-.29-.17-.37-.11-.09-.24-.13-.39-.13-.23,0-.44.07-.63.2-.19.14-.35.31-.48.52s-.23.44-.3.67c-.07.24-.11.45-.11.65,0,.25.04.48.12.68s.21.36.38.48c.17.12.4.18.69.18.2,0,.4-.04.6-.13.2-.09.45-.22.75-.41h.17v.53c-.22.12-.44.23-.64.32s-.4.16-.61.21c-.2.05-.42.07-.66.07Z"/>
      <path class="st4" d="M227.67,215.17c-.26,0-.51-.04-.75-.11-.24-.07-.47-.14-.68-.21v-.97h.53l.11.35c.02.05.04.09.06.13.03.03.05.06.08.07.1.06.22.12.35.17.13.05.27.07.42.07.18,0,.36-.02.53-.06.17-.04.32-.12.43-.22.11-.11.17-.26.17-.45,0-.13-.05-.23-.14-.31-.1-.08-.24-.16-.44-.22-.13-.05-.27-.09-.4-.14-.13-.05-.27-.09-.4-.14-.27-.09-.48-.23-.62-.41s-.21-.38-.21-.59.05-.41.16-.58c.11-.17.26-.32.45-.44.19-.12.4-.21.64-.28s.49-.1.76-.1c.23,0,.43.02.61.07.17.05.36.1.56.16v.98h-.52l-.11-.37s-.04-.08-.07-.11c-.04-.03-.08-.06-.13-.09-.08-.04-.17-.07-.27-.09-.1-.02-.2-.03-.3-.03-.3,0-.54.05-.72.16s-.27.28-.27.51c0,.1.03.18.08.25.05.07.14.13.25.2.11.06.25.12.42.18.17.06.37.14.6.22.3.11.52.24.67.38.15.14.22.32.22.54,0,.24-.06.45-.18.63-.12.19-.28.34-.49.47-.2.13-.42.23-.67.29-.24.07-.48.1-.73.1Z"/>
    </g>
    <path class="st5" d="M136.33,243.89l.21-.95,1.94-.64c.13-.04.25-.11.35-.18.1-.08.16-.2.2-.36l.88-3.95-2.96-8.45c-.03-.1-.08-.21-.13-.32s-.15-.19-.27-.25l-1.33-.57.2-.93h5.99l-.2.93-1.87.74,2,5.68.39,1.4h.23l5.45-6.97-1.82-.84.21-.93h5.5l-.21.93-1.29.62c-.12.06-.24.14-.37.25-.13.1-.24.21-.33.32l-6.74,8.35-.88,4.01c-.03.13-.03.25,0,.34.03.09.12.16.26.21l1.97.64-.22.95h-7.18Z"/>
    <path class="st5" d="M223.11,50.93l.21-.95,1.94-.64c.13-.04.25-.11.35-.18.1-.08.16-.2.2-.36l.88-3.95-2.96-8.45c-.03-.1-.08-.21-.13-.32s-.15-.19-.27-.25l-1.33-.57.2-.93h5.99l-.2.93-1.87.74,2,5.68.39,1.4h.23l5.45-6.97-1.82-.84.21-.93h5.5l-.21.93-1.29.62c-.12.06-.24.14-.37.25-.13.1-.24.21-.33.32l-6.74,8.35-.88,4.01c-.03.13-.03.25,0,.34.03.09.12.16.26.21l1.97.64-.22.95h-7.18Z"/>
    <line class="st2" x1="152.62" y1="235.58" x2="271.41" y2="235.58"/>
    <polyline class="st2" points="268.04 231.64 271.99 235.58 268.04 239.52"/>
    <g>
      <path class="st5" d="M284.71,231.99v7.19h-1.01v-6.12l-1.24.65v-1.07l1.24-.65h1.01Z"/>
      <path class="st5" d="M311.91,239.18c-.64,0-1.13-.19-1.48-.57s-.53-.92-.53-1.61h0c0-.32.04-.65.13-.99.09-.35.21-.69.37-1.01l1.57-3.1h1.09l-1.84,3.59v-.18c.18-.33.48-.49.92-.49.57,0,1,.19,1.31.56.31.38.47.9.47,1.59h0c0,.7-.18,1.24-.53,1.63-.35.38-.85.58-1.49.58ZM311.91,238.21c.32,0,.57-.1.74-.3.17-.2.26-.48.26-.85h0c0-.41-.09-.72-.27-.94s-.44-.33-.78-.33c-.3,0-.53.11-.7.33-.17.22-.25.53-.25.94h0c0,.37.09.65.26.85.17.2.42.3.74.3Z"/>
      <g>
        <path class="st5" d="M338.92,232.02v7.19h-1.01v-6.12l-1.24.65v-1.07l1.24-.65h1.01Z"/>
        <path class="st5" d="M342.48,232.02v7.19h-1.01v-6.12l-1.24.65v-1.07l1.24-.65h1.01Z"/>
      </g>
    </g>
    <g>
      <path class="st5" d="M195.77,248.73c-.27,0-.51-.02-.73-.07-.22-.04-.4-.09-.56-.15-.15-.05-.27-.1-.35-.13l.19-.86h.16c.09.06.21.14.39.24.17.1.37.19.59.27.22.08.43.12.64.12.35,0,.64-.06.86-.19.22-.13.39-.31.49-.53.11-.22.16-.47.16-.74,0-.17-.04-.32-.11-.46-.07-.13-.19-.24-.35-.32-.16-.08-.39-.12-.67-.12h-.55l.14-.59h.44c.45,0,.79-.12,1.04-.36.25-.24.37-.58.37-1.03,0-.19-.06-.35-.18-.47-.12-.12-.32-.18-.61-.18-.21,0-.43.04-.66.11-.23.07-.44.15-.63.24s-.34.17-.45.23h-.16l.18-.83c.09-.03.21-.07.36-.13.15-.05.33-.1.53-.14.21-.04.45-.06.72-.06.24,0,.47.03.68.08.21.05.4.13.56.23s.29.22.38.37c.09.14.14.31.14.5,0,.12-.02.27-.07.42-.05.16-.13.32-.25.48-.12.16-.28.31-.49.44-.21.13-.46.24-.78.32v.06c.17.02.37.08.56.16.2.08.36.2.49.36.13.16.2.38.2.66,0,.32-.08.61-.25.87-.17.26-.38.47-.65.65-.27.18-.56.31-.88.41-.32.09-.63.14-.94.14Z"/>
      <path class="st5" d="M202.38,248.64l1.16-5.21c.01-.06,0-.1-.02-.12-.02-.02-.05-.04-.09-.06l-.47-.24v-.33h1.52l-.46,2.08-.09.4-.59,2.66v.81h-.96ZM205.78,248.7c-.16,0-.29-.03-.39-.1-.1-.07-.16-.15-.21-.24-.04-.09-.06-.18-.06-.26,0-.07,0-.15.02-.25.02-.1.04-.21.06-.32l.35-1.49c.03-.11.05-.21.06-.31.01-.1.02-.18.02-.25,0-.19-.05-.33-.16-.43-.1-.1-.28-.15-.54-.15-.17,0-.36.03-.56.1-.2.07-.38.18-.53.35l.06-.31c.21-.22.4-.39.57-.5.17-.11.34-.18.5-.21.16-.03.31-.05.45-.05.2,0,.38.04.53.11.16.07.28.18.37.33s.14.33.14.55c0,.13-.02.25-.04.38-.03.13-.06.25-.09.37l-.3,1.3c-.03.11-.04.21-.06.3-.01.09-.02.15-.02.18,0,.08.03.16.08.23s.16.1.32.1c.06,0,.11,0,.18-.02s.15-.04.24-.08h.15v.38c-.14.08-.29.14-.43.18-.14.04-.27.06-.39.07-.12.01-.23.02-.32.02Z"/>
      <path class="st5" d="M210.5,246.1l-.09.4c-.41,0-.77.02-1.09.06s-.57.13-.75.27c-.18.14-.27.36-.27.67,0,.23.07.4.21.49s.29.14.45.14c.17,0,.37-.04.58-.11.21-.07.39-.19.54-.34l.41-1.85s.02-.09.02-.14c0-.05,0-.11.01-.16,0-.05,0-.1,0-.14,0-.21-.08-.36-.22-.44-.15-.09-.33-.13-.53-.13-.17,0-.35.04-.53.11s-.35.16-.51.26-.29.17-.39.23h-.18v-.77l.4-.12c.2-.06.41-.11.62-.16s.46-.07.73-.07c.17,0,.33.02.5.05.17.03.32.09.46.16.14.08.25.18.33.31.08.13.12.29.12.48,0,.09,0,.2-.02.33-.02.13-.03.24-.05.32l-.24,1.06c-.02.09-.04.19-.06.3s-.04.21-.06.31c-.02.09-.02.16-.02.19,0,.08.02.16.07.23.05.07.15.1.32.1.05,0,.12,0,.18-.02.07-.01.15-.04.25-.08h.15v.38c-.22.12-.43.2-.63.23-.2.03-.37.04-.5.04-.16,0-.29-.04-.38-.11-.09-.07-.15-.17-.19-.27-.03-.11-.05-.21-.05-.31h-.06c-.19.21-.37.37-.55.47-.18.1-.35.17-.52.2s-.31.05-.45.05c-.24,0-.43-.05-.59-.15-.16-.1-.28-.23-.36-.4-.08-.16-.12-.34-.12-.52,0-.31.07-.56.22-.77.15-.21.33-.37.56-.5s.47-.21.73-.27c.26-.05.49-.08.7-.08.06,0,.12,0,.17,0,.06,0,.12.01.19.02.07,0,.14.01.22.02.08,0,.17.01.27.02Z"/>
      <path class="st5" d="M213.81,248.74c-.26,0-.51-.04-.75-.11-.24-.07-.47-.14-.68-.21v-.97h.53l.11.35c.02.05.04.09.06.13.03.03.05.06.08.07.1.06.22.12.35.17.13.05.27.07.42.07.18,0,.36-.02.53-.06.17-.04.32-.12.43-.22.11-.11.17-.26.17-.45,0-.13-.05-.23-.14-.31-.1-.08-.24-.16-.44-.22-.13-.05-.27-.09-.4-.14-.13-.05-.27-.09-.4-.14-.27-.09-.48-.23-.62-.41s-.21-.38-.21-.59.05-.41.16-.58c.11-.17.26-.32.45-.44.19-.12.4-.21.64-.28s.49-.1.76-.1c.23,0,.43.02.61.07.17.05.36.1.56.16v.98h-.52l-.11-.37s-.04-.08-.07-.11c-.04-.03-.08-.06-.13-.09-.08-.04-.17-.07-.27-.09-.1-.02-.2-.03-.3-.03-.3,0-.54.05-.72.16s-.27.28-.27.51c0,.1.03.18.08.25.05.07.14.13.25.2.11.06.25.12.42.18.17.06.37.14.6.22.3.11.52.24.67.38.15.14.22.32.22.54,0,.24-.06.45-.18.63-.12.19-.28.34-.49.47-.2.13-.42.23-.67.29-.24.07-.48.1-.73.1Z"/>
      <path class="st5" d="M216.74,248.64l1.16-5.21c.01-.06,0-.1-.02-.12-.02-.02-.05-.04-.09-.06l-.47-.24v-.33h1.52l-.46,2.08-.09.4-.59,2.66v.81h-.96ZM220.15,248.7c-.16,0-.29-.03-.39-.1-.1-.07-.16-.15-.21-.24-.04-.09-.06-.18-.06-.26,0-.07,0-.15.02-.25.02-.1.04-.21.06-.32l.35-1.49c.03-.11.05-.21.06-.31.01-.1.02-.18.02-.25,0-.19-.05-.33-.16-.43-.1-.1-.28-.15-.54-.15-.17,0-.36.03-.56.1-.2.07-.38.18-.53.35l.06-.31c.21-.22.4-.39.57-.5.17-.11.34-.18.5-.21.16-.03.31-.05.45-.05.2,0,.38.04.53.11.16.07.28.18.37.33s.14.33.14.55c0,.13-.02.25-.04.38-.03.13-.06.25-.09.37l-.3,1.3c-.03.11-.04.21-.06.3-.01.09-.02.15-.02.18,0,.08.03.16.08.23s.16.1.32.1c.06,0,.11,0,.18-.02s.15-.04.24-.08h.15v.38c-.14.08-.29.14-.43.18-.14.04-.27.06-.39.07-.12.01-.23.02-.32.02Z"/>
      <path class="st5" d="M223.56,248.73c-.13,0-.28-.03-.46-.08-.18-.05-.36-.14-.53-.27-.18-.13-.32-.31-.44-.53-.12-.23-.18-.52-.18-.87,0-.32.06-.64.17-.96.12-.32.28-.6.49-.86.21-.26.47-.47.76-.62.3-.16.63-.23.99-.23.2,0,.4.03.6.09.2.06.37.17.5.31.14.14.2.33.2.57,0,.25-.07.46-.2.64-.13.17-.31.31-.53.42s-.46.18-.73.23c-.26.05-.53.07-.78.07-.08,0-.17,0-.26,0-.09,0-.17-.01-.25-.02-.08,0-.14-.02-.19-.02l.02-.41c.24.02.41.04.5.04.09,0,.15,0,.2,0,.42,0,.75-.08,1-.23s.38-.4.38-.75c0-.16-.06-.29-.17-.37-.11-.09-.24-.13-.39-.13-.23,0-.44.07-.63.2-.19.14-.35.31-.48.52s-.23.44-.3.67c-.07.24-.11.45-.11.65,0,.25.04.48.12.68s.21.36.38.48c.17.12.4.18.69.18.2,0,.4-.04.6-.13.2-.09.45-.22.75-.41h.17v.53c-.22.12-.44.23-.64.32s-.4.16-.61.21c-.2.05-.42.07-.66.07Z"/>
      <path class="st5" d="M227.67,248.74c-.26,0-.51-.04-.75-.11-.24-.07-.47-.14-.68-.21v-.97h.53l.11.35c.02.05.04.09.06.13.03.03.05.06.08.07.1.06.22.12.35.17.13.05.27.07.42.07.18,0,.36-.02.53-.06.17-.04.32-.12.43-.22.11-.11.17-.26.17-.45,0-.13-.05-.23-.14-.31-.1-.08-.24-.16-.44-.22-.13-.05-.27-.09-.4-.14-.13-.05-.27-.09-.4-.14-.27-.09-.48-.23-.62-.41s-.21-.38-.21-.59.05-.41.16-.58c.11-.17.26-.32.45-.44.19-.12.4-.21.64-.28s.49-.1.76-.1c.23,0,.43.02.61.07.17.05.36.1.56.16v.98h-.52l-.11-.37s-.04-.08-.07-.11c-.04-.03-.08-.06-.13-.09-.08-.04-.17-.07-.27-.09-.1-.02-.2-.03-.3-.03-.3,0-.54.05-.72.16s-.27.28-.27.51c0,.1.03.18.08.25.05.07.14.13.25.2.11.06.25.12.42.18.17.06.37.14.6.22.3.11.52.24.67.38.15.14.22.32.22.54,0,.24-.06.45-.18.63-.12.19-.28.34-.49.47-.2.13-.42.23-.67.29-.24.07-.48.1-.73.1Z"/>
    </g>
    <path class="st5" d="M134.67,276.23l12.25-12.69,1-.88.07-.26h-7.04c-.11,0-.22.04-.33.11-.11.07-.19.18-.24.33l-.88,2.43h-1.57l.99-4.42h12.78l-.26,1.19-12.26,12.69-1.01.92-.06.26h7.95c.1,0,.22-.03.34-.1.12-.07.21-.18.26-.35l.96-2.75h1.56l-1.06,4.76h-13.7l.27-1.22Z"/>
    <path class="st5" d="M361.08,49.71l12.25-12.69,1-.88.07-.26h-7.04c-.11,0-.22.04-.33.11-.11.07-.19.18-.24.33l-.88,2.43h-1.57l.99-4.42h12.78l-.26,1.19-12.26,12.69-1.01.92-.06.26h7.95c.1,0,.22-.03.34-.1.12-.07.21-.18.26-.35l.96-2.75h1.56l-1.06,4.76h-13.7l.27-1.22Z"/>
    <line class="st2" x1="152.62" y1="269.15" x2="271.41" y2="269.15"/>
    <polyline class="st2" points="268.04 265.2 271.99 269.15 268.04 273.09"/>
    <g>
      <path class="st5" d="M281.6,272.75v-.88l2.51-3.35c.15-.19.26-.39.34-.59s.12-.4.12-.58h0c0-.3-.08-.52-.25-.68-.17-.16-.41-.24-.72-.24-.29,0-.53.09-.71.26-.18.17-.3.42-.34.74h0s-1.05,0-1.05,0h0c.09-.63.32-1.11.68-1.45.36-.34.83-.51,1.4-.51.65,0,1.15.16,1.5.49s.53.79.53,1.39h0c0,.26-.05.53-.16.81s-.25.55-.44.8l-2.09,2.84h2.73v.96h-4.07Z"/>
      <path class="st5" d="M311.91,272.83c-.55,0-1-.16-1.35-.47-.35-.32-.57-.76-.66-1.34h0s1.01,0,1.01,0h0c.04.27.14.48.32.62.18.15.4.22.68.22.32,0,.57-.11.75-.32.18-.22.27-.52.27-.91v-.61c0-.39-.09-.7-.27-.91-.18-.21-.43-.32-.75-.32-.18,0-.34.05-.51.15-.16.1-.3.24-.43.42h-.92v-3.8h3.67v.96h-2.66v1.62c.13-.1.27-.18.42-.24.16-.06.31-.08.48-.08.63,0,1.11.19,1.46.58.34.38.52.93.52,1.63v.61c0,.7-.18,1.25-.53,1.63-.35.38-.85.58-1.5.58Z"/>
      <path class="st5" d="M339.11,272.83l1.81-3.58v.18c-.09.16-.22.27-.39.34-.17.07-.36.1-.58.1-.52,0-.94-.19-1.25-.58-.32-.39-.48-.9-.48-1.53h0c0-.71.18-1.25.53-1.63.35-.38.85-.58,1.48-.58s1.13.19,1.48.58c.35.39.53.94.53,1.65h0c0,.3-.04.62-.13.96s-.21.68-.38,1l-1.54,3.09h-1.09ZM340.24,268.95c.32,0,.56-.11.74-.32.17-.21.26-.52.26-.91h0c0-.38-.09-.68-.26-.89-.17-.21-.42-.31-.74-.31s-.57.1-.74.31c-.17.21-.26.5-.26.89h0c0,.4.09.7.26.91.17.21.42.32.74.32Z"/>
    </g>
    <rect class="st5" x="279.44" y="274.96" width="9.34" height=".79"/>
    <rect class="st5" x="307.24" y="274.96" width="9.34" height=".79"/>
    <rect class="st5" x="335.43" y="274.96" width="9.34" height=".79"/>
    <g>
      <path class="st5" d="M195.77,282.3c-.27,0-.51-.02-.73-.07-.22-.04-.4-.09-.56-.15-.15-.05-.27-.1-.35-.13l.19-.86h.16c.09.06.21.14.39.24.17.1.37.19.59.27.22.08.43.12.64.12.35,0,.64-.06.86-.19.22-.13.39-.31.49-.53.11-.22.16-.47.16-.74,0-.17-.04-.32-.11-.46-.07-.13-.19-.24-.35-.32-.16-.08-.39-.12-.67-.12h-.55l.14-.59h.44c.45,0,.79-.12,1.04-.36.25-.24.37-.58.37-1.03,0-.19-.06-.35-.18-.47-.12-.12-.32-.18-.61-.18-.21,0-.43.04-.66.11-.23.07-.44.15-.63.24s-.34.17-.45.23h-.16l.18-.83c.09-.03.21-.07.36-.13.15-.05.33-.1.53-.14.21-.04.45-.06.72-.06.24,0,.47.03.68.08.21.05.4.13.56.23s.29.22.38.37c.09.14.14.31.14.5,0,.12-.02.27-.07.42-.05.16-.13.32-.25.48-.12.16-.28.31-.49.44-.21.13-.46.24-.78.32v.06c.17.02.37.08.56.16.2.08.36.2.49.36.13.16.2.38.2.66,0,.32-.08.61-.25.87-.17.26-.38.47-.65.65-.27.18-.56.31-.88.41-.32.09-.63.14-.94.14Z"/>
      <path class="st5" d="M202.38,282.21l1.16-5.21c.01-.06,0-.1-.02-.12-.02-.02-.05-.04-.09-.06l-.47-.24v-.33h1.52l-.46,2.08-.09.4-.59,2.66v.81h-.96ZM205.78,282.27c-.16,0-.29-.03-.39-.1-.1-.07-.16-.15-.21-.24-.04-.09-.06-.18-.06-.26,0-.07,0-.15.02-.25.02-.1.04-.21.06-.32l.35-1.49c.03-.11.05-.21.06-.31.01-.1.02-.18.02-.25,0-.19-.05-.33-.16-.43-.1-.1-.28-.15-.54-.15-.17,0-.36.03-.56.1-.2.07-.38.18-.53.35l.06-.31c.21-.22.4-.39.57-.5.17-.11.34-.18.5-.21.16-.03.31-.05.45-.05.2,0,.38.04.53.11.16.07.28.18.37.33s.14.33.14.55c0,.13-.02.25-.04.38-.03.13-.06.25-.09.37l-.3,1.3c-.03.11-.04.21-.06.3-.01.09-.02.15-.02.18,0,.08.03.16.08.23s.16.1.32.1c.06,0,.11,0,.18-.02s.15-.04.24-.08h.15v.38c-.14.08-.29.14-.43.18-.14.04-.27.06-.39.07-.12.01-.23.02-.32.02Z"/>
      <path class="st5" d="M210.5,279.67l-.09.4c-.41,0-.77.02-1.09.06s-.57.13-.75.27c-.18.14-.27.36-.27.67,0,.23.07.4.21.49s.29.14.45.14c.17,0,.37-.04.58-.11.21-.07.39-.19.54-.34l.41-1.85s.02-.09.02-.14c0-.05,0-.11.01-.16,0-.05,0-.1,0-.14,0-.21-.08-.36-.22-.44-.15-.09-.33-.13-.53-.13-.17,0-.35.04-.53.11s-.35.16-.51.26-.29.17-.39.23h-.18v-.77l.4-.12c.2-.06.41-.11.62-.16s.46-.07.73-.07c.17,0,.33.02.5.05.17.03.32.09.46.16.14.08.25.18.33.31.08.13.12.29.12.48,0,.09,0,.2-.02.33-.02.13-.03.24-.05.32l-.24,1.06c-.02.09-.04.19-.06.3s-.04.21-.06.31c-.02.09-.02.16-.02.19,0,.08.02.16.07.23.05.07.15.1.32.1.05,0,.12,0,.18-.02.07-.01.15-.04.25-.08h.15v.38c-.22.12-.43.2-.63.23-.2.03-.37.04-.5.04-.16,0-.29-.04-.38-.11-.09-.07-.15-.17-.19-.27-.03-.11-.05-.21-.05-.31h-.06c-.19.21-.37.37-.55.47-.18.1-.35.17-.52.2s-.31.05-.45.05c-.24,0-.43-.05-.59-.15-.16-.1-.28-.23-.36-.4-.08-.16-.12-.34-.12-.52,0-.31.07-.56.22-.77.15-.21.33-.37.56-.5s.47-.21.73-.27c.26-.05.49-.08.7-.08.06,0,.12,0,.17,0,.06,0,.12.01.19.02.07,0,.14.01.22.02.08,0,.17.01.27.02Z"/>
      <path class="st5" d="M213.81,282.31c-.26,0-.51-.04-.75-.11-.24-.07-.47-.14-.68-.21v-.97h.53l.11.35c.02.05.04.09.06.13.03.03.05.06.08.07.1.06.22.12.35.17.13.05.27.07.42.07.18,0,.36-.02.53-.06.17-.04.32-.12.43-.22.11-.11.17-.26.17-.45,0-.13-.05-.23-.14-.31-.1-.08-.24-.16-.44-.22-.13-.05-.27-.09-.4-.14-.13-.05-.27-.09-.4-.14-.27-.09-.48-.23-.62-.41s-.21-.38-.21-.59.05-.41.16-.58c.11-.17.26-.32.45-.44.19-.12.4-.21.64-.28s.49-.1.76-.1c.23,0,.43.02.61.07.17.05.36.1.56.16v.98h-.52l-.11-.37s-.04-.08-.07-.11c-.04-.03-.08-.06-.13-.09-.08-.04-.17-.07-.27-.09-.1-.02-.2-.03-.3-.03-.3,0-.54.05-.72.16s-.27.28-.27.51c0,.1.03.18.08.25.05.07.14.13.25.2.11.06.25.12.42.18.17.06.37.14.6.22.3.11.52.24.67.38.15.14.22.32.22.54,0,.24-.06.45-.18.63-.12.19-.28.34-.49.47-.2.13-.42.23-.67.29-.24.07-.48.1-.73.1Z"/>
      <path class="st5" d="M216.74,282.21l1.16-5.21c.01-.06,0-.1-.02-.12-.02-.02-.05-.04-.09-.06l-.47-.24v-.33h1.52l-.46,2.08-.09.4-.59,2.66v.81h-.96ZM220.15,282.27c-.16,0-.29-.03-.39-.1-.1-.07-.16-.15-.21-.24-.04-.09-.06-.18-.06-.26,0-.07,0-.15.02-.25.02-.1.04-.21.06-.32l.35-1.49c.03-.11.05-.21.06-.31.01-.1.02-.18.02-.25,0-.19-.05-.33-.16-.43-.1-.1-.28-.15-.54-.15-.17,0-.36.03-.56.1-.2.07-.38.18-.53.35l.06-.31c.21-.22.4-.39.57-.5.17-.11.34-.18.5-.21.16-.03.31-.05.45-.05.2,0,.38.04.53.11.16.07.28.18.37.33s.14.33.14.55c0,.13-.02.25-.04.38-.03.13-.06.25-.09.37l-.3,1.3c-.03.11-.04.21-.06.3-.01.09-.02.15-.02.18,0,.08.03.16.08.23s.16.1.32.1c.06,0,.11,0,.18-.02s.15-.04.24-.08h.15v.38c-.14.08-.29.14-.43.18-.14.04-.27.06-.39.07-.12.01-.23.02-.32.02Z"/>
      <path class="st5" d="M223.56,282.29c-.13,0-.28-.03-.46-.08-.18-.05-.36-.14-.53-.27-.18-.13-.32-.31-.44-.53-.12-.23-.18-.52-.18-.87,0-.32.06-.64.17-.96.12-.32.28-.6.49-.86.21-.26.47-.47.76-.62.3-.16.63-.23.99-.23.2,0,.4.03.6.09.2.06.37.17.5.31.14.14.2.33.2.57,0,.25-.07.46-.2.64-.13.17-.31.31-.53.42s-.46.18-.73.23c-.26.05-.53.07-.78.07-.08,0-.17,0-.26,0-.09,0-.17-.01-.25-.02-.08,0-.14-.02-.19-.02l.02-.41c.24.02.41.04.5.04.09,0,.15,0,.2,0,.42,0,.75-.08,1-.23s.38-.4.38-.75c0-.16-.06-.29-.17-.37-.11-.09-.24-.13-.39-.13-.23,0-.44.07-.63.2-.19.14-.35.31-.48.52s-.23.44-.3.67c-.07.24-.11.45-.11.65,0,.25.04.48.12.68s.21.36.38.48c.17.12.4.18.69.18.2,0,.4-.04.6-.13.2-.09.45-.22.75-.41h.17v.53c-.22.12-.44.23-.64.32s-.4.16-.61.21c-.2.05-.42.07-.66.07Z"/>
      <path class="st5" d="M227.67,282.31c-.26,0-.51-.04-.75-.11-.24-.07-.47-.14-.68-.21v-.97h.53l.11.35c.02.05.04.09.06.13.03.03.05.06.08.07.1.06.22.12.35.17.13.05.27.07.42.07.18,0,.36-.02.53-.06.17-.04.32-.12.43-.22.11-.11.17-.26.17-.45,0-.13-.05-.23-.14-.31-.1-.08-.24-.16-.44-.22-.13-.05-.27-.09-.4-.14-.13-.05-.27-.09-.4-.14-.27-.09-.48-.23-.62-.41s-.21-.38-.21-.59.05-.41.16-.58c.11-.17.26-.32.45-.44.19-.12.4-.21.64-.28s.49-.1.76-.1c.23,0,.43.02.61.07.17.05.36.1.56.16v.98h-.52l-.11-.37s-.04-.08-.07-.11c-.04-.03-.08-.06-.13-.09-.08-.04-.17-.07-.27-.09-.1-.02-.2-.03-.3-.03-.3,0-.54.05-.72.16s-.27.28-.27.51c0,.1.03.18.08.25.05.07.14.13.25.2.11.06.25.12.42.18.17.06.37.14.6.22.3.11.52.24.67.38.15.14.22.32.22.54,0,.24-.06.45-.18.63-.12.19-.28.34-.49.47-.2.13-.42.23-.67.29-.24.07-.48.1-.73.1Z"/>
    </g>
    <path class="st2" d="M282.77,126.29v1.66c0,1.1-.9,2-2,2h-9.47"/>
    <path class="st2" d="M311.23,126.08v1.87c0,1.1-.9,2-2,2h-9.61"/>
    <path class="st2" d="M396.75,126.29v1.66c0,1.1-.9,2-2,2h-10.16"/>
    <path class="st2" d="M453.39,127.95h0c0,1.1-.9,2-2,2h-10.16"/>
    <path class="st2" d="M226.82,54.44c0,38.26-57.24,28.79-57.24,71.05"/>
    <path class="st2" d="M226.82,54.44c15.44,63.25,202.62,17.94,225.79,70.02.52,1.17.78,2.43.78,3.71h0"/>
    <path class="st2" d="M226.82,54.44c0,50.26,84.41,37.88,84.41,71.64"/>
    <path class="st2" d="M367.18,54.44c0,52.22-168.69,25.46-168.69,71.85"/>
    <path class="st2" d="M367.18,54.44c2.27,28.79,29.56,48.18,29.56,71.85"/>
    <path class="st2" d="M367.18,54.65c0,50.26-84.41,38.6-84.41,71.64"/>
    <g>
      <path class="st2" d="M295.62,129.95h-10.85c-1.1,0-2-.9-2-2v-1.4"/>
      <path class="st2" d="M210.7,129.95h-10.2c-1.1,0-2-.9-2-2v-1.4"/>
      <path class="st2" d="M323.94,129.95h-10.71c-1.1,0-2-.9-2-2v-1.4"/>
      <path class="st2" d="M408.91,129.95h-10.16c-1.1,0-2-.9-2-2v-1.4"/>
      <path class="st2" d="M182.34,129.95h-10.76c-1.1,0-2-.9-2-2v-1.4"/>
      <path class="st2" d="M465.55,129.95h-10.16c-1.1,0-2-.9-2-2h0"/>
    </g>
    <rect class="st5" x="279.44" y="241.4" width="9.34" height=".79"/>
    <rect class="st5" x="307.24" y="241.4" width="9.34" height=".79"/>
    <rect class="st5" x="335.43" y="241.4" width="9.34" height=".79"/>
    <rect class="st4" x="279.44" y="207.83" width="9.34" height=".79"/>
    <rect class="st4" x="307.24" y="207.83" width="9.34" height=".79"/>
    <rect class="st4" x="335.43" y="207.83" width="9.34" height=".79"/>
  </g>
</svg>