<?xml version="1.0" encoding="UTF-8"?>
<svg id="Layer_1" xmlns="http://www.w3.org/2000/svg" version="1.1" viewBox="0 0 595.28 292.96">
  <!-- Generator: Adobe Illustrator 29.5.1, SVG Export Plug-In . SVG Version: 2.1.0 Build 141)  -->
  <defs>
    <style>
      .st0 {
        stroke: #273765;
      }

      .st0, .st1, .st2, .st3 {
        stroke-miterlimit: 10;
      }

      .st0, .st2, .st3 {
        fill: none;
      }

      .st1 {
        fill: #fff;
      }

      .st1, .st3 {
        stroke: #121f9e;
      }

      .st2 {
        stroke: #fff;
        stroke-width: .2px;
      }

      .st4 {
        fill: #45f485;
      }

      .st5 {
        fill: #121f9e;
      }
    </style>
  </defs>
  <line class="st2" x1="5.81" y1="270.51" x2="588.39" y2="270.51"/>
  <line class="st2" x1="5.81" y1="24.79" x2="588.39" y2="24.79"/>
  <g>
    <path class="st4" d="M182.35,155.16c1.1,0,2,.9,2,2v24.32c0,1.1-.9,2-2,2h-24.32c-1.1,0-2-.9-2-2v-24.32c0-1.1.9-2,2-2h10.24l1.33-1.68,1.44,1.68h11.32Z"/>
    <path class="st3" d="M182.35,155.16c1.1,0,2,.9,2,2v24.32c0,1.1-.9,2-2,2h-24.32c-1.1,0-2-.9-2-2v-24.32c0-1.1.9-2,2-2"/>
    <g>
      <path class="st4" d="M210.67,155.16c1.1,0,2,.9,2,2v24.32c0,1.1-.9,2-2,2h-24.32c-1.1,0-2-.9-2-2v-24.32c0-1.1.9-2,2-2h10.24l1.33-1.68,1.44,1.68h11.32Z"/>
      <path class="st5" d="M171.31,163.81v11.02h-1.55v-9.38l-1.89,1v-1.64l1.89-1h1.55Z"/>
      <path class="st5" d="M199.68,163.81v11.02h-1.55v-9.38l-1.89,1v-1.64l1.89-1h1.55Z"/>
      <g>
        <path class="st4" d="M295.64,155.16c1.1,0,2,.9,2,2v24.32c0,1.1-.9,2-2,2h-24.32c-1.1,0-2-.9-2-2v-24.32c0-1.1.9-2,2-2h10.24l1.33-1.68,1.44,1.68h11.32Z"/>
        <path class="st5" d="M284.51,163.81v11.02h-1.55v-9.38l-1.89,1v-1.64l1.89-1h1.55Z"/>
        <path class="st3" d="M295.64,155.16c1.1,0,2,.9,2,2v24.32c0,1.1-.9,2-2,2h-24.32c-1.1,0-2-.9-2-2v-24.32c0-1.1.9-2,2-2"/>
      </g>
      <g>
        <rect class="st1" x="127.71" y="155.16" width="28.32" height="28.32" rx="2" ry="2"/>
        <path class="st5" d="M141.87,174.95c-1.05,0-1.84-.28-2.36-.84-.52-.56-.78-1.33-.78-2.29v-5.01c0-.98.26-1.74.8-2.3.53-.56,1.31-.83,2.35-.83s1.83.28,2.35.83c.53.55.79,1.32.79,2.3v5.01c0,.98-.26,1.74-.79,2.3-.53.56-1.31.83-2.35.83ZM141.87,173.48c.57,0,.97-.15,1.22-.44.25-.3.38-.7.38-1.22v-5.01c0-.52-.12-.93-.38-1.22-.25-.29-.66-.44-1.22-.44s-.97.15-1.22.44c-.25.29-.38.7-.38,1.22v5.01c0,.52.12.92.38,1.22.25.3.66.44,1.22.44Z"/>
      </g>
      <g>
        <rect class="st1" x="212.67" y="155.16" width="28.32" height="28.32" rx="2" ry="2"/>
        <path class="st5" d="M226.83,174.95c-1.05,0-1.84-.28-2.36-.84-.52-.56-.78-1.33-.78-2.29v-5.01c0-.98.26-1.74.8-2.3.53-.56,1.31-.83,2.35-.83s1.83.28,2.35.83c.53.55.79,1.32.79,2.3v5.01c0,.98-.26,1.74-.79,2.3-.53.56-1.31.83-2.35.83ZM226.83,173.48c.57,0,.97-.15,1.22-.44.25-.3.38-.7.38-1.22v-5.01c0-.52-.12-.93-.38-1.22-.25-.29-.66-.44-1.22-.44s-.97.15-1.22.44c-.25.29-.38.7-.38,1.22v5.01c0,.52.12.92.38,1.22.25.3.66.44,1.22.44Z"/>
      </g>
      <g>
        <rect class="st1" x="241" y="155.16" width="28.32" height="28.32" rx="2" ry="2"/>
        <path class="st5" d="M255.16,174.95c-1.05,0-1.84-.28-2.36-.84-.52-.56-.78-1.33-.78-2.29v-5.01c0-.98.26-1.74.8-2.3.53-.56,1.31-.83,2.35-.83s1.83.28,2.35.83c.53.55.79,1.32.79,2.3v5.01c0,.98-.26,1.74-.79,2.3-.53.56-1.31.83-2.35.83ZM255.16,173.48c.57,0,.97-.15,1.22-.44.25-.3.38-.7.38-1.22v-5.01c0-.52-.12-.93-.38-1.22-.25-.29-.66-.44-1.22-.44s-.97.15-1.22.44c-.25.29-.38.7-.38,1.22v5.01c0,.52.12.92.38,1.22.25.3.66.44,1.22.44Z"/>
      </g>
      <g>
        <rect class="st1" x="297.64" y="155.16" width="28.32" height="28.32" rx="2" ry="2"/>
        <path class="st5" d="M311.8,174.95c-1.05,0-1.84-.28-2.36-.84-.52-.56-.78-1.33-.78-2.29v-5.01c0-.98.26-1.74.8-2.3.53-.56,1.31-.83,2.35-.83s1.83.28,2.35.83c.53.55.79,1.32.79,2.3v5.01c0,.98-.26,1.74-.79,2.3-.53.56-1.31.83-2.35.83ZM311.8,173.48c.57,0,.97-.15,1.22-.44.25-.3.38-.7.38-1.22v-5.01c0-.52-.12-.93-.38-1.22-.25-.29-.66-.44-1.22-.44s-.97.15-1.22.44c-.25.29-.38.7-.38,1.22v5.01c0,.52.12.92.38,1.22.25.3.66.44,1.22.44Z"/>
      </g>
      <g>
        <rect class="st1" x="325.96" y="155.16" width="28.32" height="28.32" rx="2" ry="2"/>
        <path class="st5" d="M340.12,174.95c-1.05,0-1.84-.28-2.36-.84-.52-.56-.78-1.33-.78-2.29v-5.01c0-.98.26-1.74.8-2.3.53-.56,1.31-.83,2.35-.83s1.83.28,2.35.83c.53.55.79,1.32.79,2.3v5.01c0,.98-.26,1.74-.79,2.3-.53.56-1.31.83-2.35.83ZM340.12,173.48c.57,0,.97-.15,1.22-.44.25-.3.38-.7.38-1.22v-5.01c0-.52-.12-.93-.38-1.22-.25-.29-.66-.44-1.22-.44s-.97.15-1.22.44c-.25.29-.38.7-.38,1.22v5.01c0,.52.12.92.38,1.22.25.3.66.44,1.22.44Z"/>
      </g>
      <g>
        <rect class="st1" x="354.28" y="155.16" width="28.32" height="28.32" rx="2" ry="2"/>
        <path class="st5" d="M368.44,174.95c-1.05,0-1.84-.28-2.36-.84-.52-.56-.78-1.33-.78-2.29v-5.01c0-.98.26-1.74.8-2.3.53-.56,1.31-.83,2.35-.83s1.83.28,2.35.83c.53.55.79,1.32.79,2.3v5.01c0,.98-.26,1.74-.79,2.3-.53.56-1.31.83-2.35.83ZM368.44,173.48c.57,0,.97-.15,1.22-.44.25-.3.38-.7.38-1.22v-5.01c0-.52-.12-.93-.38-1.22-.25-.29-.66-.44-1.22-.44s-.97.15-1.22.44c-.25.29-.38.7-.38,1.22v5.01c0,.52.12.92.38,1.22.25.3.66.44,1.22.44Z"/>
      </g>
      <g>
        <rect class="st1" x="382.6" y="155.16" width="28.32" height="28.32" rx="2" ry="2"/>
        <path class="st5" d="M396.76,174.95c-1.05,0-1.84-.28-2.36-.84-.52-.56-.78-1.33-.78-2.29v-5.01c0-.98.26-1.74.8-2.3.53-.56,1.31-.83,2.35-.83s1.83.28,2.35.83c.53.55.79,1.32.79,2.3v5.01c0,.98-.26,1.74-.79,2.3-.53.56-1.31.83-2.35.83ZM396.76,173.48c.57,0,.97-.15,1.22-.44.25-.3.38-.7.38-1.22v-5.01c0-.52-.12-.93-.38-1.22-.25-.29-.66-.44-1.22-.44s-.97.15-1.22.44c-.25.29-.38.7-.38,1.22v5.01c0,.52.12.92.38,1.22.25.3.66.44,1.22.44Z"/>
      </g>
      <g>
        <rect class="st1" x="410.92" y="155.16" width="28.32" height="28.32" rx="2" ry="2"/>
        <path class="st5" d="M425.08,174.95c-1.05,0-1.84-.28-2.36-.84-.52-.56-.78-1.33-.78-2.29v-5.01c0-.98.26-1.74.8-2.3.53-.56,1.31-.83,2.35-.83s1.83.28,2.35.83c.53.55.79,1.32.79,2.3v5.01c0,.98-.26,1.74-.79,2.3-.53.56-1.31.83-2.35.83ZM425.08,173.48c.57,0,.97-.15,1.22-.44.25-.3.38-.7.38-1.22v-5.01c0-.52-.12-.93-.38-1.22-.25-.29-.66-.44-1.22-.44s-.97.15-1.22.44c-.25.29-.38.7-.38,1.22v5.01c0,.52.12.92.38,1.22.25.3.66.44,1.22.44Z"/>
      </g>
      <g>
        <rect class="st1" x="439.24" y="155.16" width="28.32" height="28.32" rx="2" ry="2"/>
        <path class="st5" d="M453.4,174.95c-1.05,0-1.84-.28-2.36-.84-.52-.56-.78-1.33-.78-2.29v-5.01c0-.98.26-1.74.8-2.3.53-.56,1.31-.83,2.35-.83s1.83.28,2.35.83c.53.55.79,1.32.79,2.3v5.01c0,.98-.26,1.74-.79,2.3-.53.56-1.31.83-2.35.83ZM453.4,173.48c.57,0,.97-.15,1.22-.44.25-.3.38-.7.38-1.22v-5.01c0-.52-.12-.93-.38-1.22-.25-.29-.66-.44-1.22-.44s-.97.15-1.22.44c-.25.29-.38.7-.38,1.22v5.01c0,.52.12.92.38,1.22.25.3.66.44,1.22.44Z"/>
      </g>
      <path class="st3" d="M210.67,155.16c1.1,0,2,.9,2,2v24.32c0,1.1-.9,2-2,2h-24.32c-1.1,0-2-.9-2-2v-24.32c0-1.1.9-2,2-2"/>
    </g>
    <g>
      <path class="st5" d="M171.31,197.61v7.19h-1.01v-6.12l-1.24.65v-1.07l1.24-.65h1.01Z"/>
      <path class="st5" d="M141.87,204.88c-.69,0-1.2-.18-1.54-.55-.34-.37-.51-.86-.51-1.49v-3.27c0-.64.17-1.14.52-1.5.35-.36.86-.54,1.53-.54s1.19.18,1.54.54c.34.36.52.86.52,1.5v3.27c0,.64-.17,1.14-.52,1.5-.34.36-.86.54-1.54.54ZM141.87,203.92c.37,0,.64-.1.8-.29.16-.19.24-.46.24-.79v-3.27c0-.34-.08-.6-.24-.8-.16-.19-.43-.29-.8-.29s-.64.1-.8.29c-.16.19-.24.46-.24.8v3.27c0,.34.08.6.24.79.16.19.43.29.8.29Z"/>
      <path class="st5" d="M196.52,204.8v-.88l2.51-3.35c.15-.19.26-.39.34-.59s.12-.4.12-.58h0c0-.3-.08-.52-.25-.68-.17-.16-.41-.24-.72-.24-.29,0-.53.09-.71.26-.18.17-.3.42-.34.74h0s-1.05,0-1.05,0h0c.09-.63.32-1.11.68-1.45.36-.34.83-.51,1.4-.51.65,0,1.15.16,1.5.49s.53.79.53,1.39h0c0,.26-.05.53-.16.81s-.25.55-.44.8l-2.09,2.84h2.73v.96h-4.07Z"/>
      <path class="st5" d="M226.88,204.88c-.41,0-.76-.07-1.07-.22-.31-.15-.55-.36-.74-.64-.18-.28-.3-.61-.36-1.01h1.03c.05.31.17.54.37.68.2.14.45.22.76.22.33,0,.59-.09.78-.27.18-.18.28-.43.28-.75v-.22c0-.36-.09-.64-.26-.84s-.42-.3-.74-.3h-.51v-.96h.51c.28,0,.5-.08.66-.25s.23-.41.23-.71v-.22c0-.28-.08-.5-.25-.66-.16-.16-.4-.23-.7-.23-.25,0-.47.07-.65.22-.18.14-.3.37-.36.68h-1.03c.1-.59.33-1.05.69-1.38.36-.33.81-.49,1.35-.49.62,0,1.1.16,1.44.49.34.33.51.79.51,1.38v.12c0,.36-.1.67-.29.94s-.47.46-.83.59c.39.08.7.27.91.58.22.3.32.69.32,1.15v.12c0,.63-.18,1.12-.54,1.47-.36.35-.87.52-1.53.52Z"/>
      <path class="st5" d="M252.84,203.7v-.88l2.42-5.22h1.04l-2.36,5.16h3.53v.94h-4.64ZM255.95,204.81v-4.24h.99v4.24h-.99Z"/>
      <path class="st5" d="M283.47,204.88c-.55,0-1-.16-1.35-.47-.35-.32-.57-.76-.66-1.34h0s1.01,0,1.01,0h0c.04.27.14.48.32.62.18.15.4.22.68.22.32,0,.57-.11.75-.32.18-.22.27-.52.27-.91v-.61c0-.39-.09-.7-.27-.91-.18-.21-.43-.32-.75-.32-.18,0-.34.05-.51.15-.16.1-.3.24-.43.42h-.92v-3.8h3.67v.96h-2.66v1.62c.13-.1.27-.18.42-.24.16-.06.31-.08.48-.08.63,0,1.11.19,1.46.58.34.38.52.93.52,1.63v.61c0,.7-.18,1.25-.53,1.63-.35.38-.85.58-1.5.58Z"/>
      <path class="st5" d="M311.8,204.88c-.64,0-1.13-.19-1.48-.57s-.53-.92-.53-1.61h0c0-.32.04-.65.13-.99.09-.35.21-.69.37-1.01l1.57-3.1h1.09l-1.84,3.59v-.18c.18-.33.48-.49.92-.49.57,0,1,.19,1.31.56.31.38.47.9.47,1.59h0c0,.7-.18,1.24-.53,1.63-.35.38-.85.58-1.49.58ZM311.8,203.9c.32,0,.57-.1.74-.3.17-.2.26-.48.26-.85h0c0-.41-.09-.72-.27-.94s-.44-.33-.78-.33c-.3,0-.53.11-.7.33-.17.22-.25.53-.25.94h0c0,.37.09.65.26.85.17.2.42.3.74.3Z"/>
      <path class="st5" d="M342.08,197.59v.9l-1.86,6.31h-1.08l1.86-6.25h-1.83v1.04h-1.01v-2h3.92Z"/>
      <path class="st5" d="M368.44,204.88c-.44,0-.82-.08-1.15-.25-.33-.17-.58-.4-.76-.7-.18-.3-.27-.65-.27-1.06v-.12c0-.36.09-.7.27-1.02.18-.32.42-.56.72-.72-.25-.14-.45-.34-.61-.6-.15-.26-.23-.54-.23-.83v-.17c0-.57.19-1.03.56-1.38.37-.35.87-.52,1.48-.52s1.11.17,1.48.52c.37.35.56.8.56,1.38v.17c0,.3-.08.58-.24.84-.16.26-.36.46-.62.6.3.16.55.4.73.72.18.32.27.66.27,1.02v.12c0,.4-.09.76-.27,1.06-.18.3-.44.53-.76.7-.33.17-.71.25-1.15.25ZM368.44,203.9c.35,0,.64-.1.86-.3.22-.2.32-.47.32-.8v-.07c0-.33-.11-.6-.32-.81-.22-.2-.5-.3-.86-.3s-.64.1-.86.3-.32.47-.32.81v.07c0,.33.11.6.32.8.22.2.5.3.86.3ZM368.44,200.65c.31,0,.56-.1.74-.29.19-.19.28-.45.28-.77v-.07c0-.31-.09-.55-.28-.74-.19-.19-.44-.28-.74-.28s-.56.09-.74.28c-.19.19-.28.44-.28.75v.07c0,.32.09.57.28.77.19.19.44.29.74.29Z"/>
      <path class="st5" d="M395.64,204.8l1.81-3.58v.18c-.09.16-.22.27-.39.34-.17.07-.36.1-.58.1-.52,0-.94-.19-1.25-.58-.32-.39-.48-.9-.48-1.53h0c0-.71.18-1.25.53-1.63.35-.38.85-.58,1.48-.58s1.13.19,1.48.58c.35.39.53.94.53,1.65h0c0,.3-.04.62-.13.96s-.21.68-.38,1l-1.54,3.09h-1.09ZM396.76,200.92c.32,0,.56-.11.74-.32.17-.21.26-.52.26-.91h0c0-.38-.09-.68-.26-.89-.17-.21-.42-.31-.74-.31s-.57.1-.74.31c-.17.21-.26.5-.26.89h0c0,.4.09.7.26.91.17.21.42.32.74.32Z"/>
      <g>
        <path class="st5" d="M426.97,204.88c-.69,0-1.2-.18-1.54-.55-.34-.37-.51-.87-.51-1.49v-3.28c0-.64.17-1.14.52-1.5s.86-.55,1.54-.55,1.19.18,1.54.54.52.86.52,1.5v3.28c0,.64-.17,1.14-.52,1.5s-.86.55-1.54.55ZM426.97,203.91c.37,0,.64-.1.8-.29.16-.19.25-.46.25-.8v-3.28c0-.34-.08-.61-.25-.8-.16-.19-.43-.29-.8-.29s-.64.1-.8.29c-.16.19-.25.46-.25.8v3.28c0,.34.08.6.25.8.16.19.43.29.8.29Z"/>
        <path class="st5" d="M423.38,197.61v7.19h-1.01v-6.12l-1.24.65v-1.07l1.24-.65h1.01Z"/>
      </g>
      <g>
        <path class="st5" d="M452.75,197.61v7.19h-1.01v-6.12l-1.24.65v-1.07l1.24-.65h1.01Z"/>
        <path class="st5" d="M456.31,197.61v7.19h-1.01v-6.12l-1.24.65v-1.07l1.24-.65h1.01Z"/>
      </g>
    </g>
    <path class="st5" d="M218.27,74.68l1.5-.53c.14-.05.29-.13.43-.24.15-.11.28-.23.41-.36l6.19-6.26-3.16-6.22c-.06-.12-.14-.23-.23-.34-.09-.11-.2-.19-.33-.23l-1.47-.55.21-.93h5.91l-.22.93-1.42.76,1.92,3.84.47,1.34h.12l4.81-5.12-1.37-.83.22-.93h5.43l-.21.93-1.39.55c-.1.04-.22.11-.37.22s-.29.23-.41.35l-6,6.12,3.22,6.36c.08.14.16.27.25.38.09.11.19.19.3.22l1.47.53-.21.95h-5.92l.21-.95,1.44-.75-2.03-4.11-.47-1.19h-.13l-4.97,5.25,1.37.79-.21.95h-5.59l.22-.95Z"/>
    <path class="st5" d="M132.26,234.57l1.5-.53c.14-.05.29-.13.43-.24.15-.11.28-.23.41-.36l6.19-6.26-3.16-6.22c-.06-.12-.14-.23-.23-.34-.09-.11-.2-.19-.33-.23l-1.47-.55.21-.93h5.91l-.22.93-1.42.76,1.92,3.84.47,1.34h.12l4.81-5.12-1.37-.83.22-.93h5.43l-.21.93-1.39.55c-.1.04-.22.11-.37.22s-.29.23-.41.35l-6,6.12,3.22,6.36c.08.14.16.27.25.38.09.11.19.19.3.22l1.47.53-.21.95h-5.92l.21-.95,1.44-.75-2.03-4.11-.47-1.19h-.13l-4.97,5.25,1.37.79-.21.95h-5.59l.22-.95Z"/>
    <path class="st3" d="M282.79,150.69v2.47c0,1.1.9,2,2,2h10.85"/>
    <path class="st3" d="M182.35,155.16h-10.76c-1.1,0-2-.9-2-2v-2.47"/>
    <path class="st3" d="M158.03,155.16h9.56c1.1,0,2-.9,2-2v-2.42"/>
    <path class="st3" d="M197.96,152.07v1.08c0,1.1.9,2,2,2h10.71"/>
    <path class="st0" d="M226.19,139.48"/>
    <line class="st3" x1="152.63" y1="227.22" x2="271.42" y2="227.22"/>
    <polyline class="st3" points="268.06 223.27 272 227.22 268.06 231.16"/>
    <g>
      <g>
        <path class="st5" d="M284.78,223.63v7.19h-1.01v-6.12l-1.24.65v-1.07l1.24-.65h1.01Z"/>
        <path class="st5" d="M309.99,230.82v-.88l2.51-3.35c.15-.19.26-.39.34-.59s.12-.4.12-.58h0c0-.3-.08-.52-.25-.68-.17-.16-.41-.24-.72-.24-.29,0-.53.09-.71.26-.18.17-.3.42-.34.74h0s-1.05,0-1.05,0h0c.09-.63.32-1.11.68-1.45.36-.34.83-.51,1.4-.51.65,0,1.15.16,1.5.49s.53.79.53,1.39h0c0,.26-.05.53-.16.81s-.25.55-.44.8l-2.09,2.84h2.73v.96h-4.07Z"/>
        <path class="st5" d="M340.3,230.89c-.55,0-1-.16-1.35-.47-.35-.32-.57-.76-.66-1.34h0s1.01,0,1.01,0h0c.04.27.14.48.32.62.18.15.4.22.68.22.32,0,.57-.11.75-.32.18-.22.27-.52.27-.91v-.61c0-.39-.09-.7-.27-.91-.18-.21-.43-.32-.75-.32-.18,0-.34.05-.51.15-.16.1-.3.24-.43.42h-.92v-3.8h3.67v.96h-2.66v1.62c.13-.1.27-.18.42-.24.16-.06.31-.08.48-.08.63,0,1.11.19,1.46.58.34.38.52.93.52,1.63v.61c0,.7-.18,1.25-.53,1.63-.35.38-.85.58-1.5.58Z"/>
      </g>
      <rect class="st5" x="279.51" y="233.03" width="9.34" height="1.3"/>
      <rect class="st5" x="307.31" y="233.03" width="9.34" height="1.3"/>
      <rect class="st5" x="335.5" y="233.03" width="9.34" height="1.3"/>
    </g>
    <path class="st3" d="M186.35,155.16h9.61c1.1,0,2-.9,2-2v-1.08"/>
    <path class="st3" d="M271.32,155.16h9.47c1.1,0,2-.9,2-2v-2.42"/>
    <path class="st3" d="M226.83,79.64c0,38.26-57.24,28.79-57.24,71.05"/>
    <path class="st3" d="M226.83,79.64c0,36.21,55.95,37.88,55.95,71.64"/>
    <path class="st3" d="M226.83,79.64c0,36.95-28.87,41.46-28.87,72.43"/>
  </g>
</svg>