<?xml version="1.0" encoding="UTF-8"?>
<svg id="Layer_1" xmlns="http://www.w3.org/2000/svg" version="1.1" viewBox="0 0 1824.38 683.08">
  <!-- Generator: Adobe Illustrator 29.6.0, SVG Export Plug-In . SVG Version: 2.1.1 Build 207)  -->
  <defs>
    <style>
      .st0 {
        stroke-dasharray: 9.24 9.24;
      }

      .st0, .st1, .st2, .st3, .st4, .st5, .st6, .st7, .st8, .st9, .st10, .st11, .st12, .st13, .st14, .st15, .st16, .st17, .st18, .st19, .st20, .st21, .st22, .st23, .st24, .st25, .st26, .st27, .st28, .st29, .st30, .st31, .st32, .st33, .st34, .st35, .st36, .st37 {
        stroke-miterlimit: 10;
      }

      .st0, .st2, .st3, .st4, .st5, .st6, .st7, .st8, .st9, .st10, .st11, .st12, .st13, .st15, .st16, .st17, .st18, .st19, .st20, .st21, .st22, .st23, .st24, .st25, .st27, .st28, .st29, .st30, .st31, .st32, .st33, .st34, .st35, .st36, .st37 {
        fill: none;
      }

      .st0, .st2, .st3, .st4, .st5, .st6, .st7, .st8, .st9, .st10, .st11, .st12, .st13, .st15, .st16, .st17, .st18, .st19, .st21, .st22, .st23, .st25, .st27, .st28, .st29, .st30, .st31, .st32, .st34, .st35, .st36, .st37 {
        stroke-linecap: round;
      }

      .st0, .st2, .st3, .st4, .st5, .st6, .st7, .st8, .st9, .st10, .st11, .st12, .st13, .st15, .st16, .st17, .st18, .st20, .st21, .st22, .st23, .st24, .st25, .st26, .st27, .st28, .st29, .st30, .st31, .st32, .st33, .st34, .st35, .st36, .st37 {
        stroke-width: 3px;
      }

      .st0, .st2, .st3, .st4, .st5, .st6, .st7, .st8, .st9, .st10, .st11, .st12, .st13, .st15, .st16, .st17, .st18, .st20, .st21, .st22, .st23, .st25, .st26, .st27, .st28, .st29, .st30, .st31, .st32, .st34, .st35, .st36, .st37 {
        stroke: #ddd;
      }

      .st1, .st14, .st19 {
        stroke-width: 4px;
      }

      .st1, .st14, .st19, .st24 {
        stroke: #121f9e;
      }

      .st1, .st26 {
        fill: #fff;
      }

      .st2 {
        stroke-dasharray: 11.49 11.49;
      }

      .st3 {
        stroke-dasharray: 11.23 11.23;
      }

      .st4 {
        stroke-dasharray: 9.24 9.24;
      }

      .st5 {
        stroke-dasharray: 11.76 11.76;
      }

      .st6 {
        stroke-dasharray: 11.73 11.73;
      }

      .st38 {
        fill: #59619e;
      }

      .st7 {
        stroke-dasharray: 9.24 9.24;
      }

      .st8 {
        stroke-dasharray: 11.23 11.23;
      }

      .st9 {
        stroke-dasharray: 9.7 9.7;
      }

      .st10 {
        stroke-dasharray: 9.24 9.24;
      }

      .st12 {
        stroke-dasharray: 11.68 11.68;
      }

      .st13 {
        stroke-dasharray: 9.24 9.24;
      }

      .st14 {
        fill: #45f485;
      }

      .st15 {
        stroke-dasharray: 9.24 9.24;
      }

      .st16 {
        stroke-dasharray: 9.24 9.24;
      }

      .st17 {
        stroke-dasharray: 11 11;
      }

      .st18 {
        stroke-dasharray: 9.24 9.24;
      }

      .st21 {
        stroke-dasharray: 11.68 11.68;
      }

      .st22 {
        stroke-dasharray: 11.23 11.23;
      }

      .st23 {
        stroke-dasharray: 9.24 9.24;
      }

      .st25 {
        stroke-dasharray: 9.24 9.24;
      }

      .st27 {
        stroke-dasharray: 11.84 11.84;
      }

      .st28 {
        stroke-dasharray: 9.24 9.24;
      }

      .st29 {
        stroke-dasharray: 11.68 11.68;
      }

      .st30 {
        stroke-dasharray: 11.52 11.52;
      }

      .st31 {
        stroke-dasharray: 11.23 11.23;
      }

      .st32 {
        stroke-dasharray: 9.24 9.24;
      }

      .st33 {
        stroke: #bcbdbf;
      }

      .st34 {
        stroke-dasharray: 11.23 11.23;
      }

      .st39 {
        fill: #121f9e;
      }

      .st35 {
        stroke-dasharray: 10.33 10.33;
      }

      .st36 {
        stroke-dasharray: 9.24 9.24;
      }

      .st37 {
        stroke-dasharray: 11.06 11.06;
      }
    </style>
  </defs>
  <g>
    <g>
      <g>
        <g>
          <line class="st11" x1="538.08" y1="297.79" x2="532.08" y2="297.79"/>
          <line class="st5" x1="520.32" y1="297.79" x2="173.47" y2="297.79"/>
          <line class="st11" x1="167.59" y1="297.79" x2="161.59" y2="297.79"/>
        </g>
        <g>
          <line class="st11" x1="1304.62" y1="297.79" x2="1298.62" y2="297.79"/>
          <line class="st27" x1="1286.79" y1="297.79" x2="606.1" y2="297.79"/>
          <line class="st11" x1="600.18" y1="297.79" x2="594.18" y2="297.79"/>
        </g>
        <g>
          <line class="st11" x1="1759.9" y1="297.79" x2="1753.9" y2="297.79"/>
          <line class="st6" x1="1742.17" y1="297.79" x2="1372.69" y2="297.79"/>
          <line class="st11" x1="1366.83" y1="297.79" x2="1360.83" y2="297.79"/>
        </g>
        <g>
          <path class="st39" d="M104.6,289.07c0-1.4.35-2.81,1.05-4.25.7-1.44,1.92-2.77,3.66-3.99,1.74-1.22,3.86-1.81,6.34-1.77,2.7,0,4.67.59,5.89,1.77,1.22,1.18,1.85,2.49,1.9,3.92,0,1.4-.37,2.42-1.11,3.07-.74.65-1.57,1-2.49,1.05-.57,0-1.09-.17-1.57-.52-.48-.35-.74-.92-.78-1.7,0-.7.2-1.31.59-1.83.39-.52.76-.92,1.11-1.18.35-.26.63-.39.85-.39.04,0,.07-.02.07-.07,0-.13-.15-.33-.46-.59-.31-.26-.85-.5-1.64-.72-.79-.22-1.64-.35-2.55-.39-2.09,0-3.62.57-4.58,1.7-.96,1.13-1.46,2.29-1.5,3.47,0,1.09.41,1.85,1.24,2.29.83.44,2.03.81,3.6,1.11,1.57.31,2.7.63,3.4.98,2.88,1.26,4.32,3.36,4.32,6.28,0,1.22-.24,2.44-.72,3.66-.48,1.22-1.2,2.44-2.16,3.66-.96,1.22-2.33,2.18-4.12,2.88-1.79.7-3.84,1.07-6.15,1.11-3.36,0-5.73-.63-7.13-1.9-1.4-1.26-2.11-2.75-2.16-4.45,0-1.7.46-2.92,1.37-3.66.92-.74,1.88-1.11,2.88-1.11.65,0,1.26.2,1.83.59.57.39.87,1.07.92,2.03,0,1.13-.39,2.09-1.18,2.88-.79.78-1.46,1.18-2.03,1.18-.09.04-.15.07-.2.07s-.07.04-.07.13c.04.13.22.31.52.52s.98.5,2.03.85c1.05.35,2.25.5,3.6.46,1.57,0,2.92-.24,4.06-.72s1.96-1.09,2.49-1.83c.52-.74.89-1.42,1.11-2.03.22-.61.33-1.16.33-1.64,0-1.22-.46-2.14-1.37-2.75-.92-.61-1.96-.98-3.14-1.11-1.18-.13-2.46-.46-3.86-.98-1.4-.52-2.42-1.29-3.07-2.29-.74-1.09-1.11-2.35-1.11-3.79Z"/>
          <path class="st39" d="M126.19,295.06c1.32-1.91,3.12-2.86,5.41-2.86,1.13,0,2.26.31,3.39.92,1.13.61,2.05,1.7,2.76,3.25.87,1.96,1.31,4.64,1.31,8.06,0,3.65-.51,6.45-1.52,8.38-.47.99-1.12,1.78-1.95,2.37-.82.59-1.54.95-2.16,1.1-.61.14-1.21.22-1.8.25-.61,0-1.23-.07-1.84-.21-.61-.14-1.33-.52-2.16-1.13-.83-.61-1.47-1.4-1.95-2.37-1.01-1.93-1.52-4.73-1.52-8.38,0-4.1.67-7.23,2.02-9.37ZM134.14,294.64c-.71-.75-1.54-1.13-2.51-1.13s-1.84.38-2.55,1.13c-.59.61-.98,1.46-1.17,2.55-.19,1.08-.28,3.35-.28,6.79,0,3.72.09,6.18.28,7.36.19,1.18.61,2.11,1.27,2.79.66.71,1.47,1.06,2.44,1.06s1.74-.35,2.4-1.06c.68-.71,1.11-1.7,1.27-2.97.17-1.27.26-3.67.28-7.18,0-3.42-.09-5.67-.28-6.75-.19-1.08-.58-1.94-1.17-2.58Z"/>
        </g>
      </g>
      <g>
        <g>
          <line class="st11" x1="346.42" y1="394.53" x2="340.42" y2="394.53"/>
          <line class="st30" x1="328.9" y1="394.53" x2="173.35" y2="394.53"/>
          <line class="st11" x1="167.59" y1="394.53" x2="161.59" y2="394.53"/>
        </g>
        <g>
          <line class="st11" x1="729.74" y1="394.53" x2="723.74" y2="394.53"/>
          <line class="st12" x1="712.07" y1="394.53" x2="414.34" y2="394.53"/>
          <line class="st11" x1="408.5" y1="394.53" x2="402.5" y2="394.53"/>
        </g>
        <g>
          <line class="st11" x1="1113.07" y1="394.53" x2="1107.07" y2="394.53"/>
          <line class="st29" x1="1095.39" y1="394.53" x2="797.68" y2="394.53"/>
          <line class="st11" x1="791.84" y1="394.53" x2="785.84" y2="394.53"/>
        </g>
        <g>
          <line class="st11" x1="1496.39" y1="394.53" x2="1490.39" y2="394.53"/>
          <line class="st21" x1="1478.71" y1="394.53" x2="1180.99" y2="394.53"/>
          <line class="st11" x1="1175.15" y1="394.53" x2="1169.15" y2="394.53"/>
        </g>
        <g>
          <line class="st11" x1="1759.9" y1="394.53" x2="1753.9" y2="394.53"/>
          <line class="st2" x1="1742.4" y1="394.53" x2="1564.23" y2="394.53"/>
          <line class="st11" x1="1558.49" y1="394.53" x2="1552.49" y2="394.53"/>
        </g>
        <g>
          <path class="st39" d="M111.1,386.23c0-1.4.35-2.81,1.05-4.25.7-1.44,1.92-2.77,3.66-3.99,1.74-1.22,3.86-1.81,6.34-1.77,2.7,0,4.67.59,5.89,1.77,1.22,1.18,1.85,2.49,1.9,3.92,0,1.4-.37,2.42-1.11,3.07-.74.65-1.57,1-2.49,1.05-.57,0-1.09-.17-1.57-.52-.48-.35-.74-.92-.78-1.7,0-.7.2-1.31.59-1.83.39-.52.76-.92,1.11-1.18.35-.26.63-.39.85-.39.04,0,.07-.02.07-.07,0-.13-.15-.33-.46-.59-.31-.26-.85-.5-1.64-.72-.79-.22-1.64-.35-2.55-.39-2.09,0-3.62.57-4.58,1.7-.96,1.13-1.46,2.29-1.5,3.47,0,1.09.41,1.85,1.24,2.29.83.44,2.03.81,3.6,1.11,1.57.31,2.7.63,3.4.98,2.88,1.26,4.32,3.36,4.32,6.28,0,1.22-.24,2.44-.72,3.66-.48,1.22-1.2,2.44-2.16,3.66-.96,1.22-2.33,2.18-4.12,2.88-1.79.7-3.84,1.07-6.15,1.11-3.36,0-5.73-.63-7.13-1.9-1.4-1.26-2.11-2.75-2.16-4.45,0-1.7.46-2.92,1.37-3.66.92-.74,1.88-1.11,2.88-1.11.65,0,1.26.2,1.83.59.57.39.87,1.07.92,2.03,0,1.13-.39,2.09-1.18,2.88-.79.78-1.46,1.18-2.03,1.18-.09.04-.15.07-.2.07s-.07.04-.07.13c.04.13.22.31.52.52s.98.5,2.03.85c1.05.35,2.25.5,3.6.46,1.57,0,2.92-.24,4.06-.72s1.96-1.09,2.49-1.83c.52-.74.89-1.42,1.11-2.03.22-.61.33-1.16.33-1.64,0-1.22-.46-2.14-1.37-2.75-.92-.61-1.96-.98-3.14-1.11-1.18-.13-2.46-.46-3.86-.98-1.4-.52-2.42-1.29-3.07-2.29-.74-1.09-1.11-2.35-1.11-3.79Z"/>
          <path class="st39" d="M136.37,392.92l-.45.17c-.32.11-.78.23-1.38.34-.6.11-1.26.2-2,.24h-.65v-1.58h.65c1.08-.05,2.08-.22,3-.52.92-.3,1.56-.57,1.93-.83.37-.25.69-.51.96-.76.05-.07.18-.1.41-.1.21,0,.4.07.59.21v10.3s.03,10.33.03,10.33c.16.16.3.26.41.31.11.05.39.09.83.14.44.05,1.15.07,2.14.07h.9v1.58h-.38c-.48-.07-2.31-.1-5.48-.1s-4.93.03-5.41.1h-.41v-1.58h.9c.51,0,.94,0,1.31,0s.65-.01.86-.03c.21-.02.39-.06.55-.1.16-.05.25-.07.28-.07s.09-.06.21-.17c.11-.11.18-.16.21-.14v-17.81Z"/>
        </g>
      </g>
      <g>
        <g>
          <line class="st11" x1="250.59" y1="489.54" x2="244.59" y2="489.54"/>
          <line class="st17" x1="233.59" y1="489.54" x2="173.09" y2="489.54"/>
          <line class="st11" x1="167.59" y1="489.54" x2="161.59" y2="489.54"/>
        </g>
        <g>
          <line class="st11" x1="442.25" y1="489.54" x2="436.25" y2="489.54"/>
          <line class="st22" x1="425.02" y1="489.54" x2="318.3" y2="489.54"/>
          <line class="st11" x1="312.69" y1="489.54" x2="306.69" y2="489.54"/>
        </g>
        <g>
          <line class="st11" x1="633.91" y1="489.54" x2="627.91" y2="489.54"/>
          <line class="st31" x1="616.68" y1="489.54" x2="509.97" y2="489.54"/>
          <line class="st11" x1="504.35" y1="489.54" x2="498.35" y2="489.54"/>
        </g>
        <g>
          <line class="st11" x1="825.57" y1="489.54" x2="819.57" y2="489.54"/>
          <line class="st34" x1="808.34" y1="489.54" x2="701.63" y2="489.54"/>
          <line class="st11" x1="696.01" y1="489.54" x2="690.01" y2="489.54"/>
        </g>
        <g>
          <line class="st11" x1="1017.24" y1="489.54" x2="1011.24" y2="489.54"/>
          <line class="st8" x1="1000" y1="489.54" x2="893.29" y2="489.54"/>
          <line class="st11" x1="887.67" y1="489.54" x2="881.67" y2="489.54"/>
        </g>
        <g>
          <line class="st11" x1="1208.9" y1="489.54" x2="1202.9" y2="489.54"/>
          <line class="st8" x1="1191.66" y1="489.54" x2="1084.95" y2="489.54"/>
          <line class="st11" x1="1079.33" y1="489.54" x2="1073.33" y2="489.54"/>
        </g>
        <g>
          <line class="st11" x1="1400.56" y1="489.54" x2="1394.56" y2="489.54"/>
          <line class="st8" x1="1383.33" y1="489.54" x2="1276.61" y2="489.54"/>
          <line class="st11" x1="1270.99" y1="489.54" x2="1264.99" y2="489.54"/>
        </g>
        <g>
          <line class="st11" x1="1592.22" y1="489.54" x2="1586.22" y2="489.54"/>
          <line class="st3" x1="1574.99" y1="489.54" x2="1468.27" y2="489.54"/>
          <line class="st11" x1="1462.66" y1="489.54" x2="1456.66" y2="489.54"/>
        </g>
        <g>
          <line class="st11" x1="1759.9" y1="489.54" x2="1753.9" y2="489.54"/>
          <line class="st37" x1="1742.83" y1="489.54" x2="1659.85" y2="489.54"/>
          <line class="st11" x1="1654.32" y1="489.54" x2="1648.32" y2="489.54"/>
        </g>
        <g>
          <path class="st39" d="M110.04,481.31c0-1.4.35-2.81,1.05-4.25.7-1.44,1.92-2.77,3.66-3.99,1.74-1.22,3.86-1.81,6.34-1.77,2.7,0,4.67.59,5.89,1.77,1.22,1.18,1.85,2.49,1.9,3.92,0,1.4-.37,2.42-1.11,3.07-.74.65-1.57,1-2.49,1.05-.57,0-1.09-.17-1.57-.52-.48-.35-.74-.92-.78-1.7,0-.7.2-1.31.59-1.83.39-.52.76-.92,1.11-1.18.35-.26.63-.39.85-.39.04,0,.07-.02.07-.07,0-.13-.15-.33-.46-.59-.31-.26-.85-.5-1.64-.72-.79-.22-1.64-.35-2.55-.39-2.09,0-3.62.57-4.58,1.7-.96,1.13-1.46,2.29-1.5,3.47,0,1.09.41,1.85,1.24,2.29.83.44,2.03.81,3.6,1.11,1.57.31,2.7.63,3.4.98,2.88,1.26,4.32,3.36,4.32,6.28,0,1.22-.24,2.44-.72,3.66-.48,1.22-1.2,2.44-2.16,3.66-.96,1.22-2.33,2.18-4.12,2.88-1.79.7-3.84,1.07-6.15,1.11-3.36,0-5.73-.63-7.13-1.9-1.4-1.26-2.11-2.75-2.16-4.45,0-1.7.46-2.92,1.37-3.66.92-.74,1.88-1.11,2.88-1.11.65,0,1.26.2,1.83.59.57.39.87,1.07.92,2.03,0,1.13-.39,2.09-1.18,2.88-.79.78-1.46,1.18-2.03,1.18-.09.04-.15.07-.2.07s-.07.04-.07.13c.04.13.22.31.52.52s.98.5,2.03.85c1.05.35,2.25.5,3.6.46,1.57,0,2.92-.24,4.06-.72s1.96-1.09,2.49-1.83c.52-.74.89-1.42,1.11-2.03.22-.61.33-1.16.33-1.64,0-1.22-.46-2.14-1.37-2.75-.92-.61-1.96-.98-3.14-1.11-1.18-.13-2.46-.46-3.86-.98-1.4-.52-2.42-1.29-3.07-2.29-.74-1.09-1.11-2.35-1.11-3.79Z"/>
          <path class="st39" d="M132.89,492.74c-.63,0-1.13-.21-1.51-.63-.37-.42-.56-.93-.56-1.54,0-1.66.62-3.1,1.86-4.31,1.24-1.22,2.78-1.82,4.63-1.82,2.13,0,3.9.65,5.33,1.96,1.43,1.31,2.15,3,2.17,5.08,0,1-.23,1.96-.7,2.87-.47.91-1.03,1.71-1.68,2.38-.65.68-1.59,1.54-2.8,2.59-.84.72-2.01,1.8-3.51,3.23l-2.07,1.96,2.66.04c3.67,0,5.62-.06,5.85-.18.16-.05.44-1.09.84-3.12v-.11h1.4v.11c-.02.07-.18,1.13-.46,3.19-.28,2.06-.46,3.13-.53,3.23v.11h-13.01v-.67s0-.42,0-.42c0-.16.07-.34.21-.53.14-.19.49-.6,1.05-1.23.68-.75,1.26-1.4,1.75-1.96.21-.23.61-.67,1.19-1.3.58-.63.98-1.06,1.19-1.3.21-.23.55-.62,1.02-1.16.47-.54.79-.93.98-1.19.19-.26.46-.61.81-1.05.35-.44.6-.82.74-1.12s.32-.64.53-1.02c.21-.37.36-.75.46-1.12.09-.37.18-.72.25-1.05.07-.33.11-.71.11-1.16,0-1.47-.4-2.75-1.19-3.82-.79-1.08-1.93-1.61-3.4-1.61-.77,0-1.45.2-2.03.6-.58.4-.99.78-1.23,1.16-.23.37-.35.6-.35.67s.06.04.18.04c.42,0,.85.16,1.3.49.44.33.67.86.67,1.61,0,.58-.19,1.07-.56,1.47-.37.4-.9.61-1.58.63Z"/>
        </g>
      </g>
      <g>
        <g>
          <line class="st11" x1="202.68" y1="586.41" x2="196.68" y2="586.41"/>
          <line class="st9" x1="186.98" y1="586.41" x2="172.44" y2="586.41"/>
          <line class="st11" x1="167.59" y1="586.41" x2="161.59" y2="586.41"/>
        </g>
        <g>
          <line class="st11" x1="298.51" y1="586.41" x2="292.51" y2="586.41"/>
          <line class="st0" x1="283.26" y1="586.41" x2="269.39" y2="586.41"/>
          <line class="st11" x1="264.77" y1="586.41" x2="258.77" y2="586.41"/>
        </g>
        <g>
          <line class="st11" x1="394.34" y1="586.41" x2="388.34" y2="586.41"/>
          <line class="st28" x1="379.09" y1="586.41" x2="365.23" y2="586.41"/>
          <line class="st11" x1="360.6" y1="586.41" x2="354.6" y2="586.41"/>
        </g>
        <g>
          <line class="st11" x1="490.17" y1="586.41" x2="484.17" y2="586.41"/>
          <line class="st15" x1="474.92" y1="586.41" x2="461.06" y2="586.41"/>
          <line class="st11" x1="456.43" y1="586.41" x2="450.43" y2="586.41"/>
        </g>
        <g>
          <line class="st11" x1="586" y1="586.41" x2="580" y2="586.41"/>
          <line class="st36" x1="570.75" y1="586.41" x2="556.89" y2="586.41"/>
          <line class="st11" x1="552.26" y1="586.41" x2="546.26" y2="586.41"/>
        </g>
        <g>
          <line class="st11" x1="681.83" y1="586.41" x2="675.83" y2="586.41"/>
          <line class="st4" x1="666.58" y1="586.41" x2="652.72" y2="586.41"/>
          <line class="st11" x1="648.1" y1="586.41" x2="642.1" y2="586.41"/>
        </g>
        <g>
          <line class="st11" x1="777.66" y1="586.41" x2="771.66" y2="586.41"/>
          <line class="st32" x1="762.41" y1="586.41" x2="748.55" y2="586.41"/>
          <line class="st11" x1="743.93" y1="586.41" x2="737.93" y2="586.41"/>
        </g>
        <g>
          <line class="st11" x1="873.49" y1="586.41" x2="867.49" y2="586.41"/>
          <line class="st10" x1="858.25" y1="586.41" x2="844.38" y2="586.41"/>
          <line class="st11" x1="839.76" y1="586.41" x2="833.76" y2="586.41"/>
        </g>
        <g>
          <line class="st11" x1="969.32" y1="586.41" x2="963.32" y2="586.41"/>
          <line class="st13" x1="954.08" y1="586.41" x2="940.21" y2="586.41"/>
          <line class="st11" x1="935.59" y1="586.41" x2="929.59" y2="586.41"/>
        </g>
        <g>
          <line class="st11" x1="1065.15" y1="586.41" x2="1059.15" y2="586.41"/>
          <line class="st25" x1="1049.91" y1="586.41" x2="1036.04" y2="586.41"/>
          <line class="st11" x1="1031.42" y1="586.41" x2="1025.42" y2="586.41"/>
        </g>
        <g>
          <line class="st11" x1="1160.98" y1="586.41" x2="1154.98" y2="586.41"/>
          <line class="st18" x1="1145.74" y1="586.41" x2="1131.87" y2="586.41"/>
          <line class="st11" x1="1127.25" y1="586.41" x2="1121.25" y2="586.41"/>
        </g>
        <g>
          <line class="st11" x1="1256.81" y1="586.41" x2="1250.81" y2="586.41"/>
          <line class="st23" x1="1241.57" y1="586.41" x2="1227.7" y2="586.41"/>
          <line class="st11" x1="1223.08" y1="586.41" x2="1217.08" y2="586.41"/>
        </g>
        <g>
          <line class="st11" x1="1352.64" y1="586.41" x2="1346.64" y2="586.41"/>
          <line class="st23" x1="1337.4" y1="586.41" x2="1323.53" y2="586.41"/>
          <line class="st11" x1="1318.91" y1="586.41" x2="1312.91" y2="586.41"/>
        </g>
        <g>
          <line class="st11" x1="1448.47" y1="586.41" x2="1442.47" y2="586.41"/>
          <line class="st4" x1="1433.23" y1="586.41" x2="1419.36" y2="586.41"/>
          <line class="st11" x1="1414.74" y1="586.41" x2="1408.74" y2="586.41"/>
        </g>
        <g>
          <line class="st11" x1="1544.31" y1="586.41" x2="1538.31" y2="586.41"/>
          <line class="st7" x1="1529.06" y1="586.41" x2="1515.19" y2="586.41"/>
          <line class="st11" x1="1510.57" y1="586.41" x2="1504.57" y2="586.41"/>
        </g>
        <g>
          <line class="st11" x1="1640.14" y1="586.41" x2="1634.14" y2="586.41"/>
          <line class="st16" x1="1624.89" y1="586.41" x2="1611.02" y2="586.41"/>
          <line class="st11" x1="1606.4" y1="586.41" x2="1600.4" y2="586.41"/>
        </g>
        <g>
          <line class="st11" x1="1759.9" y1="586.41" x2="1753.9" y2="586.41"/>
          <line class="st35" x1="1743.57" y1="586.41" x2="1707.4" y2="586.41"/>
          <line class="st11" x1="1702.23" y1="586.41" x2="1696.23" y2="586.41"/>
        </g>
        <g>
          <path class="st39" d="M109.76,577.79c0-1.4.35-2.81,1.05-4.25.7-1.44,1.92-2.77,3.66-3.99,1.74-1.22,3.86-1.81,6.34-1.77,2.7,0,4.67.59,5.89,1.77,1.22,1.18,1.85,2.49,1.9,3.92,0,1.4-.37,2.42-1.11,3.07-.74.65-1.57,1-2.49,1.05-.57,0-1.09-.17-1.57-.52-.48-.35-.74-.92-.78-1.7,0-.7.2-1.31.59-1.83.39-.52.76-.92,1.11-1.18.35-.26.63-.39.85-.39.04,0,.07-.02.07-.07,0-.13-.15-.33-.46-.59-.31-.26-.85-.5-1.64-.72-.79-.22-1.64-.35-2.55-.39-2.09,0-3.62.57-4.58,1.7-.96,1.13-1.46,2.29-1.5,3.47,0,1.09.41,1.85,1.24,2.29.83.44,2.03.81,3.6,1.11,1.57.31,2.7.63,3.4.98,2.88,1.26,4.32,3.36,4.32,6.28,0,1.22-.24,2.44-.72,3.66-.48,1.22-1.2,2.44-2.16,3.66-.96,1.22-2.33,2.18-4.12,2.88-1.79.7-3.84,1.07-6.15,1.11-3.36,0-5.73-.63-7.13-1.9-1.4-1.26-2.11-2.75-2.16-4.45,0-1.7.46-2.92,1.37-3.66.92-.74,1.88-1.11,2.88-1.11.65,0,1.26.2,1.83.59.57.39.87,1.07.92,2.03,0,1.13-.39,2.09-1.18,2.88-.79.78-1.46,1.18-2.03,1.18-.09.04-.15.07-.2.07s-.07.04-.07.13c.04.13.22.31.52.52s.98.5,2.03.85c1.05.35,2.25.5,3.6.46,1.57,0,2.92-.24,4.06-.72s1.96-1.09,2.49-1.83c.52-.74.89-1.42,1.11-2.03.22-.61.33-1.16.33-1.64,0-1.22-.46-2.14-1.37-2.75-.92-.61-1.96-.98-3.14-1.11-1.18-.13-2.46-.46-3.86-.98-1.4-.52-2.42-1.29-3.07-2.29-.74-1.09-1.11-2.35-1.11-3.79Z"/>
          <path class="st39" d="M133.52,588.04c-.63,0-1.12-.2-1.47-.6-.35-.4-.54-.91-.56-1.54,0-1.29.56-2.43,1.68-3.44,1.12-1,2.48-1.51,4.07-1.51.82,0,1.33.01,1.54.04,1.73.28,3.05.9,3.96,1.86.91.96,1.38,2,1.4,3.12,0,1.22-.4,2.4-1.19,3.54-.79,1.15-1.89,1.97-3.3,2.49l-.11.07s.11.06.32.11c.21.05.55.15,1.02.32.47.16.91.41,1.33.74,1.92,1.24,2.87,2.87,2.87,4.91,0,1.85-.72,3.46-2.17,4.84-1.45,1.38-3.28,2.07-5.5,2.07-1.87,0-3.48-.5-4.84-1.51-1.36-1-2.03-2.28-2.03-3.82,0-.65.21-1.18.63-1.58.42-.4.95-.61,1.58-.63.65,0,1.19.21,1.61.63.42.42.63.95.63,1.58,0,.26-.04.49-.11.7-.07.21-.15.4-.25.56-.09.16-.22.3-.39.42s-.3.21-.42.28c-.12.07-.23.12-.35.14-.12.02-.21.06-.28.11l-.14.04c1.19,1.05,2.64,1.58,4.35,1.58,1.29,0,2.26-.62,2.91-1.86.4-.77.6-1.95.6-3.54v-.7c0-2.22-.75-3.7-2.24-4.45-.35-.14-1.06-.22-2.14-.25l-1.47-.04-.11-.07c-.05-.07-.07-.26-.07-.56,0-.42.09-.63.28-.63.65,0,1.33-.06,2.03-.18.79-.12,1.52-.61,2.17-1.47.65-.86.98-2.17.98-3.93v-.28c0-1.33-.41-2.26-1.23-2.77-.51-.33-1.06-.49-1.65-.49-.75,0-1.44.13-2.07.39-.63.26-1.07.53-1.33.81-.26.28-.39.42-.39.42h.11c.07.02.16.05.28.07.12.02.23.08.35.18.12.09.26.18.42.25.16.07.28.2.35.39.07.19.16.36.28.53.12.16.15.4.11.7,0,.51-.16.97-.49,1.37-.33.4-.85.61-1.58.63Z"/>
        </g>
      </g>
    </g>
    <g>
      <polyline class="st20" points="1668.18 586.41 1620.27 489.54 1524.44 394.53 1332.78 297.79 949.45 173.1 566.13 297.79 374.47 394.53 278.64 489.54 230.72 586.41"/>
      <polyline class="st20" points="1332.78 297.79 1141.12 394.53 1045.28 489.54 997.37 586.41"/>
      <polyline class="st20" points="1141.12 394.53 1236.95 489.54 1284.86 586.41"/>
      <line class="st20" x1="1236.95" y1="489.54" x2="1189.03" y2="586.41"/>
      <line class="st20" x1="1045.28" y1="489.54" x2="1093.2" y2="586.41"/>
      <polyline class="st20" points="1524.44 394.53 1428.61 489.54 1380.69 586.41"/>
      <line class="st20" x1="1428.61" y1="489.54" x2="1476.52" y2="586.41"/>
      <line class="st20" x1="1620.27" y1="489.54" x2="1572.35" y2="586.41"/>
      <polyline class="st33" points="566.13 297.79 757.79 394.53 853.62 489.54 901.54 586.41"/>
      <polyline class="st33" points="757.79 394.53 661.96 489.54 614.05 586.41"/>
      <line class="st20" x1="661.96" y1="489.54" x2="709.88" y2="586.41"/>
      <line class="st20" x1="853.62" y1="489.54" x2="805.71" y2="586.41"/>
      <polyline class="st20" points="374.47 394.53 470.3 489.54 518.22 586.41"/>
      <line class="st20" x1="278.64" y1="489.54" x2="326.55" y2="586.41"/>
      <line class="st20" x1="470.3" y1="489.54" x2="422.39" y2="586.41"/>
    </g>
    <g>
      <g>
        <line class="st19" x1="649.53" y1="514.68" x2="631.57" y2="550.97"/>
        <polygon class="st39" points="625.46 545.34 626.48 561.27 639.76 552.42 625.46 545.34"/>
      </g>
      <g>
        <line class="st19" x1="737.88" y1="414.27" x2="689.98" y2="461.76"/>
        <polygon class="st39" points="686.02 454.45 681.83 469.84 697.26 465.78 686.02 454.45"/>
      </g>
      <g>
        <line class="st19" x1="591.26" y1="310.47" x2="721.68" y2="376.3"/>
        <polygon class="st39" points="716 382.37 731.93 381.47 723.19 368.12 716 382.37"/>
      </g>
      <g>
        <line class="st19" x1="949.45" y1="173.1" x2="603.72" y2="285.57"/>
        <polygon class="st39" points="603.48 277.26 592.81 289.12 608.41 292.43 603.48 277.26"/>
      </g>
    </g>
    <g>
      <g>
        <line class="st19" x1="1307.74" y1="310.43" x2="1176.63" y2="376.6"/>
        <polygon class="st39" points="1175.12 368.43 1166.38 381.77 1182.31 382.67 1175.12 368.43"/>
      </g>
      <g>
        <line class="st19" x1="949.45" y1="173.1" x2="1293.81" y2="285.12"/>
        <polygon class="st39" points="1289.12 291.98 1304.73 288.67 1294.06 276.81 1289.12 291.98"/>
      </g>
      <g>
        <line class="st19" x1="1332.78" y1="297.79" x2="1488.92" y2="376.6"/>
        <polygon class="st39" points="1483.25 382.67 1499.17 381.77 1490.44 368.43 1483.25 382.67"/>
      </g>
      <g>
        <line class="st19" x1="674.4" y1="514.68" x2="692.35" y2="550.98"/>
        <polygon class="st39" points="684.16 552.42 697.44 561.27 698.47 545.35 684.16 552.42"/>
      </g>
      <g>
        <circle class="st26" cx="1668.18" cy="586.41" r="28.05"/>
        <path class="st38" d="M1668.18,604.92c-3.45,0-6.04-.92-7.75-2.78-1.72-1.85-2.58-4.35-2.58-7.51v-16.46c0-3.2.87-5.72,2.62-7.54,1.74-1.83,4.31-2.74,7.72-2.74s6,.91,7.73,2.73c1.73,1.82,2.6,4.34,2.6,7.56v16.46c0,3.2-.87,5.72-2.6,7.54-1.74,1.83-4.31,2.74-7.73,2.74ZM1668.18,600.09c1.86,0,3.2-.48,4.02-1.46.82-.97,1.23-2.3,1.23-4v-16.46c0-1.71-.41-3.05-1.23-4.01-.82-.96-2.16-1.44-4.02-1.44s-3.2.48-4.02,1.44c-.82.96-1.23,2.3-1.23,4.01v16.46c0,1.69.41,3.03,1.23,4,.82.97,2.16,1.46,4.02,1.46Z"/>
      </g>
      <g>
        <circle class="st26" cx="1572.35" cy="586.41" r="28.05"/>
        <path class="st38" d="M1575.9,569.11v34.59h-4.85v-29.44s-5.95,3.14-5.95,3.14v-5.15s5.95-3.14,5.95-3.14h4.85Z"/>
      </g>
      <g>
        <circle class="st26" cx="1380.69" cy="586.41" r="28.05"/>
        <path class="st38" d="M1384.24,569.11v34.59h-4.85v-29.44s-5.95,3.14-5.95,3.14v-5.15s5.95-3.14,5.95-3.14h4.85Z"/>
      </g>
      <g>
        <circle class="st26" cx="1428.61" cy="489.54" r="28.05"/>
        <path class="st38" d="M1432.15,472.25v34.59h-4.85v-29.44s-5.95,3.14-5.95,3.14v-5.15s5.95-3.14,5.95-3.14h4.85Z"/>
      </g>
      <g>
        <circle class="st1" cx="1141.12" cy="393.97" r="28.05"/>
        <path class="st38" d="M1144.66,376.68v34.59h-4.85v-29.44s-5.95,3.14-5.95,3.14v-5.15s5.95-3.14,5.95-3.14h4.85Z"/>
      </g>
      <g>
        <circle class="st26" cx="374.47" cy="393.97" r="28.05"/>
        <path class="st38" d="M378.02,376.68v34.59h-4.85v-29.44s-5.95,3.14-5.95,3.14v-5.15s5.95-3.14,5.95-3.14h4.85Z"/>
      </g>
      <g>
        <circle class="st1" cx="566.13" cy="297.79" r="28.05"/>
        <path class="st38" d="M569.68,280.5v34.59h-4.85v-29.44s-5.95,3.14-5.95,3.14v-5.15s5.95-3.14,5.95-3.14h4.85Z"/>
      </g>
      <g>
        <circle class="st26" cx="1045.28" cy="489.54" r="28.05"/>
        <path class="st38" d="M1048.83,472.25v34.59h-4.85v-29.44s-5.95,3.14-5.95,3.14v-5.15s5.95-3.14,5.95-3.14h4.85Z"/>
      </g>
      <g>
        <circle class="st1" cx="661.96" cy="489.54" r="28.05"/>
        <path class="st38" d="M665.51,472.25v34.59h-4.85v-29.44s-5.95,3.14-5.95,3.14v-5.15s5.95-3.14,5.95-3.14h4.85Z"/>
      </g>
      <g>
        <circle class="st26" cx="278.64" cy="489.54" r="28.05"/>
        <path class="st38" d="M282.19,472.25v34.59h-4.85v-29.44s-5.95,3.14-5.95,3.14v-5.15s5.95-3.14,5.95-3.14h4.85Z"/>
      </g>
      <g>
        <circle class="st1" cx="1524.44" cy="394.53" r="28.05"/>
        <path class="st38" d="M1524.44,413.04c-3.45,0-6.04-.92-7.75-2.78-1.72-1.85-2.58-4.35-2.58-7.51v-16.46c0-3.2.87-5.72,2.62-7.54,1.74-1.83,4.31-2.74,7.72-2.74s6,.91,7.73,2.73c1.73,1.82,2.6,4.34,2.6,7.56v16.46c0,3.2-.87,5.72-2.6,7.54-1.74,1.83-4.31,2.74-7.73,2.74ZM1524.44,408.21c1.86,0,3.2-.48,4.02-1.46.82-.97,1.23-2.3,1.23-4v-16.46c0-1.71-.41-3.05-1.23-4.01-.82-.96-2.16-1.44-4.02-1.44s-3.2.48-4.02,1.44c-.82.96-1.23,2.3-1.23,4.01v16.46c0,1.69.41,3.03,1.23,4,.82.97,2.16,1.46,4.02,1.46Z"/>
      </g>
      <g>
        <circle class="st1" cx="757.79" cy="394.53" r="28.05"/>
        <path class="st38" d="M757.79,413.04c-3.45,0-6.04-.92-7.75-2.78-1.72-1.85-2.58-4.35-2.58-7.51v-16.46c0-3.2.87-5.72,2.62-7.54,1.74-1.83,4.31-2.74,7.72-2.74s6,.91,7.73,2.73c1.73,1.82,2.6,4.34,2.6,7.56v16.46c0,3.2-.87,5.72-2.6,7.54-1.74,1.83-4.31,2.74-7.73,2.74ZM757.79,408.21c1.86,0,3.2-.48,4.02-1.46.82-.97,1.23-2.3,1.23-4v-16.46c0-1.71-.41-3.05-1.23-4.01-.82-.96-2.16-1.44-4.02-1.44s-3.2.48-4.02,1.44c-.82.96-1.23,2.3-1.23,4.01v16.46c0,1.69.41,3.03,1.23,4,.82.97,2.16,1.46,4.02,1.46Z"/>
      </g>
      <g>
        <circle class="st26" cx="1620.27" cy="489.54" r="28.05"/>
        <path class="st38" d="M1620.27,508.05c-3.45,0-6.04-.92-7.75-2.78-1.72-1.85-2.58-4.35-2.58-7.51v-16.46c0-3.2.87-5.72,2.62-7.54,1.74-1.83,4.31-2.74,7.72-2.74s6,.91,7.73,2.73c1.73,1.82,2.6,4.34,2.6,7.56v16.46c0,3.2-.87,5.72-2.6,7.54-1.74,1.83-4.31,2.74-7.73,2.74ZM1620.27,503.22c1.86,0,3.2-.48,4.02-1.46.82-.97,1.23-2.3,1.23-4v-16.46c0-1.71-.41-3.05-1.23-4.01-.82-.96-2.16-1.44-4.02-1.44s-3.2.48-4.02,1.44c-.82.96-1.23,2.3-1.23,4.01v16.46c0,1.69.41,3.03,1.23,4,.82.97,2.16,1.46,4.02,1.46Z"/>
      </g>
      <g>
        <circle class="st26" cx="1236.95" cy="489.54" r="28.05"/>
        <path class="st38" d="M1236.95,508.05c-3.45,0-6.04-.92-7.75-2.78-1.72-1.85-2.58-4.35-2.58-7.51v-16.46c0-3.2.87-5.72,2.62-7.54,1.74-1.83,4.31-2.74,7.72-2.74s6,.91,7.73,2.73c1.73,1.82,2.6,4.34,2.6,7.56v16.46c0,3.2-.87,5.72-2.6,7.54-1.74,1.83-4.31,2.74-7.73,2.74ZM1236.95,503.22c1.86,0,3.2-.48,4.02-1.46.82-.97,1.23-2.3,1.23-4v-16.46c0-1.71-.41-3.05-1.23-4.01-.82-.96-2.16-1.44-4.02-1.44s-3.2.48-4.02,1.44c-.82.96-1.23,2.3-1.23,4.01v16.46c0,1.69.41,3.03,1.23,4,.82.97,2.16,1.46,4.02,1.46Z"/>
      </g>
      <g>
        <circle class="st26" cx="853.62" cy="489.54" r="28.05"/>
        <path class="st38" d="M853.62,508.05c-3.45,0-6.04-.92-7.75-2.78-1.72-1.85-2.58-4.35-2.58-7.51v-16.46c0-3.2.87-5.72,2.62-7.54,1.74-1.83,4.31-2.74,7.72-2.74s6,.91,7.73,2.73c1.73,1.82,2.6,4.34,2.6,7.56v16.46c0,3.2-.87,5.72-2.6,7.54-1.74,1.83-4.31,2.74-7.73,2.74ZM853.62,503.22c1.86,0,3.2-.48,4.02-1.46.82-.97,1.23-2.3,1.23-4v-16.46c0-1.71-.41-3.05-1.23-4.01-.82-.96-2.16-1.44-4.02-1.44s-3.2.48-4.02,1.44c-.82.96-1.23,2.3-1.23,4.01v16.46c0,1.69.41,3.03,1.23,4,.82.97,2.16,1.46,4.02,1.46Z"/>
      </g>
      <g>
        <circle class="st26" cx="470.3" cy="489.54" r="28.05"/>
        <path class="st38" d="M470.3,508.05c-3.45,0-6.04-.92-7.75-2.78-1.72-1.85-2.58-4.35-2.58-7.51v-16.46c0-3.2.87-5.72,2.62-7.54,1.74-1.83,4.31-2.74,7.72-2.74s6,.91,7.73,2.73c1.73,1.82,2.6,4.34,2.6,7.56v16.46c0,3.2-.87,5.72-2.6,7.54-1.74,1.83-4.31,2.74-7.73,2.74ZM470.3,503.22c1.86,0,3.2-.48,4.02-1.46.82-.97,1.23-2.3,1.23-4v-16.46c0-1.71-.41-3.05-1.23-4.01-.82-.96-2.16-1.44-4.02-1.44s-3.2.48-4.02,1.44c-.82.96-1.23,2.3-1.23,4.01v16.46c0,1.69.41,3.03,1.23,4,.82.97,2.16,1.46,4.02,1.46Z"/>
      </g>
      <g>
        <circle class="st26" cx="1476.52" cy="586.41" r="28.05"/>
        <path class="st38" d="M1476.52,604.92c-3.45,0-6.04-.92-7.75-2.78-1.72-1.85-2.58-4.35-2.58-7.51v-16.46c0-3.2.87-5.72,2.62-7.54,1.74-1.83,4.31-2.74,7.72-2.74s6,.91,7.73,2.73c1.73,1.82,2.6,4.34,2.6,7.56v16.46c0,3.2-.87,5.72-2.6,7.54-1.74,1.83-4.31,2.74-7.73,2.74ZM1476.52,600.09c1.86,0,3.2-.48,4.02-1.46.82-.97,1.23-2.3,1.23-4v-16.46c0-1.71-.41-3.05-1.23-4.01-.82-.96-2.16-1.44-4.02-1.44s-3.2.48-4.02,1.44c-.82.96-1.23,2.3-1.23,4.01v16.46c0,1.69.41,3.03,1.23,4,.82.97,2.16,1.46,4.02,1.46Z"/>
      </g>
      <g>
        <circle class="st26" cx="1284.86" cy="586.41" r="28.05"/>
        <path class="st38" d="M1284.86,604.92c-3.45,0-6.04-.92-7.75-2.78-1.72-1.85-2.58-4.35-2.58-7.51v-16.46c0-3.2.87-5.72,2.62-7.54,1.74-1.83,4.31-2.74,7.72-2.74s6,.91,7.73,2.73c1.73,1.82,2.6,4.34,2.6,7.56v16.46c0,3.2-.87,5.72-2.6,7.54-1.74,1.83-4.31,2.74-7.73,2.74ZM1284.86,600.09c1.86,0,3.2-.48,4.02-1.46.82-.97,1.23-2.3,1.23-4v-16.46c0-1.71-.41-3.05-1.23-4.01-.82-.96-2.16-1.44-4.02-1.44s-3.2.48-4.02,1.44c-.82.96-1.23,2.3-1.23,4.01v16.46c0,1.69.41,3.03,1.23,4,.82.97,2.16,1.46,4.02,1.46Z"/>
      </g>
      <g>
        <circle class="st26" cx="1093.2" cy="586.41" r="28.05"/>
        <path class="st38" d="M1093.2,604.92c-3.45,0-6.04-.92-7.75-2.78-1.72-1.85-2.58-4.35-2.58-7.51v-16.46c0-3.2.87-5.72,2.62-7.54,1.74-1.83,4.31-2.74,7.72-2.74s6,.91,7.73,2.73c1.73,1.82,2.6,4.34,2.6,7.56v16.46c0,3.2-.87,5.72-2.6,7.54-1.74,1.83-4.31,2.74-7.73,2.74ZM1093.2,600.09c1.86,0,3.2-.48,4.02-1.46.82-.97,1.23-2.3,1.23-4v-16.46c0-1.71-.41-3.05-1.23-4.01-.82-.96-2.16-1.44-4.02-1.44s-3.2.48-4.02,1.44c-.82.96-1.23,2.3-1.23,4.01v16.46c0,1.69.41,3.03,1.23,4,.82.97,2.16,1.46,4.02,1.46Z"/>
      </g>
      <g>
        <circle class="st26" cx="901.54" cy="586.41" r="28.05"/>
        <path class="st38" d="M901.54,604.92c-3.45,0-6.04-.92-7.75-2.78-1.72-1.85-2.58-4.35-2.58-7.51v-16.46c0-3.2.87-5.72,2.62-7.54,1.74-1.83,4.31-2.74,7.72-2.74s6,.91,7.73,2.73c1.73,1.82,2.6,4.34,2.6,7.56v16.46c0,3.2-.87,5.72-2.6,7.54-1.74,1.83-4.31,2.74-7.73,2.74ZM901.54,600.09c1.86,0,3.2-.48,4.02-1.46.82-.97,1.23-2.3,1.23-4v-16.46c0-1.71-.41-3.05-1.23-4.01-.82-.96-2.16-1.44-4.02-1.44s-3.2.48-4.02,1.44c-.82.96-1.23,2.3-1.23,4.01v16.46c0,1.69.41,3.03,1.23,4,.82.97,2.16,1.46,4.02,1.46Z"/>
      </g>
      <g>
        <circle class="st1" cx="709.88" cy="586.41" r="28.05"/>
        <path class="st38" d="M709.88,604.92c-3.45,0-6.04-.92-7.75-2.78-1.72-1.85-2.58-4.35-2.58-7.51v-16.46c0-3.2.87-5.72,2.62-7.54,1.74-1.83,4.31-2.74,7.72-2.74s6,.91,7.73,2.73c1.73,1.82,2.6,4.34,2.6,7.56v16.46c0,3.2-.87,5.72-2.6,7.54-1.74,1.83-4.31,2.74-7.73,2.74ZM709.88,600.09c1.86,0,3.2-.48,4.02-1.46.82-.97,1.23-2.3,1.23-4v-16.46c0-1.71-.41-3.05-1.23-4.01-.82-.96-2.16-1.44-4.02-1.44s-3.2.48-4.02,1.44c-.82.96-1.23,2.3-1.23,4.01v16.46c0,1.69.41,3.03,1.23,4,.82.97,2.16,1.46,4.02,1.46Z"/>
      </g>
      <g>
        <circle class="st1" cx="1332.78" cy="297.79" r="28.05"/>
        <path class="st38" d="M1332.78,316.31c-3.45,0-6.04-.92-7.75-2.78-1.72-1.85-2.58-4.35-2.58-7.51v-16.46c0-3.2.87-5.72,2.62-7.54,1.74-1.83,4.31-2.74,7.72-2.74s6,.91,7.73,2.73c1.73,1.82,2.6,4.34,2.6,7.56v16.46c0,3.2-.87,5.72-2.6,7.54-1.74,1.83-4.31,2.74-7.73,2.74ZM1332.78,311.48c1.86,0,3.2-.48,4.02-1.46.82-.97,1.23-2.3,1.23-4v-16.46c0-1.71-.41-3.05-1.23-4.01-.82-.96-2.16-1.44-4.02-1.44s-3.2.48-4.02,1.44c-.82.96-1.23,2.3-1.23,4.01v16.46c0,1.69.41,3.03,1.23,4,.82.97,2.16,1.46,4.02,1.46Z"/>
      </g>
      <circle class="st14" cx="949.45" cy="173.1" r="35.5"/>
      <g>
        <circle class="st26" cx="518.22" cy="586.41" r="28.05"/>
        <path class="st38" d="M518.21,604.92c-3.45,0-6.04-.92-7.75-2.78-1.72-1.85-2.58-4.35-2.58-7.51v-16.46c0-3.2.87-5.72,2.62-7.54,1.74-1.83,4.31-2.74,7.72-2.74s6,.91,7.73,2.73c1.73,1.82,2.6,4.34,2.6,7.56v16.46c0,3.2-.87,5.72-2.6,7.54-1.74,1.83-4.31,2.74-7.73,2.74ZM518.21,600.09c1.86,0,3.2-.48,4.02-1.46.82-.97,1.23-2.3,1.23-4v-16.46c0-1.71-.41-3.05-1.23-4.01-.82-.96-2.16-1.44-4.02-1.44s-3.2.48-4.02,1.44c-.82.96-1.23,2.3-1.23,4.01v16.46c0,1.69.41,3.03,1.23,4,.82.97,2.16,1.46,4.02,1.46Z"/>
      </g>
      <g>
        <circle class="st26" cx="326.55" cy="586.41" r="28.05"/>
        <path class="st38" d="M326.55,604.92c-3.45,0-6.04-.92-7.75-2.78-1.72-1.85-2.58-4.35-2.58-7.51v-16.46c0-3.2.87-5.72,2.62-7.54,1.74-1.83,4.31-2.74,7.72-2.74s6,.91,7.73,2.73c1.73,1.82,2.6,4.34,2.6,7.56v16.46c0,3.2-.87,5.72-2.6,7.54-1.74,1.83-4.31,2.74-7.73,2.74ZM326.55,600.09c1.86,0,3.2-.48,4.02-1.46.82-.97,1.23-2.3,1.23-4v-16.46c0-1.71-.41-3.05-1.23-4.01-.82-.96-2.16-1.44-4.02-1.44s-3.2.48-4.02,1.44c-.82.96-1.23,2.3-1.23,4.01v16.46c0,1.69.41,3.03,1.23,4,.82.97,2.16,1.46,4.02,1.46Z"/>
      </g>
      <g>
        <circle class="st26" cx="1189.03" cy="586.41" r="28.05"/>
        <path class="st38" d="M1192.58,569.11v34.59h-4.85v-29.44s-5.95,3.14-5.95,3.14v-5.15s5.95-3.14,5.95-3.14h4.85Z"/>
      </g>
      <g>
        <circle class="st26" cx="997.37" cy="586.41" r="28.05"/>
        <path class="st38" d="M1000.92,569.11v34.59h-4.85v-29.44s-5.95,3.14-5.95,3.14v-5.15s5.95-3.14,5.95-3.14h4.85Z"/>
      </g>
      <g>
        <circle class="st26" cx="805.71" cy="586.41" r="28.05"/>
        <path class="st38" d="M809.25,569.11v34.59h-4.85v-29.44s-5.95,3.14-5.95,3.14v-5.15s5.95-3.14,5.95-3.14h4.85Z"/>
      </g>
      <g>
        <circle class="st1" cx="614.05" cy="586.41" r="28.05"/>
        <path class="st38" d="M617.59,569.11v34.59h-4.85v-29.44s-5.95,3.14-5.95,3.14v-5.15s5.95-3.14,5.95-3.14h4.85Z"/>
      </g>
      <g>
        <circle class="st26" cx="422.39" cy="586.41" r="28.05"/>
        <path class="st38" d="M425.93,569.11v34.59h-4.85v-29.44s-5.95,3.14-5.95,3.14v-5.15s5.95-3.14,5.95-3.14h4.85Z"/>
      </g>
      <g>
        <circle class="st26" cx="230.72" cy="586.41" r="28.05"/>
        <path class="st38" d="M234.27,569.11v34.59h-4.85v-29.44s-5.95,3.14-5.95,3.14v-5.15s5.95-3.14,5.95-3.14h4.85Z"/>
      </g>
    </g>
  </g>
  <g>
    <g>
      <g>
        <rect class="st24" x="224.72" y="81.13" width="75.97" height="75.97" rx="7.77" ry="7.77"/>
        <path class="st39" d="M262.71,134.23c-2.82,0-4.93-.76-6.33-2.27-1.4-1.51-2.1-3.55-2.1-6.13v-13.44c0-2.62.71-4.67,2.14-6.16,1.42-1.49,3.52-2.24,6.3-2.24s4.9.74,6.31,2.23c1.42,1.48,2.12,3.54,2.12,6.17v13.44c0,2.62-.71,4.67-2.12,6.16-1.42,1.49-3.52,2.24-6.31,2.24ZM262.71,130.28c1.52,0,2.61-.4,3.28-1.19.67-.79,1.01-1.88,1.01-3.26v-13.44c0-1.4-.33-2.49-1.01-3.27-.67-.79-1.77-1.18-3.28-1.18s-2.61.39-3.28,1.18c-.67.79-1.01,1.88-1.01,3.27v13.44c0,1.38.33,2.47,1.01,3.26.67.79,1.76,1.19,3.28,1.19Z"/>
      </g>
      <g>
        <rect class="st24" x="148.75" y="81.13" width="75.97" height="75.97" rx="7.77" ry="7.77"/>
        <path class="st39" d="M188.55,104.33v29.56h-4.15v-25.16s-5.08,2.68-5.08,2.68v-4.4s5.08-2.68,5.08-2.68h4.15Z"/>
      </g>
      <g>
        <rect class="st24" x="300.69" y="81.13" width="75.97" height="75.97" rx="7.77" ry="7.77"/>
        <path class="st39" d="M341.81,104.33v29.56h-4.15v-25.16s-5.08,2.68-5.08,2.68v-4.4s5.08-2.68,5.08-2.68h4.15Z"/>
      </g>
      <g>
        <rect class="st24" x="376.67" y="81.13" width="75.97" height="75.97" rx="7.77" ry="7.77"/>
        <path class="st39" d="M417.78,104.33v29.56h-4.15v-25.16s-5.08,2.68-5.08,2.68v-4.4s5.08-2.68,5.08-2.68h4.15Z"/>
      </g>
    </g>
    <g>
      <path class="st39" d="M222.37,53.31v-1.39c1.07,0,1.95-.11,2.63-.31.68-.21,1.15-.51,1.4-.91s.41-.73.47-1,.09-.62.09-1.07v-22.21c0-.85-.18-1.41-.55-1.68-.37-.27-1.36-.4-2.96-.4h-1.06v-1.39h7.51c.54,0,.88.05,1.02.14s.33.37.54.83l9.64,24.87,9.72-25c.14-.42.29-.66.42-.74s.49-.11,1.05-.11h7.51v1.39h-1.04c-1.58,0-2.54.13-2.91.4-.36.27-.54.83-.54,1.68v23.4c0,.85.18,1.42.54,1.69.36.27,1.33.41,2.91.41h1.04v1.39c-1.09-.09-3.2-.13-6.31-.13s-5.27.04-6.36.13v-1.39h1.06c1.58,0,2.54-.13,2.9-.4s.53-.83.53-1.7v-25.48h-.04l-10.92,28.12c-.2.56-.47.85-.8.85-.36,0-.66-.33-.89-.98l-10.72-27.65h-.04v23.94c0,.45.03.81.09,1.07.06.27.21.6.47,1s.72.7,1.4.91c.68.21,1.55.31,2.63.31v1.39c-3.11-.09-4.84-.13-5.2-.13s-2.09.04-5.2.13Z"/>
      <path class="st39" d="M262.65,43.52c0-2.79.9-5.18,2.69-7.16s3.98-2.97,6.55-2.97,4.58.84,5.93,2.53c1.35,1.68,2.03,3.74,2.03,6.15,0,.47-.06.75-.17.84-.12.09-.43.14-.93.14h-12.41c0,3.03.45,5.26,1.34,6.68,1.24,1.99,2.92,2.98,5.01,2.98.29,0,.61-.03.96-.09.35-.06.88-.21,1.6-.47.71-.25,1.38-.72,2.01-1.4.63-.68,1.12-1.56,1.49-2.63.08-.42.26-.62.54-.61.38,0,.56.17.56.52,0,.26-.14.68-.42,1.27s-.69,1.22-1.23,1.92c-.54.69-1.32,1.3-2.35,1.82s-2.17.78-3.42.78c-2.6,0-4.89-.99-6.85-2.96-1.96-1.97-2.94-4.42-2.94-7.32ZM266.38,42.07h10.55c0-.62-.05-1.28-.16-1.97-.11-.69-.32-1.52-.63-2.48-.31-.96-.83-1.74-1.55-2.35-.72-.61-1.62-.91-2.69-.91-.48,0-.97.1-1.49.3s-1.08.55-1.7,1.04c-.62.49-1.15,1.29-1.58,2.4-.43,1.11-.68,2.43-.74,3.96Z"/>
      <path class="st39" d="M282.62,52.72v-5.86c0-.33,0-.56.02-.67.01-.12.07-.22.16-.3.09-.09.22-.13.4-.13.21,0,.36.04.44.13.08.09.15.3.21.63.43,2.05,1.12,3.61,2.08,4.69s2.31,1.62,4.06,1.62,2.92-.37,3.75-1.11c.84-.74,1.26-1.72,1.26-2.93,0-2.17-1.54-3.53-4.62-4.08-1.78-.36-3.04-.66-3.78-.9-.74-.24-1.43-.63-2.08-1.16-1.27-1.04-1.91-2.3-1.91-3.78s.56-2.76,1.68-3.84,2.93-1.63,5.42-1.63c1.66,0,3.06.42,4.19,1.26.33-.26.59-.5.76-.72.42-.36.74-.54.96-.54.26,0,.42.08.46.23.05.15.07.44.07.86v4.47c0,.33,0,.56-.02.67-.01.12-.07.21-.17.29-.1.08-.25.12-.46.12-.37,0-.57-.14-.58-.41-.23-3.59-1.97-5.38-5.21-5.38-1.75,0-3.02.34-3.8,1.01s-1.17,1.47-1.17,2.38c0,.51.12.95.36,1.34.24.38.51.69.82.91s.76.44,1.33.65c.58.21,1.04.35,1.4.42s.87.18,1.55.33c2.37.45,4.06,1.16,5.06,2.13,1.24,1.25,1.87,2.66,1.87,4.24,0,1.75-.59,3.21-1.78,4.39-1.19,1.18-2.97,1.78-5.36,1.78-1.92,0-3.56-.64-4.9-1.91-.17.17-.32.34-.45.49-.13.15-.22.26-.26.32-.05.06-.08.1-.09.14-.01.04-.04.07-.06.1-.6.58-.97.87-1.11.87-.24,0-.38-.08-.43-.23-.04-.15-.07-.44-.07-.86Z"/>
      <path class="st39" d="M300.11,52.72v-5.86c0-.33,0-.56.02-.67.01-.12.07-.22.16-.3.09-.09.22-.13.4-.13.21,0,.36.04.44.13.08.09.15.3.21.63.43,2.05,1.12,3.61,2.08,4.69s2.31,1.62,4.06,1.62,2.92-.37,3.75-1.11c.84-.74,1.26-1.72,1.26-2.93,0-2.17-1.54-3.53-4.62-4.08-1.78-.36-3.04-.66-3.78-.9-.74-.24-1.43-.63-2.08-1.16-1.27-1.04-1.91-2.3-1.91-3.78s.56-2.76,1.68-3.84,2.93-1.63,5.42-1.63c1.66,0,3.06.42,4.19,1.26.33-.26.59-.5.76-.72.42-.36.74-.54.96-.54.26,0,.42.08.46.23.05.15.07.44.07.86v4.47c0,.33,0,.56-.02.67-.01.12-.07.21-.17.29-.1.08-.25.12-.46.12-.37,0-.57-.14-.58-.41-.23-3.59-1.97-5.38-5.21-5.38-1.75,0-3.02.34-3.8,1.01s-1.17,1.47-1.17,2.38c0,.51.12.95.36,1.34.24.38.51.69.82.91s.76.44,1.33.65c.58.21,1.04.35,1.4.42s.87.18,1.55.33c2.37.45,4.06,1.16,5.06,2.13,1.24,1.25,1.87,2.66,1.87,4.24,0,1.75-.59,3.21-1.78,4.39-1.19,1.18-2.97,1.78-5.36,1.78-1.92,0-3.56-.64-4.9-1.91-.17.17-.32.34-.45.49-.13.15-.22.26-.26.32-.05.06-.08.1-.09.14-.01.04-.04.07-.06.1-.6.58-.97.87-1.11.87-.24,0-.38-.08-.43-.23-.04-.15-.07-.44-.07-.86Z"/>
      <path class="st39" d="M317.99,49.06c0-2.52,1.51-4.45,4.53-5.78,1.81-.86,4.59-1.4,8.34-1.62v-1.62c0-1.83-.51-3.24-1.52-4.21s-2.16-1.46-3.44-1.46c-2.19,0-3.82.69-4.87,2.06.85.03,1.43.26,1.73.71s.46.89.46,1.33c0,.59-.18,1.08-.53,1.46-.36.38-.83.58-1.43.58s-1.04-.18-1.42-.55-.56-.88-.56-1.53c0-1.45.65-2.65,1.96-3.6s2.89-1.43,4.76-1.43c2.51,0,4.6.81,6.28,2.45.52.5.92,1.08,1.18,1.73s.41,1.19.44,1.61.04,1.06.04,1.89v8.88c0,.17.03.4.09.69.06.29.22.62.48.99.27.37.62.55,1.07.55,1.06,0,1.59-.95,1.57-2.84v-2.49h1.11v2.5c0,1.58-.41,2.68-1.23,3.29-.82.62-1.61.92-2.37.92-.98,0-1.78-.36-2.41-1.09-.62-.73-.98-1.58-1.06-2.57-.47,1.13-1.24,2.07-2.32,2.8-1.07.73-2.34,1.1-3.8,1.1-1.06,0-2.09-.13-3.09-.4-1-.27-1.91-.78-2.73-1.52-.83-.75-1.24-1.69-1.24-2.82ZM321.68,49.02c0,1.11.36,2.02,1.08,2.74.72.72,1.59,1.07,2.61,1.07,1.31,0,2.55-.48,3.73-1.45,1.17-.96,1.76-2.4,1.76-4.29v-4.46c-3.28.12-5.63.83-7.05,2.13-1.42,1.31-2.13,2.72-2.13,4.25Z"/>
      <path class="st39" d="M339.52,56.84c0-.96.35-1.85,1.06-2.68.71-.83,1.67-1.42,2.9-1.79-1.21-.82-1.81-2.14-1.81-3.95,0-1.38.42-2.59,1.27-3.65-1.28-1.17-1.92-2.71-1.92-4.62,0-1.75.67-3.27,2.03-4.56,1.35-1.29,3.01-1.93,4.98-1.93,1.74,0,3.28.52,4.61,1.57,1.38-1.36,2.91-2.05,4.59-2.07.75,0,1.3.24,1.66.72.36.48.54.97.54,1.48,0,.45-.14.78-.42,1s-.57.33-.86.33c-.36,0-.67-.12-.92-.36-.25-.24-.38-.55-.38-.92,0-.62.24-1.03.72-1.21-.09-.03-.23-.04-.43-.04-1.4,0-2.7.57-3.89,1.7,1.12,1.14,1.68,2.59,1.68,4.35s-.67,3.29-2,4.57c-1.33,1.28-2.96,1.92-4.89,1.92-1.67,0-3.15-.45-4.42-1.35-.46.58-.69,1.27-.69,2.06,0,.74.22,1.4.67,1.98.44.58,1,.91,1.68,1,.2.03,1.3.04,3.29.04,1.16,0,2.05.01,2.69.04.63.03,1.41.14,2.32.34s1.72.48,2.44.86c1.87,1.07,2.82,2.76,2.83,5.08,0,1.69-.95,3.07-2.84,4.13s-4.15,1.59-6.77,1.59-4.96-.54-6.85-1.61-2.83-2.41-2.83-4.01ZM341.84,56.84c0,1.22.7,2.3,2.11,3.24,1.4.94,3.17,1.41,5.3,1.41s3.77-.46,5.16-1.38c1.39-.92,2.08-2.01,2.08-3.26,0-.89-.25-1.61-.74-2.18-.49-.57-1.24-.96-2.25-1.19-1.01-.22-1.86-.36-2.57-.4s-1.7-.07-3-.07h-2.56c-.98.06-1.82.46-2.5,1.2-.69.74-1.03,1.62-1.03,2.64ZM344.08,40.2c0,3.67,1.3,5.51,3.9,5.51,1.31,0,2.36-.6,3.16-1.79.48-.8.72-2.06.72-3.76,0-3.67-1.29-5.51-3.87-5.51-1.31,0-2.37.6-3.18,1.79-.48.8-.72,2.06-.72,3.76Z"/>
      <path class="st39" d="M361.81,43.52c0-2.79.9-5.18,2.69-7.16s3.98-2.97,6.55-2.97,4.58.84,5.93,2.53c1.35,1.68,2.03,3.74,2.03,6.15,0,.47-.06.75-.17.84-.12.09-.43.14-.93.14h-12.41c0,3.03.45,5.26,1.34,6.68,1.24,1.99,2.92,2.98,5.01,2.98.29,0,.61-.03.96-.09.35-.06.88-.21,1.6-.47.71-.25,1.38-.72,2.01-1.4.63-.68,1.12-1.56,1.49-2.63.08-.42.26-.62.54-.61.38,0,.56.17.56.52,0,.26-.14.68-.42,1.27s-.69,1.22-1.23,1.92c-.54.69-1.32,1.3-2.35,1.82s-2.17.78-3.42.78c-2.6,0-4.89-.99-6.85-2.96-1.96-1.97-2.94-4.42-2.94-7.32ZM365.54,42.07h10.55c0-.62-.05-1.28-.16-1.97-.11-.69-.32-1.52-.63-2.48-.31-.96-.83-1.74-1.55-2.35-.72-.61-1.62-.91-2.69-.91-.48,0-.97.1-1.49.3s-1.08.55-1.7,1.04c-.62.49-1.15,1.29-1.58,2.4-.43,1.11-.68,2.43-.74,3.96Z"/>
    </g>
    <g>
      <path class="st39" d="M173.13,185.53c0-1.38.34-2.78,1.03-4.2.69-1.42,1.9-2.74,3.62-3.94,1.72-1.21,3.81-1.79,6.27-1.75,2.67,0,4.61.58,5.82,1.75,1.21,1.16,1.83,2.46,1.87,3.88,0,1.38-.37,2.39-1.1,3.04-.73.65-1.55.99-2.46,1.03-.56,0-1.08-.17-1.55-.52-.47-.34-.73-.91-.78-1.68,0-.69.19-1.29.58-1.81.39-.52.75-.91,1.1-1.16.34-.26.62-.39.84-.39.04,0,.06-.02.06-.06,0-.13-.15-.32-.45-.58-.3-.26-.84-.5-1.62-.71-.78-.22-1.62-.34-2.52-.39-2.07,0-3.58.56-4.53,1.68-.95,1.12-1.44,2.26-1.49,3.43,0,1.08.41,1.83,1.23,2.26.82.43,2,.8,3.56,1.1,1.55.3,2.67.62,3.36.97,2.84,1.25,4.27,3.32,4.27,6.21,0,1.21-.24,2.41-.71,3.62-.47,1.21-1.19,2.41-2.13,3.62-.95,1.21-2.31,2.15-4.07,2.84-1.77.69-3.79,1.06-6.08,1.1-3.32,0-5.67-.63-7.05-1.87-1.38-1.25-2.09-2.71-2.13-4.4,0-1.68.45-2.89,1.36-3.62.91-.73,1.85-1.1,2.84-1.1.65,0,1.25.19,1.81.58.56.39.86,1.06.91,2,0,1.12-.39,2.07-1.16,2.84-.78.78-1.44,1.16-2,1.16-.09.04-.15.06-.19.06s-.06.04-.06.13c.04.13.22.3.52.52s.97.5,2,.84c1.03.34,2.22.5,3.56.45,1.55,0,2.89-.24,4.01-.71s1.94-1.08,2.46-1.81c.52-.73.88-1.4,1.1-2,.22-.6.32-1.14.32-1.62,0-1.21-.45-2.11-1.36-2.72-.9-.6-1.94-.97-3.1-1.1-1.16-.13-2.43-.45-3.81-.97-1.38-.52-2.39-1.27-3.04-2.26-.73-1.08-1.1-2.33-1.1-3.75Z"/>
      <path class="st39" d="M194.46,191.46c1.3-1.89,3.09-2.83,5.35-2.83,1.12,0,2.24.3,3.36.91,1.12.61,2.03,1.68,2.73,3.22.86,1.93,1.29,4.59,1.29,7.97,0,3.61-.5,6.37-1.5,8.28-.47.98-1.11,1.76-1.92,2.34-.82.58-1.53.94-2.13,1.08-.61.14-1.2.22-1.78.24-.61,0-1.21-.07-1.82-.21-.61-.14-1.32-.51-2.13-1.12-.82-.61-1.46-1.39-1.92-2.34-1-1.91-1.5-4.67-1.5-8.28,0-4.05.66-7.14,1.99-9.26ZM202.33,191.04c-.7-.75-1.53-1.12-2.48-1.12s-1.82.37-2.52,1.12c-.58.61-.97,1.44-1.15,2.52-.19,1.07-.28,3.31-.28,6.71,0,3.68.09,6.1.28,7.27.19,1.16.61,2.09,1.26,2.76.65.7,1.46,1.05,2.41,1.05s1.72-.35,2.38-1.05c.68-.7,1.1-1.68,1.26-2.94.16-1.26.26-3.62.28-7.09,0-3.38-.09-5.6-.28-6.68-.19-1.07-.57-1.92-1.15-2.55Z"/>
    </g>
    <g>
      <path class="st39" d="M249.1,185.53c0-1.38.34-2.78,1.03-4.2.69-1.42,1.9-2.74,3.62-3.94,1.72-1.21,3.81-1.79,6.27-1.75,2.67,0,4.61.58,5.82,1.75,1.21,1.16,1.83,2.46,1.87,3.88,0,1.38-.37,2.39-1.1,3.04-.73.65-1.55.99-2.46,1.03-.56,0-1.08-.17-1.55-.52-.47-.34-.73-.91-.78-1.68,0-.69.19-1.29.58-1.81.39-.52.75-.91,1.1-1.16.34-.26.62-.39.84-.39.04,0,.06-.02.06-.06,0-.13-.15-.32-.45-.58-.3-.26-.84-.5-1.62-.71-.78-.22-1.62-.34-2.52-.39-2.07,0-3.58.56-4.53,1.68-.95,1.12-1.44,2.26-1.49,3.43,0,1.08.41,1.83,1.23,2.26.82.43,2,.8,3.56,1.1,1.55.3,2.67.62,3.36.97,2.84,1.25,4.27,3.32,4.27,6.21,0,1.21-.24,2.41-.71,3.62-.47,1.21-1.19,2.41-2.13,3.62-.95,1.21-2.31,2.15-4.07,2.84-1.77.69-3.79,1.06-6.08,1.1-3.32,0-5.67-.63-7.05-1.87-1.38-1.25-2.09-2.71-2.13-4.4,0-1.68.45-2.89,1.36-3.62.91-.73,1.85-1.1,2.84-1.1.65,0,1.25.19,1.81.58.56.39.86,1.06.91,2,0,1.12-.39,2.07-1.16,2.84-.78.78-1.44,1.16-2,1.16-.09.04-.15.06-.19.06s-.06.04-.06.13c.04.13.22.3.52.52s.97.5,2,.84c1.03.34,2.22.5,3.56.45,1.55,0,2.89-.24,4.01-.71,1.12-.47,1.94-1.08,2.46-1.81.52-.73.88-1.4,1.1-2,.22-.6.32-1.14.32-1.62,0-1.21-.45-2.11-1.36-2.72-.9-.6-1.94-.97-3.1-1.1-1.16-.13-2.43-.45-3.81-.97-1.38-.52-2.39-1.27-3.04-2.26-.73-1.08-1.1-2.33-1.1-3.75Z"/>
      <path class="st39" d="M274.07,192.14l-.44.17c-.32.11-.77.23-1.36.34-.59.11-1.25.19-1.97.24h-.65v-1.57h.65c1.07-.05,2.05-.22,2.96-.51.91-.3,1.54-.57,1.91-.82.36-.25.68-.5.95-.75.05-.07.18-.1.41-.1.2,0,.4.07.58.2v10.18l.03,10.21c.16.16.29.26.41.31.11.05.39.09.82.14.43.05,1.13.07,2.11.07h.89v1.57h-.37c-.48-.07-2.28-.1-5.41-.1s-4.87.03-5.34.1h-.41v-1.57h2.18c.36,0,.65-.01.85-.03.2-.02.39-.06.54-.1.16-.05.25-.07.27-.07s.09-.06.2-.17c.11-.11.18-.16.2-.14v-17.6Z"/>
    </g>
    <g>
      <path class="st39" d="M325.07,185.53c0-1.38.34-2.78,1.03-4.2.69-1.42,1.9-2.74,3.62-3.94,1.72-1.21,3.81-1.79,6.27-1.75,2.67,0,4.61.58,5.82,1.75,1.21,1.16,1.83,2.46,1.87,3.88,0,1.38-.37,2.39-1.1,3.04-.73.65-1.55.99-2.46,1.03-.56,0-1.08-.17-1.55-.52-.47-.34-.73-.91-.78-1.68,0-.69.19-1.29.58-1.81.39-.52.75-.91,1.1-1.16.34-.26.62-.39.84-.39.04,0,.06-.02.06-.06,0-.13-.15-.32-.45-.58-.3-.26-.84-.5-1.62-.71-.78-.22-1.62-.34-2.52-.39-2.07,0-3.58.56-4.53,1.68-.95,1.12-1.44,2.26-1.49,3.43,0,1.08.41,1.83,1.23,2.26.82.43,2,.8,3.56,1.1,1.55.3,2.67.62,3.36.97,2.84,1.25,4.27,3.32,4.27,6.21,0,1.21-.24,2.41-.71,3.62-.47,1.21-1.19,2.41-2.13,3.62-.95,1.21-2.31,2.15-4.07,2.84-1.77.69-3.79,1.06-6.08,1.1-3.32,0-5.67-.63-7.05-1.87-1.38-1.25-2.09-2.71-2.13-4.4,0-1.68.45-2.89,1.36-3.62.91-.73,1.85-1.1,2.84-1.1.65,0,1.25.19,1.81.58.56.39.86,1.06.91,2,0,1.12-.39,2.07-1.16,2.84-.78.78-1.44,1.16-2,1.16-.09.04-.15.06-.19.06s-.06.04-.06.13c.04.13.22.3.52.52s.97.5,2,.84c1.03.34,2.22.5,3.56.45,1.55,0,2.89-.24,4.01-.71,1.12-.47,1.94-1.08,2.46-1.81.52-.73.88-1.4,1.1-2,.22-.6.32-1.14.32-1.62,0-1.21-.45-2.11-1.36-2.72-.9-.6-1.94-.97-3.1-1.1-1.16-.13-2.43-.45-3.81-.97-1.38-.52-2.39-1.27-3.04-2.26-.73-1.08-1.1-2.33-1.1-3.75Z"/>
      <path class="st39" d="M347.66,196.84c-.62,0-1.12-.21-1.49-.62-.37-.42-.55-.92-.55-1.52,0-1.64.61-3.06,1.84-4.26,1.22-1.2,2.75-1.8,4.57-1.8,2.1,0,3.86.65,5.27,1.94,1.41,1.29,2.12,2.97,2.15,5.02,0,.99-.23,1.94-.69,2.84-.46.9-1.02,1.69-1.66,2.36-.65.67-1.57,1.52-2.77,2.56-.83.72-1.99,1.78-3.46,3.19l-2.04,1.94,2.63.03c3.63,0,5.55-.06,5.79-.17.16-.05.44-1.07.83-3.08v-.1h1.39v.1c-.02.07-.17,1.12-.45,3.15-.28,2.03-.45,3.1-.52,3.19v.1h-12.85v-1.07c0-.16.07-.33.21-.52.14-.18.49-.59,1.04-1.21.67-.74,1.25-1.39,1.73-1.94.21-.23.6-.66,1.18-1.28.58-.62.97-1.05,1.18-1.28.21-.23.54-.61,1-1.14.46-.53.79-.92.97-1.18.18-.25.45-.6.8-1.04.35-.44.59-.81.73-1.11s.31-.64.52-1c.21-.37.36-.74.45-1.11.09-.37.17-.72.24-1.04.07-.32.1-.7.1-1.14,0-1.46-.39-2.71-1.18-3.78-.79-1.06-1.91-1.59-3.36-1.59-.76,0-1.43.2-2.01.59s-.98.77-1.21,1.14c-.23.37-.35.59-.35.66,0,.02.06.03.17.03.42,0,.84.16,1.28.49.44.32.66.85.66,1.59,0,.58-.18,1.06-.55,1.46-.37.39-.89.6-1.56.62Z"/>
    </g>
    <g>
      <path class="st39" d="M401.05,185.53c0-1.38.34-2.78,1.03-4.2.69-1.42,1.9-2.74,3.62-3.94,1.72-1.21,3.81-1.79,6.27-1.75,2.67,0,4.61.58,5.82,1.75,1.21,1.16,1.83,2.46,1.87,3.88,0,1.38-.37,2.39-1.1,3.04-.73.65-1.55.99-2.46,1.03-.56,0-1.08-.17-1.55-.52-.47-.34-.73-.91-.78-1.68,0-.69.19-1.29.58-1.81.39-.52.75-.91,1.1-1.16.34-.26.62-.39.84-.39.04,0,.06-.02.06-.06,0-.13-.15-.32-.45-.58-.3-.26-.84-.5-1.62-.71-.78-.22-1.62-.34-2.52-.39-2.07,0-3.58.56-4.53,1.68-.95,1.12-1.44,2.26-1.49,3.43,0,1.08.41,1.83,1.23,2.26.82.43,2,.8,3.56,1.1,1.55.3,2.67.62,3.36.97,2.84,1.25,4.27,3.32,4.27,6.21,0,1.21-.24,2.41-.71,3.62-.47,1.21-1.19,2.41-2.13,3.62-.95,1.21-2.31,2.15-4.07,2.84-1.77.69-3.79,1.06-6.08,1.1-3.32,0-5.67-.63-7.05-1.87-1.38-1.25-2.09-2.71-2.13-4.4,0-1.68.45-2.89,1.36-3.62.91-.73,1.85-1.1,2.84-1.1.65,0,1.25.19,1.81.58.56.39.86,1.06.91,2,0,1.12-.39,2.07-1.16,2.84-.78.78-1.44,1.16-2,1.16-.09.04-.15.06-.19.06s-.06.04-.06.13c.04.13.22.3.52.52s.97.5,2,.84c1.03.34,2.22.5,3.56.45,1.55,0,2.89-.24,4.01-.71,1.12-.47,1.94-1.08,2.46-1.81.52-.73.88-1.4,1.1-2,.22-.6.32-1.14.32-1.62,0-1.21-.45-2.11-1.36-2.72-.9-.6-1.94-.97-3.1-1.1-1.16-.13-2.43-.45-3.81-.97-1.38-.52-2.39-1.27-3.04-2.26-.73-1.08-1.1-2.33-1.1-3.75Z"/>
      <path class="st39" d="M424.54,195.66c-.62,0-1.11-.2-1.46-.59-.35-.39-.53-.9-.55-1.52,0-1.27.55-2.4,1.66-3.4,1.11-.99,2.45-1.49,4.02-1.49.81,0,1.32.01,1.52.03,1.71.28,3.01.89,3.91,1.84.9.95,1.36,1.97,1.39,3.08,0,1.2-.39,2.37-1.18,3.5-.79,1.13-1.87,1.95-3.26,2.46l-.1.07s.1.06.31.1c.21.05.54.15,1,.31.46.16.9.4,1.32.73,1.89,1.22,2.84,2.84,2.84,4.85,0,1.82-.72,3.42-2.15,4.78-1.43,1.36-3.25,2.04-5.44,2.04-1.85,0-3.44-.5-4.78-1.49-1.34-.99-2.01-2.25-2.01-3.78,0-.65.21-1.17.62-1.56.42-.39.94-.6,1.56-.62.65,0,1.18.21,1.59.62.42.42.62.94.62,1.56,0,.25-.03.49-.1.69-.07.21-.15.39-.24.55-.09.16-.22.3-.38.42s-.3.21-.42.28c-.12.07-.23.12-.35.14-.12.02-.21.06-.28.1l-.14.03c1.18,1.04,2.61,1.56,4.3,1.56,1.27,0,2.23-.61,2.88-1.84.39-.76.59-1.93.59-3.5v-.69c0-2.19-.74-3.66-2.22-4.4-.35-.14-1.05-.22-2.11-.24l-1.45-.03-.1-.07c-.05-.07-.07-.25-.07-.55,0-.42.09-.62.28-.62.65,0,1.32-.06,2.01-.17.79-.12,1.5-.6,2.15-1.46.65-.85.97-2.15.97-3.88v-.28c0-1.32-.4-2.23-1.21-2.74-.51-.32-1.05-.49-1.63-.49-.74,0-1.42.13-2.04.38-.62.25-1.06.52-1.32.8-.25.28-.38.42-.38.42h.1c.07.02.16.05.28.07.12.02.23.08.35.17.12.09.25.17.42.24.16.07.28.2.35.38.07.18.16.36.28.52.12.16.15.39.1.69,0,.51-.16.96-.49,1.35-.32.39-.84.6-1.56.62Z"/>
    </g>
  </g>
</svg>