<?xml version="1.0" encoding="utf-8" standalone="no"?>
<!DOCTYPE svg PUBLIC "-//W3C//DTD SVG 1.1//EN"
  "http://www.w3.org/Graphics/SVG/1.1/DTD/svg11.dtd">
<svg height="576pt" version="1.1" viewBox="0 0 864 576" width="864pt" xmlns="http://www.w3.org/2000/svg" xmlns:xlink="http://www.w3.org/1999/xlink">
 <metadata>
  <rdf:RDF xmlns:cc="http://creativecommons.org/ns#" xmlns:dc="http://purl.org/dc/elements/1.1/" xmlns:rdf="http://www.w3.org/1999/02/22-rdf-syntax-ns#">
   <cc:Work>
    <dc:type rdf:resource="http://purl.org/dc/dcmitype/StillImage"/>
    <dc:date>2025-06-22T13:45:13.642051</dc:date>
    <dc:format>image/svg+xml</dc:format>
    <dc:creator>
     <cc:Agent>
      <dc:title>Matplotlib v3.4.3, https://matplotlib.org/</dc:title>
     </cc:Agent>
    </dc:creator>
   </cc:Work>
  </rdf:RDF>
 </metadata>
 <defs>
  <style type="text/css">*{stroke-linecap:butt;stroke-linejoin:round;}</style>
 </defs>
 <g id="figure_1">
  <g id="patch_1">
   <path d="M 0 576 
L 864 576 
L 864 0 
L 0 0 
z
" style="fill:none;"/>
  </g>
  <g id="axes_1">
   <g id="patch_2">
    <path d="M 62.175 527.2 
L 853.2 527.2 
L 853.2 28.8 
L 62.175 28.8 
z
" style="fill:#ffffff;"/>
   </g>
   <g id="matplotlib.axis_1">
    <g id="xtick_1">
     <g id="line2d_1">
      <path clip-path="url(#p82094c0a7d)" d="M 186.735108 527.2 
L 186.735108 28.8 
" style="fill:none;stroke:#bcd4eb;stroke-dasharray:1.85,0.8;stroke-dashoffset:0;stroke-width:0.5;"/>
     </g>
     <g id="line2d_2">
      <defs>
       <path d="M 0 0 
L 0 3.5 
" id="ma63092bdcc" style="stroke:#121f9e;stroke-width:0.8;"/>
      </defs>
      <g>
       <use style="fill:#121f9e;stroke:#121f9e;stroke-width:0.8;" x="186.735108" xlink:href="#ma63092bdcc" y="527.2"/>
      </g>
     </g>
     <g id="text_1">
      <!-- 15000 -->
      <g style="fill:#121f9e;" transform="translate(167.647608 543.318125)scale(0.12 -0.12)">
       <defs>
        <path d="M 794 531 
L 1825 531 
L 1825 4091 
L 703 3866 
L 703 4441 
L 1819 4666 
L 2450 4666 
L 2450 531 
L 3481 531 
L 3481 0 
L 794 0 
L 794 531 
z
" id="DejaVuSans-31" transform="scale(0.015625)"/>
        <path d="M 691 4666 
L 3169 4666 
L 3169 4134 
L 1269 4134 
L 1269 2991 
Q 1406 3038 1543 3061 
Q 1681 3084 1819 3084 
Q 2600 3084 3056 2656 
Q 3513 2228 3513 1497 
Q 3513 744 3044 326 
Q 2575 -91 1722 -91 
Q 1428 -91 1123 -41 
Q 819 9 494 109 
L 494 744 
Q 775 591 1075 516 
Q 1375 441 1709 441 
Q 2250 441 2565 725 
Q 2881 1009 2881 1497 
Q 2881 1984 2565 2268 
Q 2250 2553 1709 2553 
Q 1456 2553 1204 2497 
Q 953 2441 691 2322 
L 691 4666 
z
" id="DejaVuSans-35" transform="scale(0.015625)"/>
        <path d="M 2034 4250 
Q 1547 4250 1301 3770 
Q 1056 3291 1056 2328 
Q 1056 1369 1301 889 
Q 1547 409 2034 409 
Q 2525 409 2770 889 
Q 3016 1369 3016 2328 
Q 3016 3291 2770 3770 
Q 2525 4250 2034 4250 
z
M 2034 4750 
Q 2819 4750 3233 4129 
Q 3647 3509 3647 2328 
Q 3647 1150 3233 529 
Q 2819 -91 2034 -91 
Q 1250 -91 836 529 
Q 422 1150 422 2328 
Q 422 3509 836 4129 
Q 1250 4750 2034 4750 
z
" id="DejaVuSans-30" transform="scale(0.015625)"/>
       </defs>
       <use xlink:href="#DejaVuSans-31"/>
       <use x="63.623047" xlink:href="#DejaVuSans-35"/>
       <use x="127.246094" xlink:href="#DejaVuSans-30"/>
       <use x="190.869141" xlink:href="#DejaVuSans-30"/>
       <use x="254.492188" xlink:href="#DejaVuSans-30"/>
      </g>
     </g>
    </g>
    <g id="xtick_2">
     <g id="line2d_3">
      <path clip-path="url(#p82094c0a7d)" d="M 326.006448 527.2 
L 326.006448 28.8 
" style="fill:none;stroke:#bcd4eb;stroke-dasharray:1.85,0.8;stroke-dashoffset:0;stroke-width:0.5;"/>
     </g>
     <g id="line2d_4">
      <g>
       <use style="fill:#121f9e;stroke:#121f9e;stroke-width:0.8;" x="326.006448" xlink:href="#ma63092bdcc" y="527.2"/>
      </g>
     </g>
     <g id="text_2">
      <!-- 20000 -->
      <g style="fill:#121f9e;" transform="translate(306.918948 543.318125)scale(0.12 -0.12)">
       <defs>
        <path d="M 1228 531 
L 3431 531 
L 3431 0 
L 469 0 
L 469 531 
Q 828 903 1448 1529 
Q 2069 2156 2228 2338 
Q 2531 2678 2651 2914 
Q 2772 3150 2772 3378 
Q 2772 3750 2511 3984 
Q 2250 4219 1831 4219 
Q 1534 4219 1204 4116 
Q 875 4013 500 3803 
L 500 4441 
Q 881 4594 1212 4672 
Q 1544 4750 1819 4750 
Q 2544 4750 2975 4387 
Q 3406 4025 3406 3419 
Q 3406 3131 3298 2873 
Q 3191 2616 2906 2266 
Q 2828 2175 2409 1742 
Q 1991 1309 1228 531 
z
" id="DejaVuSans-32" transform="scale(0.015625)"/>
       </defs>
       <use xlink:href="#DejaVuSans-32"/>
       <use x="63.623047" xlink:href="#DejaVuSans-30"/>
       <use x="127.246094" xlink:href="#DejaVuSans-30"/>
       <use x="190.869141" xlink:href="#DejaVuSans-30"/>
       <use x="254.492188" xlink:href="#DejaVuSans-30"/>
      </g>
     </g>
    </g>
    <g id="xtick_3">
     <g id="line2d_5">
      <path clip-path="url(#p82094c0a7d)" d="M 465.277788 527.2 
L 465.277788 28.8 
" style="fill:none;stroke:#bcd4eb;stroke-dasharray:1.85,0.8;stroke-dashoffset:0;stroke-width:0.5;"/>
     </g>
     <g id="line2d_6">
      <g>
       <use style="fill:#121f9e;stroke:#121f9e;stroke-width:0.8;" x="465.277788" xlink:href="#ma63092bdcc" y="527.2"/>
      </g>
     </g>
     <g id="text_3">
      <!-- 25000 -->
      <g style="fill:#121f9e;" transform="translate(446.190288 543.318125)scale(0.12 -0.12)">
       <use xlink:href="#DejaVuSans-32"/>
       <use x="63.623047" xlink:href="#DejaVuSans-35"/>
       <use x="127.246094" xlink:href="#DejaVuSans-30"/>
       <use x="190.869141" xlink:href="#DejaVuSans-30"/>
       <use x="254.492188" xlink:href="#DejaVuSans-30"/>
      </g>
     </g>
    </g>
    <g id="xtick_4">
     <g id="line2d_7">
      <path clip-path="url(#p82094c0a7d)" d="M 604.549128 527.2 
L 604.549128 28.8 
" style="fill:none;stroke:#bcd4eb;stroke-dasharray:1.85,0.8;stroke-dashoffset:0;stroke-width:0.5;"/>
     </g>
     <g id="line2d_8">
      <g>
       <use style="fill:#121f9e;stroke:#121f9e;stroke-width:0.8;" x="604.549128" xlink:href="#ma63092bdcc" y="527.2"/>
      </g>
     </g>
     <g id="text_4">
      <!-- 30000 -->
      <g style="fill:#121f9e;" transform="translate(585.461628 543.318125)scale(0.12 -0.12)">
       <defs>
        <path d="M 2597 2516 
Q 3050 2419 3304 2112 
Q 3559 1806 3559 1356 
Q 3559 666 3084 287 
Q 2609 -91 1734 -91 
Q 1441 -91 1130 -33 
Q 819 25 488 141 
L 488 750 
Q 750 597 1062 519 
Q 1375 441 1716 441 
Q 2309 441 2620 675 
Q 2931 909 2931 1356 
Q 2931 1769 2642 2001 
Q 2353 2234 1838 2234 
L 1294 2234 
L 1294 2753 
L 1863 2753 
Q 2328 2753 2575 2939 
Q 2822 3125 2822 3475 
Q 2822 3834 2567 4026 
Q 2313 4219 1838 4219 
Q 1578 4219 1281 4162 
Q 984 4106 628 3988 
L 628 4550 
Q 988 4650 1302 4700 
Q 1616 4750 1894 4750 
Q 2613 4750 3031 4423 
Q 3450 4097 3450 3541 
Q 3450 3153 3228 2886 
Q 3006 2619 2597 2516 
z
" id="DejaVuSans-33" transform="scale(0.015625)"/>
       </defs>
       <use xlink:href="#DejaVuSans-33"/>
       <use x="63.623047" xlink:href="#DejaVuSans-30"/>
       <use x="127.246094" xlink:href="#DejaVuSans-30"/>
       <use x="190.869141" xlink:href="#DejaVuSans-30"/>
       <use x="254.492188" xlink:href="#DejaVuSans-30"/>
      </g>
     </g>
    </g>
    <g id="xtick_5">
     <g id="line2d_9">
      <path clip-path="url(#p82094c0a7d)" d="M 743.820468 527.2 
L 743.820468 28.8 
" style="fill:none;stroke:#bcd4eb;stroke-dasharray:1.85,0.8;stroke-dashoffset:0;stroke-width:0.5;"/>
     </g>
     <g id="line2d_10">
      <g>
       <use style="fill:#121f9e;stroke:#121f9e;stroke-width:0.8;" x="743.820468" xlink:href="#ma63092bdcc" y="527.2"/>
      </g>
     </g>
     <g id="text_5">
      <!-- 35000 -->
      <g style="fill:#121f9e;" transform="translate(724.732968 543.318125)scale(0.12 -0.12)">
       <use xlink:href="#DejaVuSans-33"/>
       <use x="63.623047" xlink:href="#DejaVuSans-35"/>
       <use x="127.246094" xlink:href="#DejaVuSans-30"/>
       <use x="190.869141" xlink:href="#DejaVuSans-30"/>
       <use x="254.492188" xlink:href="#DejaVuSans-30"/>
      </g>
     </g>
    </g>
    <g id="text_6">
     <!-- Bloom Filter Size -->
     <g style="fill:#121f9e;" transform="translate(399.399375 560.451563)scale(0.14 -0.14)">
      <defs>
       <path d="M 1259 2228 
L 1259 519 
L 2272 519 
Q 2781 519 3026 730 
Q 3272 941 3272 1375 
Q 3272 1813 3026 2020 
Q 2781 2228 2272 2228 
L 1259 2228 
z
M 1259 4147 
L 1259 2741 
L 2194 2741 
Q 2656 2741 2882 2914 
Q 3109 3088 3109 3444 
Q 3109 3797 2882 3972 
Q 2656 4147 2194 4147 
L 1259 4147 
z
M 628 4666 
L 2241 4666 
Q 2963 4666 3353 4366 
Q 3744 4066 3744 3513 
Q 3744 3084 3544 2831 
Q 3344 2578 2956 2516 
Q 3422 2416 3680 2098 
Q 3938 1781 3938 1306 
Q 3938 681 3513 340 
Q 3088 0 2303 0 
L 628 0 
L 628 4666 
z
" id="DejaVuSans-42" transform="scale(0.015625)"/>
       <path d="M 603 4863 
L 1178 4863 
L 1178 0 
L 603 0 
L 603 4863 
z
" id="DejaVuSans-6c" transform="scale(0.015625)"/>
       <path d="M 1959 3097 
Q 1497 3097 1228 2736 
Q 959 2375 959 1747 
Q 959 1119 1226 758 
Q 1494 397 1959 397 
Q 2419 397 2687 759 
Q 2956 1122 2956 1747 
Q 2956 2369 2687 2733 
Q 2419 3097 1959 3097 
z
M 1959 3584 
Q 2709 3584 3137 3096 
Q 3566 2609 3566 1747 
Q 3566 888 3137 398 
Q 2709 -91 1959 -91 
Q 1206 -91 779 398 
Q 353 888 353 1747 
Q 353 2609 779 3096 
Q 1206 3584 1959 3584 
z
" id="DejaVuSans-6f" transform="scale(0.015625)"/>
       <path d="M 3328 2828 
Q 3544 3216 3844 3400 
Q 4144 3584 4550 3584 
Q 5097 3584 5394 3201 
Q 5691 2819 5691 2113 
L 5691 0 
L 5113 0 
L 5113 2094 
Q 5113 2597 4934 2840 
Q 4756 3084 4391 3084 
Q 3944 3084 3684 2787 
Q 3425 2491 3425 1978 
L 3425 0 
L 2847 0 
L 2847 2094 
Q 2847 2600 2669 2842 
Q 2491 3084 2119 3084 
Q 1678 3084 1418 2786 
Q 1159 2488 1159 1978 
L 1159 0 
L 581 0 
L 581 3500 
L 1159 3500 
L 1159 2956 
Q 1356 3278 1631 3431 
Q 1906 3584 2284 3584 
Q 2666 3584 2933 3390 
Q 3200 3197 3328 2828 
z
" id="DejaVuSans-6d" transform="scale(0.015625)"/>
       <path id="DejaVuSans-20" transform="scale(0.015625)"/>
       <path d="M 628 4666 
L 3309 4666 
L 3309 4134 
L 1259 4134 
L 1259 2759 
L 3109 2759 
L 3109 2228 
L 1259 2228 
L 1259 0 
L 628 0 
L 628 4666 
z
" id="DejaVuSans-46" transform="scale(0.015625)"/>
       <path d="M 603 3500 
L 1178 3500 
L 1178 0 
L 603 0 
L 603 3500 
z
M 603 4863 
L 1178 4863 
L 1178 4134 
L 603 4134 
L 603 4863 
z
" id="DejaVuSans-69" transform="scale(0.015625)"/>
       <path d="M 1172 4494 
L 1172 3500 
L 2356 3500 
L 2356 3053 
L 1172 3053 
L 1172 1153 
Q 1172 725 1289 603 
Q 1406 481 1766 481 
L 2356 481 
L 2356 0 
L 1766 0 
Q 1100 0 847 248 
Q 594 497 594 1153 
L 594 3053 
L 172 3053 
L 172 3500 
L 594 3500 
L 594 4494 
L 1172 4494 
z
" id="DejaVuSans-74" transform="scale(0.015625)"/>
       <path d="M 3597 1894 
L 3597 1613 
L 953 1613 
Q 991 1019 1311 708 
Q 1631 397 2203 397 
Q 2534 397 2845 478 
Q 3156 559 3463 722 
L 3463 178 
Q 3153 47 2828 -22 
Q 2503 -91 2169 -91 
Q 1331 -91 842 396 
Q 353 884 353 1716 
Q 353 2575 817 3079 
Q 1281 3584 2069 3584 
Q 2775 3584 3186 3129 
Q 3597 2675 3597 1894 
z
M 3022 2063 
Q 3016 2534 2758 2815 
Q 2500 3097 2075 3097 
Q 1594 3097 1305 2825 
Q 1016 2553 972 2059 
L 3022 2063 
z
" id="DejaVuSans-65" transform="scale(0.015625)"/>
       <path d="M 2631 2963 
Q 2534 3019 2420 3045 
Q 2306 3072 2169 3072 
Q 1681 3072 1420 2755 
Q 1159 2438 1159 1844 
L 1159 0 
L 581 0 
L 581 3500 
L 1159 3500 
L 1159 2956 
Q 1341 3275 1631 3429 
Q 1922 3584 2338 3584 
Q 2397 3584 2469 3576 
Q 2541 3569 2628 3553 
L 2631 2963 
z
" id="DejaVuSans-72" transform="scale(0.015625)"/>
       <path d="M 3425 4513 
L 3425 3897 
Q 3066 4069 2747 4153 
Q 2428 4238 2131 4238 
Q 1616 4238 1336 4038 
Q 1056 3838 1056 3469 
Q 1056 3159 1242 3001 
Q 1428 2844 1947 2747 
L 2328 2669 
Q 3034 2534 3370 2195 
Q 3706 1856 3706 1288 
Q 3706 609 3251 259 
Q 2797 -91 1919 -91 
Q 1588 -91 1214 -16 
Q 841 59 441 206 
L 441 856 
Q 825 641 1194 531 
Q 1563 422 1919 422 
Q 2459 422 2753 634 
Q 3047 847 3047 1241 
Q 3047 1584 2836 1778 
Q 2625 1972 2144 2069 
L 1759 2144 
Q 1053 2284 737 2584 
Q 422 2884 422 3419 
Q 422 4038 858 4394 
Q 1294 4750 2059 4750 
Q 2388 4750 2728 4690 
Q 3069 4631 3425 4513 
z
" id="DejaVuSans-53" transform="scale(0.015625)"/>
       <path d="M 353 3500 
L 3084 3500 
L 3084 2975 
L 922 459 
L 3084 459 
L 3084 0 
L 275 0 
L 275 525 
L 2438 3041 
L 353 3041 
L 353 3500 
z
" id="DejaVuSans-7a" transform="scale(0.015625)"/>
      </defs>
      <use xlink:href="#DejaVuSans-42"/>
      <use x="68.603516" xlink:href="#DejaVuSans-6c"/>
      <use x="96.386719" xlink:href="#DejaVuSans-6f"/>
      <use x="157.568359" xlink:href="#DejaVuSans-6f"/>
      <use x="218.75" xlink:href="#DejaVuSans-6d"/>
      <use x="316.162109" xlink:href="#DejaVuSans-20"/>
      <use x="347.949219" xlink:href="#DejaVuSans-46"/>
      <use x="398.21875" xlink:href="#DejaVuSans-69"/>
      <use x="426.001953" xlink:href="#DejaVuSans-6c"/>
      <use x="453.785156" xlink:href="#DejaVuSans-74"/>
      <use x="492.994141" xlink:href="#DejaVuSans-65"/>
      <use x="554.517578" xlink:href="#DejaVuSans-72"/>
      <use x="595.630859" xlink:href="#DejaVuSans-20"/>
      <use x="627.417969" xlink:href="#DejaVuSans-53"/>
      <use x="690.894531" xlink:href="#DejaVuSans-69"/>
      <use x="718.677734" xlink:href="#DejaVuSans-7a"/>
      <use x="771.167969" xlink:href="#DejaVuSans-65"/>
     </g>
    </g>
   </g>
   <g id="matplotlib.axis_2">
    <g id="ytick_1">
     <g id="line2d_11">
      <path clip-path="url(#p82094c0a7d)" d="M 62.175 516.16317 
L 853.2 516.16317 
" style="fill:none;stroke:#bcd4eb;stroke-dasharray:1.85,0.8;stroke-dashoffset:0;stroke-width:0.5;"/>
     </g>
     <g id="line2d_12">
      <defs>
       <path d="M 0 0 
L -3.5 0 
" id="mf9870487d5" style="stroke:#121f9e;stroke-width:0.8;"/>
      </defs>
      <g>
       <use style="fill:#121f9e;stroke:#121f9e;stroke-width:0.8;" x="62.175" xlink:href="#mf9870487d5" y="516.16317"/>
      </g>
     </g>
     <g id="text_7">
      <!-- 0.10 -->
      <g style="fill:#121f9e;" transform="translate(28.45625 520.722233)scale(0.12 -0.12)">
       <defs>
        <path d="M 684 794 
L 1344 794 
L 1344 0 
L 684 0 
L 684 794 
z
" id="DejaVuSans-2e" transform="scale(0.015625)"/>
       </defs>
       <use xlink:href="#DejaVuSans-30"/>
       <use x="63.623047" xlink:href="#DejaVuSans-2e"/>
       <use x="95.410156" xlink:href="#DejaVuSans-31"/>
       <use x="159.033203" xlink:href="#DejaVuSans-30"/>
      </g>
     </g>
    </g>
    <g id="ytick_2">
     <g id="line2d_13">
      <path clip-path="url(#p82094c0a7d)" d="M 62.175 458.074592 
L 853.2 458.074592 
" style="fill:none;stroke:#bcd4eb;stroke-dasharray:1.85,0.8;stroke-dashoffset:0;stroke-width:0.5;"/>
     </g>
     <g id="line2d_14">
      <g>
       <use style="fill:#121f9e;stroke:#121f9e;stroke-width:0.8;" x="62.175" xlink:href="#mf9870487d5" y="458.074592"/>
      </g>
     </g>
     <g id="text_8">
      <!-- 0.15 -->
      <g style="fill:#121f9e;" transform="translate(28.45625 462.633655)scale(0.12 -0.12)">
       <use xlink:href="#DejaVuSans-30"/>
       <use x="63.623047" xlink:href="#DejaVuSans-2e"/>
       <use x="95.410156" xlink:href="#DejaVuSans-31"/>
       <use x="159.033203" xlink:href="#DejaVuSans-35"/>
      </g>
     </g>
    </g>
    <g id="ytick_3">
     <g id="line2d_15">
      <path clip-path="url(#p82094c0a7d)" d="M 62.175 399.986014 
L 853.2 399.986014 
" style="fill:none;stroke:#bcd4eb;stroke-dasharray:1.85,0.8;stroke-dashoffset:0;stroke-width:0.5;"/>
     </g>
     <g id="line2d_16">
      <g>
       <use style="fill:#121f9e;stroke:#121f9e;stroke-width:0.8;" x="62.175" xlink:href="#mf9870487d5" y="399.986014"/>
      </g>
     </g>
     <g id="text_9">
      <!-- 0.20 -->
      <g style="fill:#121f9e;" transform="translate(28.45625 404.545076)scale(0.12 -0.12)">
       <use xlink:href="#DejaVuSans-30"/>
       <use x="63.623047" xlink:href="#DejaVuSans-2e"/>
       <use x="95.410156" xlink:href="#DejaVuSans-32"/>
       <use x="159.033203" xlink:href="#DejaVuSans-30"/>
      </g>
     </g>
    </g>
    <g id="ytick_4">
     <g id="line2d_17">
      <path clip-path="url(#p82094c0a7d)" d="M 62.175 341.897436 
L 853.2 341.897436 
" style="fill:none;stroke:#bcd4eb;stroke-dasharray:1.85,0.8;stroke-dashoffset:0;stroke-width:0.5;"/>
     </g>
     <g id="line2d_18">
      <g>
       <use style="fill:#121f9e;stroke:#121f9e;stroke-width:0.8;" x="62.175" xlink:href="#mf9870487d5" y="341.897436"/>
      </g>
     </g>
     <g id="text_10">
      <!-- 0.25 -->
      <g style="fill:#121f9e;" transform="translate(28.45625 346.456498)scale(0.12 -0.12)">
       <use xlink:href="#DejaVuSans-30"/>
       <use x="63.623047" xlink:href="#DejaVuSans-2e"/>
       <use x="95.410156" xlink:href="#DejaVuSans-32"/>
       <use x="159.033203" xlink:href="#DejaVuSans-35"/>
      </g>
     </g>
    </g>
    <g id="ytick_5">
     <g id="line2d_19">
      <path clip-path="url(#p82094c0a7d)" d="M 62.175 283.808858 
L 853.2 283.808858 
" style="fill:none;stroke:#bcd4eb;stroke-dasharray:1.85,0.8;stroke-dashoffset:0;stroke-width:0.5;"/>
     </g>
     <g id="line2d_20">
      <g>
       <use style="fill:#121f9e;stroke:#121f9e;stroke-width:0.8;" x="62.175" xlink:href="#mf9870487d5" y="283.808858"/>
      </g>
     </g>
     <g id="text_11">
      <!-- 0.30 -->
      <g style="fill:#121f9e;" transform="translate(28.45625 288.36792)scale(0.12 -0.12)">
       <use xlink:href="#DejaVuSans-30"/>
       <use x="63.623047" xlink:href="#DejaVuSans-2e"/>
       <use x="95.410156" xlink:href="#DejaVuSans-33"/>
       <use x="159.033203" xlink:href="#DejaVuSans-30"/>
      </g>
     </g>
    </g>
    <g id="ytick_6">
     <g id="line2d_21">
      <path clip-path="url(#p82094c0a7d)" d="M 62.175 225.72028 
L 853.2 225.72028 
" style="fill:none;stroke:#bcd4eb;stroke-dasharray:1.85,0.8;stroke-dashoffset:0;stroke-width:0.5;"/>
     </g>
     <g id="line2d_22">
      <g>
       <use style="fill:#121f9e;stroke:#121f9e;stroke-width:0.8;" x="62.175" xlink:href="#mf9870487d5" y="225.72028"/>
      </g>
     </g>
     <g id="text_12">
      <!-- 0.35 -->
      <g style="fill:#121f9e;" transform="translate(28.45625 230.279342)scale(0.12 -0.12)">
       <use xlink:href="#DejaVuSans-30"/>
       <use x="63.623047" xlink:href="#DejaVuSans-2e"/>
       <use x="95.410156" xlink:href="#DejaVuSans-33"/>
       <use x="159.033203" xlink:href="#DejaVuSans-35"/>
      </g>
     </g>
    </g>
    <g id="ytick_7">
     <g id="line2d_23">
      <path clip-path="url(#p82094c0a7d)" d="M 62.175 167.631702 
L 853.2 167.631702 
" style="fill:none;stroke:#bcd4eb;stroke-dasharray:1.85,0.8;stroke-dashoffset:0;stroke-width:0.5;"/>
     </g>
     <g id="line2d_24">
      <g>
       <use style="fill:#121f9e;stroke:#121f9e;stroke-width:0.8;" x="62.175" xlink:href="#mf9870487d5" y="167.631702"/>
      </g>
     </g>
     <g id="text_13">
      <!-- 0.40 -->
      <g style="fill:#121f9e;" transform="translate(28.45625 172.190764)scale(0.12 -0.12)">
       <defs>
        <path d="M 2419 4116 
L 825 1625 
L 2419 1625 
L 2419 4116 
z
M 2253 4666 
L 3047 4666 
L 3047 1625 
L 3713 1625 
L 3713 1100 
L 3047 1100 
L 3047 0 
L 2419 0 
L 2419 1100 
L 313 1100 
L 313 1709 
L 2253 4666 
z
" id="DejaVuSans-34" transform="scale(0.015625)"/>
       </defs>
       <use xlink:href="#DejaVuSans-30"/>
       <use x="63.623047" xlink:href="#DejaVuSans-2e"/>
       <use x="95.410156" xlink:href="#DejaVuSans-34"/>
       <use x="159.033203" xlink:href="#DejaVuSans-30"/>
      </g>
     </g>
    </g>
    <g id="ytick_8">
     <g id="line2d_25">
      <path clip-path="url(#p82094c0a7d)" d="M 62.175 109.543124 
L 853.2 109.543124 
" style="fill:none;stroke:#bcd4eb;stroke-dasharray:1.85,0.8;stroke-dashoffset:0;stroke-width:0.5;"/>
     </g>
     <g id="line2d_26">
      <g>
       <use style="fill:#121f9e;stroke:#121f9e;stroke-width:0.8;" x="62.175" xlink:href="#mf9870487d5" y="109.543124"/>
      </g>
     </g>
     <g id="text_14">
      <!-- 0.45 -->
      <g style="fill:#121f9e;" transform="translate(28.45625 114.102186)scale(0.12 -0.12)">
       <use xlink:href="#DejaVuSans-30"/>
       <use x="63.623047" xlink:href="#DejaVuSans-2e"/>
       <use x="95.410156" xlink:href="#DejaVuSans-34"/>
       <use x="159.033203" xlink:href="#DejaVuSans-35"/>
      </g>
     </g>
    </g>
    <g id="ytick_9">
     <g id="line2d_27">
      <path clip-path="url(#p82094c0a7d)" d="M 62.175 51.454545 
L 853.2 51.454545 
" style="fill:none;stroke:#bcd4eb;stroke-dasharray:1.85,0.8;stroke-dashoffset:0;stroke-width:0.5;"/>
     </g>
     <g id="line2d_28">
      <g>
       <use style="fill:#121f9e;stroke:#121f9e;stroke-width:0.8;" x="62.175" xlink:href="#mf9870487d5" y="51.454545"/>
      </g>
     </g>
     <g id="text_15">
      <!-- 0.50 -->
      <g style="fill:#121f9e;" transform="translate(28.45625 56.013608)scale(0.12 -0.12)">
       <use xlink:href="#DejaVuSans-30"/>
       <use x="63.623047" xlink:href="#DejaVuSans-2e"/>
       <use x="95.410156" xlink:href="#DejaVuSans-35"/>
       <use x="159.033203" xlink:href="#DejaVuSans-30"/>
      </g>
     </g>
    </g>
    <g id="text_16">
     <!-- False positive rate -->
     <g style="fill:#121f9e;" transform="translate(21.544687 341.701094)rotate(-90)scale(0.14 -0.14)">
      <defs>
       <path d="M 2194 1759 
Q 1497 1759 1228 1600 
Q 959 1441 959 1056 
Q 959 750 1161 570 
Q 1363 391 1709 391 
Q 2188 391 2477 730 
Q 2766 1069 2766 1631 
L 2766 1759 
L 2194 1759 
z
M 3341 1997 
L 3341 0 
L 2766 0 
L 2766 531 
Q 2569 213 2275 61 
Q 1981 -91 1556 -91 
Q 1019 -91 701 211 
Q 384 513 384 1019 
Q 384 1609 779 1909 
Q 1175 2209 1959 2209 
L 2766 2209 
L 2766 2266 
Q 2766 2663 2505 2880 
Q 2244 3097 1772 3097 
Q 1472 3097 1187 3025 
Q 903 2953 641 2809 
L 641 3341 
Q 956 3463 1253 3523 
Q 1550 3584 1831 3584 
Q 2591 3584 2966 3190 
Q 3341 2797 3341 1997 
z
" id="DejaVuSans-61" transform="scale(0.015625)"/>
       <path d="M 2834 3397 
L 2834 2853 
Q 2591 2978 2328 3040 
Q 2066 3103 1784 3103 
Q 1356 3103 1142 2972 
Q 928 2841 928 2578 
Q 928 2378 1081 2264 
Q 1234 2150 1697 2047 
L 1894 2003 
Q 2506 1872 2764 1633 
Q 3022 1394 3022 966 
Q 3022 478 2636 193 
Q 2250 -91 1575 -91 
Q 1294 -91 989 -36 
Q 684 19 347 128 
L 347 722 
Q 666 556 975 473 
Q 1284 391 1588 391 
Q 1994 391 2212 530 
Q 2431 669 2431 922 
Q 2431 1156 2273 1281 
Q 2116 1406 1581 1522 
L 1381 1569 
Q 847 1681 609 1914 
Q 372 2147 372 2553 
Q 372 3047 722 3315 
Q 1072 3584 1716 3584 
Q 2034 3584 2315 3537 
Q 2597 3491 2834 3397 
z
" id="DejaVuSans-73" transform="scale(0.015625)"/>
       <path d="M 1159 525 
L 1159 -1331 
L 581 -1331 
L 581 3500 
L 1159 3500 
L 1159 2969 
Q 1341 3281 1617 3432 
Q 1894 3584 2278 3584 
Q 2916 3584 3314 3078 
Q 3713 2572 3713 1747 
Q 3713 922 3314 415 
Q 2916 -91 2278 -91 
Q 1894 -91 1617 61 
Q 1341 213 1159 525 
z
M 3116 1747 
Q 3116 2381 2855 2742 
Q 2594 3103 2138 3103 
Q 1681 3103 1420 2742 
Q 1159 2381 1159 1747 
Q 1159 1113 1420 752 
Q 1681 391 2138 391 
Q 2594 391 2855 752 
Q 3116 1113 3116 1747 
z
" id="DejaVuSans-70" transform="scale(0.015625)"/>
       <path d="M 191 3500 
L 800 3500 
L 1894 563 
L 2988 3500 
L 3597 3500 
L 2284 0 
L 1503 0 
L 191 3500 
z
" id="DejaVuSans-76" transform="scale(0.015625)"/>
      </defs>
      <use xlink:href="#DejaVuSans-46"/>
      <use x="48.394531" xlink:href="#DejaVuSans-61"/>
      <use x="109.673828" xlink:href="#DejaVuSans-6c"/>
      <use x="137.457031" xlink:href="#DejaVuSans-73"/>
      <use x="189.556641" xlink:href="#DejaVuSans-65"/>
      <use x="251.080078" xlink:href="#DejaVuSans-20"/>
      <use x="282.867188" xlink:href="#DejaVuSans-70"/>
      <use x="346.34375" xlink:href="#DejaVuSans-6f"/>
      <use x="407.525391" xlink:href="#DejaVuSans-73"/>
      <use x="459.625" xlink:href="#DejaVuSans-69"/>
      <use x="487.408203" xlink:href="#DejaVuSans-74"/>
      <use x="526.617188" xlink:href="#DejaVuSans-69"/>
      <use x="554.400391" xlink:href="#DejaVuSans-76"/>
      <use x="613.580078" xlink:href="#DejaVuSans-65"/>
      <use x="675.103516" xlink:href="#DejaVuSans-20"/>
      <use x="706.890625" xlink:href="#DejaVuSans-72"/>
      <use x="748.003906" xlink:href="#DejaVuSans-61"/>
      <use x="809.283203" xlink:href="#DejaVuSans-74"/>
      <use x="848.492188" xlink:href="#DejaVuSans-65"/>
     </g>
    </g>
   </g>
   <g id="line2d_29">
    <path clip-path="url(#p82094c0a7d)" d="M 62.175 51.454545 
L 853.2 51.454545 
" style="fill:none;stroke:#45f485;stroke-linecap:square;"/>
   </g>
   <g id="line2d_30">
    <path clip-path="url(#p82094c0a7d)" d="M 98.130682 51.454545 
L 107.740404 63.072261 
L 117.517252 74.689977 
L 127.516935 86.307692 
L 137.739451 97.925408 
L 148.184801 109.543124 
L 158.852986 121.160839 
L 169.771859 132.778555 
L 180.941421 144.39627 
L 192.389525 156.013986 
L 204.116171 167.631702 
L 216.121361 179.249417 
L 228.460802 190.867133 
L 241.134494 202.484848 
L 254.142437 214.102564 
L 267.54034 225.72028 
L 281.300348 237.337995 
L 295.47817 248.955711 
L 310.101661 260.573427 
L 325.17082 272.191142 
L 340.741356 283.808858 
L 356.841123 295.426573 
L 373.497975 307.044289 
L 390.767621 318.662005 
L 408.70577 330.27972 
L 427.340275 341.897436 
L 446.726846 353.515152 
L 466.92119 365.132867 
L 488.034725 376.750583 
L 510.123159 388.368298 
L 533.29791 399.986014 
L 557.670395 411.60373 
L 583.35203 423.221445 
L 610.482087 434.839161 
L 639.2834 446.456876 
L 669.923095 458.074592 
L 702.707568 469.692308 
L 737.887509 481.310023 
L 775.908585 492.927739 
L 817.244318 504.545455 
" style="fill:none;stroke:#121f9e;stroke-linecap:square;stroke-width:2;"/>
    <defs>
     <path d="M 0 4 
C 1.060812 4 2.078319 3.578535 2.828427 2.828427 
C 3.578535 2.078319 4 1.060812 4 0 
C 4 -1.060812 3.578535 -2.078319 2.828427 -2.828427 
C 2.078319 -3.578535 1.060812 -4 0 -4 
C -1.060812 -4 -2.078319 -3.578535 -2.828427 -2.828427 
C -3.578535 -2.078319 -4 -1.060812 -4 0 
C -4 1.060812 -3.578535 2.078319 -2.828427 2.828427 
C -2.078319 3.578535 -1.060812 4 0 4 
z
" id="md87e5465f5" style="stroke:#121f9e;"/>
    </defs>
    <g clip-path="url(#p82094c0a7d)">
     <use style="fill:#121f9e;stroke:#121f9e;" x="98.130682" xlink:href="#md87e5465f5" y="51.454545"/>
     <use style="fill:#121f9e;stroke:#121f9e;" x="107.740404" xlink:href="#md87e5465f5" y="63.072261"/>
     <use style="fill:#121f9e;stroke:#121f9e;" x="117.517252" xlink:href="#md87e5465f5" y="74.689977"/>
     <use style="fill:#121f9e;stroke:#121f9e;" x="127.516935" xlink:href="#md87e5465f5" y="86.307692"/>
     <use style="fill:#121f9e;stroke:#121f9e;" x="137.739451" xlink:href="#md87e5465f5" y="97.925408"/>
     <use style="fill:#121f9e;stroke:#121f9e;" x="148.184801" xlink:href="#md87e5465f5" y="109.543124"/>
     <use style="fill:#121f9e;stroke:#121f9e;" x="158.852986" xlink:href="#md87e5465f5" y="121.160839"/>
     <use style="fill:#121f9e;stroke:#121f9e;" x="169.771859" xlink:href="#md87e5465f5" y="132.778555"/>
     <use style="fill:#121f9e;stroke:#121f9e;" x="180.941421" xlink:href="#md87e5465f5" y="144.39627"/>
     <use style="fill:#121f9e;stroke:#121f9e;" x="192.389525" xlink:href="#md87e5465f5" y="156.013986"/>
     <use style="fill:#121f9e;stroke:#121f9e;" x="204.116171" xlink:href="#md87e5465f5" y="167.631702"/>
     <use style="fill:#121f9e;stroke:#121f9e;" x="216.121361" xlink:href="#md87e5465f5" y="179.249417"/>
     <use style="fill:#121f9e;stroke:#121f9e;" x="228.460802" xlink:href="#md87e5465f5" y="190.867133"/>
     <use style="fill:#121f9e;stroke:#121f9e;" x="241.134494" xlink:href="#md87e5465f5" y="202.484848"/>
     <use style="fill:#121f9e;stroke:#121f9e;" x="254.142437" xlink:href="#md87e5465f5" y="214.102564"/>
     <use style="fill:#121f9e;stroke:#121f9e;" x="267.54034" xlink:href="#md87e5465f5" y="225.72028"/>
     <use style="fill:#121f9e;stroke:#121f9e;" x="281.300348" xlink:href="#md87e5465f5" y="237.337995"/>
     <use style="fill:#121f9e;stroke:#121f9e;" x="295.47817" xlink:href="#md87e5465f5" y="248.955711"/>
     <use style="fill:#121f9e;stroke:#121f9e;" x="310.101661" xlink:href="#md87e5465f5" y="260.573427"/>
     <use style="fill:#121f9e;stroke:#121f9e;" x="325.17082" xlink:href="#md87e5465f5" y="272.191142"/>
     <use style="fill:#121f9e;stroke:#121f9e;" x="340.741356" xlink:href="#md87e5465f5" y="283.808858"/>
     <use style="fill:#121f9e;stroke:#121f9e;" x="356.841123" xlink:href="#md87e5465f5" y="295.426573"/>
     <use style="fill:#121f9e;stroke:#121f9e;" x="373.497975" xlink:href="#md87e5465f5" y="307.044289"/>
     <use style="fill:#121f9e;stroke:#121f9e;" x="390.767621" xlink:href="#md87e5465f5" y="318.662005"/>
     <use style="fill:#121f9e;stroke:#121f9e;" x="408.70577" xlink:href="#md87e5465f5" y="330.27972"/>
     <use style="fill:#121f9e;stroke:#121f9e;" x="427.340275" xlink:href="#md87e5465f5" y="341.897436"/>
     <use style="fill:#121f9e;stroke:#121f9e;" x="446.726846" xlink:href="#md87e5465f5" y="353.515152"/>
     <use style="fill:#121f9e;stroke:#121f9e;" x="466.92119" xlink:href="#md87e5465f5" y="365.132867"/>
     <use style="fill:#121f9e;stroke:#121f9e;" x="488.034725" xlink:href="#md87e5465f5" y="376.750583"/>
     <use style="fill:#121f9e;stroke:#121f9e;" x="510.123159" xlink:href="#md87e5465f5" y="388.368298"/>
     <use style="fill:#121f9e;stroke:#121f9e;" x="533.29791" xlink:href="#md87e5465f5" y="399.986014"/>
     <use style="fill:#121f9e;stroke:#121f9e;" x="557.670395" xlink:href="#md87e5465f5" y="411.60373"/>
     <use style="fill:#121f9e;stroke:#121f9e;" x="583.35203" xlink:href="#md87e5465f5" y="423.221445"/>
     <use style="fill:#121f9e;stroke:#121f9e;" x="610.482087" xlink:href="#md87e5465f5" y="434.839161"/>
     <use style="fill:#121f9e;stroke:#121f9e;" x="639.2834" xlink:href="#md87e5465f5" y="446.456876"/>
     <use style="fill:#121f9e;stroke:#121f9e;" x="669.923095" xlink:href="#md87e5465f5" y="458.074592"/>
     <use style="fill:#121f9e;stroke:#121f9e;" x="702.707568" xlink:href="#md87e5465f5" y="469.692308"/>
     <use style="fill:#121f9e;stroke:#121f9e;" x="737.887509" xlink:href="#md87e5465f5" y="481.310023"/>
     <use style="fill:#121f9e;stroke:#121f9e;" x="775.908585" xlink:href="#md87e5465f5" y="492.927739"/>
     <use style="fill:#121f9e;stroke:#121f9e;" x="817.244318" xlink:href="#md87e5465f5" y="504.545455"/>
    </g>
   </g>
   <g id="patch_3">
    <path d="M 62.175 527.2 
L 62.175 28.8 
" style="fill:none;stroke:#121f9e;stroke-linecap:square;stroke-linejoin:miter;stroke-width:0.8;"/>
   </g>
   <g id="patch_4">
    <path d="M 853.2 527.2 
L 853.2 28.8 
" style="fill:none;stroke:#121f9e;stroke-linecap:square;stroke-linejoin:miter;stroke-width:0.8;"/>
   </g>
   <g id="patch_5">
    <path d="M 62.175 527.2 
L 853.2 527.2 
" style="fill:none;stroke:#121f9e;stroke-linecap:square;stroke-linejoin:miter;stroke-width:0.8;"/>
   </g>
   <g id="patch_6">
    <path d="M 62.175 28.8 
L 853.2 28.8 
" style="fill:none;stroke:#121f9e;stroke-linecap:square;stroke-linejoin:miter;stroke-width:0.8;"/>
   </g>
   <g id="text_17">
    <!-- Bloom Filter Size vs. False Positive Rate – 1024B Message -->
    <g style="fill:#121f9e;" transform="translate(227.65625 22.8)scale(0.16 -0.16)">
     <defs>
      <path d="M 1259 4147 
L 1259 2394 
L 2053 2394 
Q 2494 2394 2734 2622 
Q 2975 2850 2975 3272 
Q 2975 3691 2734 3919 
Q 2494 4147 2053 4147 
L 1259 4147 
z
M 628 4666 
L 2053 4666 
Q 2838 4666 3239 4311 
Q 3641 3956 3641 3272 
Q 3641 2581 3239 2228 
Q 2838 1875 2053 1875 
L 1259 1875 
L 1259 0 
L 628 0 
L 628 4666 
z
" id="DejaVuSans-50" transform="scale(0.015625)"/>
      <path d="M 2841 2188 
Q 3044 2119 3236 1894 
Q 3428 1669 3622 1275 
L 4263 0 
L 3584 0 
L 2988 1197 
Q 2756 1666 2539 1819 
Q 2322 1972 1947 1972 
L 1259 1972 
L 1259 0 
L 628 0 
L 628 4666 
L 2053 4666 
Q 2853 4666 3247 4331 
Q 3641 3997 3641 3322 
Q 3641 2881 3436 2590 
Q 3231 2300 2841 2188 
z
M 1259 4147 
L 1259 2491 
L 2053 2491 
Q 2509 2491 2742 2702 
Q 2975 2913 2975 3322 
Q 2975 3731 2742 3939 
Q 2509 4147 2053 4147 
L 1259 4147 
z
" id="DejaVuSans-52" transform="scale(0.015625)"/>
      <path d="M 313 1978 
L 2888 1978 
L 2888 1528 
L 313 1528 
L 313 1978 
z
" id="DejaVuSans-2013" transform="scale(0.015625)"/>
      <path d="M 628 4666 
L 1569 4666 
L 2759 1491 
L 3956 4666 
L 4897 4666 
L 4897 0 
L 4281 0 
L 4281 4097 
L 3078 897 
L 2444 897 
L 1241 4097 
L 1241 0 
L 628 0 
L 628 4666 
z
" id="DejaVuSans-4d" transform="scale(0.015625)"/>
      <path d="M 2906 1791 
Q 2906 2416 2648 2759 
Q 2391 3103 1925 3103 
Q 1463 3103 1205 2759 
Q 947 2416 947 1791 
Q 947 1169 1205 825 
Q 1463 481 1925 481 
Q 2391 481 2648 825 
Q 2906 1169 2906 1791 
z
M 3481 434 
Q 3481 -459 3084 -895 
Q 2688 -1331 1869 -1331 
Q 1566 -1331 1297 -1286 
Q 1028 -1241 775 -1147 
L 775 -588 
Q 1028 -725 1275 -790 
Q 1522 -856 1778 -856 
Q 2344 -856 2625 -561 
Q 2906 -266 2906 331 
L 2906 616 
Q 2728 306 2450 153 
Q 2172 0 1784 0 
Q 1141 0 747 490 
Q 353 981 353 1791 
Q 353 2603 747 3093 
Q 1141 3584 1784 3584 
Q 2172 3584 2450 3431 
Q 2728 3278 2906 2969 
L 2906 3500 
L 3481 3500 
L 3481 434 
z
" id="DejaVuSans-67" transform="scale(0.015625)"/>
     </defs>
     <use xlink:href="#DejaVuSans-42"/>
     <use x="68.603516" xlink:href="#DejaVuSans-6c"/>
     <use x="96.386719" xlink:href="#DejaVuSans-6f"/>
     <use x="157.568359" xlink:href="#DejaVuSans-6f"/>
     <use x="218.75" xlink:href="#DejaVuSans-6d"/>
     <use x="316.162109" xlink:href="#DejaVuSans-20"/>
     <use x="347.949219" xlink:href="#DejaVuSans-46"/>
     <use x="398.21875" xlink:href="#DejaVuSans-69"/>
     <use x="426.001953" xlink:href="#DejaVuSans-6c"/>
     <use x="453.785156" xlink:href="#DejaVuSans-74"/>
     <use x="492.994141" xlink:href="#DejaVuSans-65"/>
     <use x="554.517578" xlink:href="#DejaVuSans-72"/>
     <use x="595.630859" xlink:href="#DejaVuSans-20"/>
     <use x="627.417969" xlink:href="#DejaVuSans-53"/>
     <use x="690.894531" xlink:href="#DejaVuSans-69"/>
     <use x="718.677734" xlink:href="#DejaVuSans-7a"/>
     <use x="771.167969" xlink:href="#DejaVuSans-65"/>
     <use x="832.691406" xlink:href="#DejaVuSans-20"/>
     <use x="864.478516" xlink:href="#DejaVuSans-76"/>
     <use x="923.658203" xlink:href="#DejaVuSans-73"/>
     <use x="975.757812" xlink:href="#DejaVuSans-2e"/>
     <use x="1007.544922" xlink:href="#DejaVuSans-20"/>
     <use x="1039.332031" xlink:href="#DejaVuSans-46"/>
     <use x="1087.726562" xlink:href="#DejaVuSans-61"/>
     <use x="1149.005859" xlink:href="#DejaVuSans-6c"/>
     <use x="1176.789062" xlink:href="#DejaVuSans-73"/>
     <use x="1228.888672" xlink:href="#DejaVuSans-65"/>
     <use x="1290.412109" xlink:href="#DejaVuSans-20"/>
     <use x="1322.199219" xlink:href="#DejaVuSans-50"/>
     <use x="1378.876953" xlink:href="#DejaVuSans-6f"/>
     <use x="1440.058594" xlink:href="#DejaVuSans-73"/>
     <use x="1492.158203" xlink:href="#DejaVuSans-69"/>
     <use x="1519.941406" xlink:href="#DejaVuSans-74"/>
     <use x="1559.150391" xlink:href="#DejaVuSans-69"/>
     <use x="1586.933594" xlink:href="#DejaVuSans-76"/>
     <use x="1646.113281" xlink:href="#DejaVuSans-65"/>
     <use x="1707.636719" xlink:href="#DejaVuSans-20"/>
     <use x="1739.423828" xlink:href="#DejaVuSans-52"/>
     <use x="1806.65625" xlink:href="#DejaVuSans-61"/>
     <use x="1867.935547" xlink:href="#DejaVuSans-74"/>
     <use x="1907.144531" xlink:href="#DejaVuSans-65"/>
     <use x="1968.667969" xlink:href="#DejaVuSans-20"/>
     <use x="2000.455078" xlink:href="#DejaVuSans-2013"/>
     <use x="2050.455078" xlink:href="#DejaVuSans-20"/>
     <use x="2082.242188" xlink:href="#DejaVuSans-31"/>
     <use x="2145.865234" xlink:href="#DejaVuSans-30"/>
     <use x="2209.488281" xlink:href="#DejaVuSans-32"/>
     <use x="2273.111328" xlink:href="#DejaVuSans-34"/>
     <use x="2336.734375" xlink:href="#DejaVuSans-42"/>
     <use x="2405.337891" xlink:href="#DejaVuSans-20"/>
     <use x="2437.125" xlink:href="#DejaVuSans-4d"/>
     <use x="2523.404297" xlink:href="#DejaVuSans-65"/>
     <use x="2584.927734" xlink:href="#DejaVuSans-73"/>
     <use x="2637.027344" xlink:href="#DejaVuSans-73"/>
     <use x="2689.126953" xlink:href="#DejaVuSans-61"/>
     <use x="2750.40625" xlink:href="#DejaVuSans-67"/>
     <use x="2813.882812" xlink:href="#DejaVuSans-65"/>
    </g>
   </g>
   <g id="legend_1">
    <g id="patch_7">
     <path d="M 70.575 521.2 
L 258.935625 521.2 
Q 261.335625 521.2 261.335625 518.8 
L 261.335625 502.38625 
Q 261.335625 499.98625 258.935625 499.98625 
L 70.575 499.98625 
Q 68.175 499.98625 68.175 502.38625 
L 68.175 518.8 
Q 68.175 521.2 70.575 521.2 
z
" style="fill:#ffffff;opacity:0.8;stroke:#cccccc;stroke-linejoin:miter;"/>
    </g>
    <g id="line2d_31">
     <path d="M 72.975 509.704375 
L 96.975 509.704375 
" style="fill:none;stroke:#121f9e;stroke-linecap:square;stroke-width:2;"/>
    </g>
    <g id="line2d_32">
     <g>
      <use style="fill:#121f9e;stroke:#121f9e;" x="84.975" xlink:href="#md87e5465f5" y="509.704375"/>
     </g>
    </g>
    <g id="text_18">
     <!-- Bloom Filter Size per FPR -->
     <g style="fill:#121f9e;" transform="translate(106.575 513.904375)scale(0.12 -0.12)">
      <use xlink:href="#DejaVuSans-42"/>
      <use x="68.603516" xlink:href="#DejaVuSans-6c"/>
      <use x="96.386719" xlink:href="#DejaVuSans-6f"/>
      <use x="157.568359" xlink:href="#DejaVuSans-6f"/>
      <use x="218.75" xlink:href="#DejaVuSans-6d"/>
      <use x="316.162109" xlink:href="#DejaVuSans-20"/>
      <use x="347.949219" xlink:href="#DejaVuSans-46"/>
      <use x="398.21875" xlink:href="#DejaVuSans-69"/>
      <use x="426.001953" xlink:href="#DejaVuSans-6c"/>
      <use x="453.785156" xlink:href="#DejaVuSans-74"/>
      <use x="492.994141" xlink:href="#DejaVuSans-65"/>
      <use x="554.517578" xlink:href="#DejaVuSans-72"/>
      <use x="595.630859" xlink:href="#DejaVuSans-20"/>
      <use x="627.417969" xlink:href="#DejaVuSans-53"/>
      <use x="690.894531" xlink:href="#DejaVuSans-69"/>
      <use x="718.677734" xlink:href="#DejaVuSans-7a"/>
      <use x="771.167969" xlink:href="#DejaVuSans-65"/>
      <use x="832.691406" xlink:href="#DejaVuSans-20"/>
      <use x="864.478516" xlink:href="#DejaVuSans-70"/>
      <use x="927.955078" xlink:href="#DejaVuSans-65"/>
      <use x="989.478516" xlink:href="#DejaVuSans-72"/>
      <use x="1030.591797" xlink:href="#DejaVuSans-20"/>
      <use x="1062.378906" xlink:href="#DejaVuSans-46"/>
      <use x="1119.898438" xlink:href="#DejaVuSans-50"/>
      <use x="1180.201172" xlink:href="#DejaVuSans-52"/>
     </g>
    </g>
   </g>
  </g>
 </g>
 <defs>
  <clipPath id="p82094c0a7d">
   <rect height="498.4" width="791.025" x="62.175" y="28.8"/>
  </clipPath>
 </defs>
</svg>
